<?xml version="1.0" encoding="UTF-8" standalone="no"?>
<svg
   width="450"
   height="450"
   viewBox="0 0 450 450"
   fill="none"
   version="1.1"
   id="svg1037"
   sodipodi:docname="Vector-iBerlin.svg"
   inkscape:version="1.2.1 (9c6d41e, 2022-07-14)"
   xmlns:inkscape="http://www.inkscape.org/namespaces/inkscape"
   xmlns:sodipodi="http://sodipodi.sourceforge.net/DTD/sodipodi-0.dtd"
   xmlns:xlink="http://www.w3.org/1999/xlink"
   xmlns="http://www.w3.org/2000/svg"
   xmlns:svg="http://www.w3.org/2000/svg">
  <sodipodi:namedview
     id="namedview1039"
     pagecolor="#ffffff"
     bordercolor="#000000"
     borderopacity="0.25"
     inkscape:showpageshadow="2"
     inkscape:pageopacity="0.0"
     inkscape:pagecheckerboard="true"
     inkscape:deskcolor="#d1d1d1"
     showgrid="false"
     inkscape:zoom="0.8757027"
     inkscape:cx="454.49215"
     inkscape:cy="262.07525"
     inkscape:window-width="1673"
     inkscape:window-height="1051"
     inkscape:window-x="55"
     inkscape:window-y="38"
     inkscape:window-maximized="1"
     inkscape:current-layer="svg1037" />
  <circle
     style="fill:#ffbe00;fill-opacity:1;stroke:none;stroke-width:9.95411;stroke-linecap:round"
     id="path1140"
     cx="223.98074"
     cy="223.98074"
     r="200" />
  <circle
     style="fill:url(#radialGradient5042);fill-opacity:1;stroke:none;stroke-width:11.1476;stroke-linecap:round"
     id="circle5034"
     cx="225"
     cy="225"
     r="223.98074" />
  <path
     d="m 184.26886,127.1819 c 0.464,-0.858 0.145,-1.932 -0.72401,-2.374 -8.898,-4.5289 -18.64801,-7.1598 -28.63001,-7.7178 -10.57101,-0.5909 -21.14302,1.1573 -30.95983,5.1198 -9.8169,3.96201 -18.63721,10.04201 -25.831211,17.80302 -6.79351,7.32998 -11.97851,15.989 -15.23101,25.42101 -0.318,0.92201 0.1991,1.91601 1.1295,2.211 0.9304,0.295 1.9217,-0.22099 2.2409,-1.14199 3.0944,-8.93701 8.0142,-17.14201 14.454111,-24.09002 6.8405,-7.38 15.22731,-13.16102 24.56152,-16.92802 9.335,-3.7681 19.38701,-5.4303 29.43802,-4.8685 9.463,0.529 18.70601,3.0169 27.14601,7.2985 0.87,0.442 1.942,0.125 2.40601,-0.733 z"
     fill="#ff0000"
     id="path974"
     style="stroke-width:1" />
  <path
     d="m 256.3839,127.1819 c -0.464,-0.858 -0.145,-1.932 0.724,-2.374 8.89801,-4.5289 18.64801,-7.1598 28.63002,-7.7178 10.57101,-0.5909 21.14301,1.1573 30.96002,5.1198 9.81701,3.96201 18.63701,10.04201 25.83102,17.80302 6.79298,7.32998 11.978,15.989 15.23101,25.42101 0.31799,0.92201 -0.199,1.91601 -1.13,2.211 -0.93,0.295 -1.92101,-0.22099 -2.24001,-1.14199 -3.095,-8.93701 -8.01501,-17.14201 -14.45501,-24.09002 -6.84001,-7.38 -15.22701,-13.16102 -24.56101,-16.92802 -9.33501,-3.7681 -19.38701,-5.4303 -29.43802,-4.8685 -9.463,0.529 -18.70702,3.0169 -27.14602,7.2985 -0.87001,0.442 -1.94201,0.125 -2.406,-0.733 z"
     fill="#ff0000"
     id="path976"
     style="stroke-width:1" />
  <path
     d="m 347.18295,240.60095 c 1.825,1.27602 2.27201,3.79202 0.95001,5.58301 -14.30103,19.35803 -32.77002,35.28604 -54.06204,46.59804 -22.48001,11.943 -47.47003,18.40002 -72.92704,18.84401 -25.45602,0.444 -50.65703,-5.13801 -73.54105,-16.28902 -21.67401,-10.56299 -40.68723,-25.83702 -55.655641,-44.68501 -1.3847,-1.743 -1.0254,-4.274 0.7537,-5.61302 1.779,-1.33999 4.30381,-0.98099 5.69081,0.76102 14.200711,17.83201 32.218121,32.28801 52.748131,42.29201 21.73902,10.594 45.68003,15.89701 69.86304,15.47501 24.18403,-0.421 47.92504,-6.556 69.28104,-17.90101 20.16802,-10.71499 37.66904,-25.789 51.23904,-44.10602 1.32501,-1.78901 3.836,-2.236 5.66,-0.95902 z"
     fill="#ff0000"
     id="path978"
     style="stroke-width:1" />
  <path
     d="m 116.79151,221.09296 c 0,-0.41899 0.0233,-0.93201 0.07,-1.537 0.0932,-0.652 0.233,-1.49101 0.4195,-2.51599 0.1865,-1.07101 0.4196,-2.35201 0.6993,-3.84201 0.3264,-1.49099 0.7226,-3.284 1.1888,-5.38001 0.0932,-0.466 0.303,-1.21099 0.6294,-2.236 0.3263,-1.025 0.7459,-2.096 1.2587,-3.214 0.5594,-1.164 1.2121,-2.28199 1.958,-3.35399 0.7925,-1.07101 1.72461,-1.863 2.79761,-2.37501 0.792,0.18601 1.841,0.675 3.146,1.46701 1.306,0.74499 2.425,1.79299 3.357,3.144 -1.072,1.21099 -1.981,2.422 -2.727,3.63299 -0.7,1.21101 -1.352,2.469 -1.958,3.77301 -0.56,1.30401 -1.096,2.655 -1.609,4.053 -0.466,1.397 -1.002,2.864 -1.608,4.401 -0.51281,1.305 -0.97901,2.655 -1.39861,4.05301 -0.4196,1.35099 -0.6527,2.53799 -0.6993,3.56301 0,0.839 -0.0233,1.421 -0.0699,1.74698 0,0.37201 -0.1166,0.55901 -0.3497,0.55901 -0.1864,0 -0.5594,-0.11699 -1.1188,-0.34999 -0.5595,-0.23201 -1.1422,-0.58202 -1.7482,-1.048 -0.5595,-0.51201 -1.0723,-1.141 -1.5385,-1.88602 -0.4662,-0.74499 -0.6993,-1.63 -0.6993,-2.655 z m 13.35631,-30.32301 c 0,-0.28002 0.07,-0.699 0.21,-1.25801 -0.233,-0.233 -0.443,-0.58199 -0.629,-1.048 -0.14,-0.466 -0.21,-0.885 -0.21,-1.258 0,-0.41899 0.046,-0.97799 0.14,-1.67601 0.14,-0.74599 0.303,-1.53798 0.489,-2.37599 0.187,-0.83799 0.42,-1.69999 0.699,-2.585 0.28,-0.932 0.56,-1.76999 0.84,-2.51501 0.559,0 1.235,0.16302 2.028,0.489 0.839,0.27901 1.678,0.675 2.517,1.18701 0.839,0.466 1.608,1.002 2.30801,1.60701 0.699,0.559 1.235,1.09499 1.608,1.607 -0.513,0.513 -1.189,1.23499 -2.02801,2.16599 -0.839,0.88501 -1.655,1.84 -2.447,2.86501 -0.793,0.97799 -1.516,1.90999 -2.168,2.795 -0.653,0.88499 -1.073,1.514 -1.259,1.88599 -0.559,-0.093 -1.049,-0.326 -1.468,-0.69799 -0.42,-0.42002 -0.63,-0.81601 -0.63,-1.188 z"
     fill="#099aa4"
     id="path980"
     style="stroke-width:1" />
  <path
     d="m 198.37086,187.27595 c 0,2.888 -0.792,5.473 -2.377,7.756 -1.585,2.236 -3.753,4.09899 -6.504,5.58901 1.772,1.21099 3.171,2.702 4.196,4.472 1.072,1.723 1.609,3.633 1.609,5.729 0,2.51501 -0.77,5.007 -2.308,7.476 -1.492,2.422 -3.497,4.58801 -6.014,6.49801 -2.517,1.863 -5.38401,3.377 -8.60101,4.541 -3.217,1.165 -6.504,1.747 -9.86001,1.747 -3.637,0 -6.83,-0.69901 -9.58,-2.096 -2.704,-1.35099 -4.826,-3.284 -6.36401,-5.79901 0.466,-1.397 1.07201,-3.12099 1.81801,-5.16999 0.793,-2.096 1.655,-4.28601 2.588,-6.56802 0.932,-2.329 1.864,-4.63499 2.797,-6.917 0.979,-2.282 1.888,-4.33199 2.727,-6.149 1.771,-3.959 3.356,-7.24301 4.755,-9.85102 1.399,-2.60899 2.68101,-4.68099 3.84601,-6.21798 -2.56401,0.79099 -4.89501,1.7 -6.99301,2.724 -2.098,0.979 -3.636,1.934 -4.615,2.86499 -0.42,-0.27899 -0.862,-0.699 -1.329,-1.25799 -0.419,-0.559 -0.839,-1.16401 -1.258,-1.816 -0.373,-0.699 -0.7,-1.398 -0.979,-2.096 -0.234,-0.699 -0.373,-1.32801 -0.42,-1.887 1.212,-0.83801 2.774,-1.63002 4.685,-2.37501 1.958,-0.79201 4.079,-1.46701 6.364,-2.02601 2.284,-0.55899 4.61501,-1.002 6.99301,-1.328 2.424,-0.326 4.732,-0.489 6.923,-0.489 5.59401,0 9.97601,1.11801 13.14601,3.35401 3.17,2.23601 4.755,5.33301 4.755,9.29201 z m -26.64201,16.699 c -0.886,-0.41901 -1.702,-1.048 -2.448,-1.88599 -1.07201,2.37498 -2.09801,4.70398 -3.07701,6.986 -0.932,2.28301 -1.771,4.402 -2.517,6.35899 -0.746,1.956 -1.352,3.65601 -1.818,5.1 -0.467,1.44401 -0.723,2.49201 -0.77,3.14402 0.653,0.37301 1.422,0.652 2.308,0.838 0.932,0.187 2.075,0.28 3.427,0.28 3.17001,0 6.20001,-0.44299 9.09001,-1.32801 2.891,-0.885 5.431,-2.07199 7.622,-3.563 2.19201,-1.537 3.94001,-3.284 5.24501,-5.24 1.306,-1.956 1.958,-4.00599 1.958,-6.14902 0,-3.07399 -1.328,-5.28598 -3.986,-6.63699 -3.63601,1.49 -7.73901,2.236 -12.30701,2.236 -0.653,0 -1.166,0 -1.539,0 -0.326,0 -0.722,-0.047 -1.188,-0.14 z m 13.56601,-24.24501 c -0.979,0 -2.02801,0.07 -3.14701,0.21001 -1.072,0.093 -2.214,0.25599 -3.427,0.489 0.187,0.186 0.327,0.39599 0.42,0.62899 0.14,0.186 0.256,0.39601 0.35,0.62901 -0.42,0.55899 -0.933,1.37399 -1.539,2.445 -0.606,1.07099 -1.282,2.329 -2.028,3.77299 -0.746,1.397 -1.538,2.95799 -2.377,4.68099 -0.793,1.72402 -1.609,3.49402 -2.448,5.31002 0.793,-0.186 1.748,-0.326 2.867,-0.41901 1.166,-0.13999 2.308,-0.20899 3.427,-0.20899 0.606,0 1.189,0.023 1.748,0.069 0.606,0.047 1.189,0.117 1.748,0.21 2.238,-0.373 4.24301,-0.908 6.01401,-1.607 1.818,-0.74499 3.38,-1.58399 4.685,-2.51502 1.306,-0.97799 2.308,-2.04999 3.007,-3.21398 0.7,-1.16501 1.049,-2.39901 1.049,-3.70301 0,-2.23599 -0.886,-3.91301 -2.657,-5.031 -1.772,-1.16399 -4.336,-1.747 -7.692,-1.747 z"
     fill="#ff0000"
     id="path982"
     style="stroke-width:1" />
  <path
     d="m 224.86487,196.84795 c -0.18599,2.888 -0.69899,5.38 -1.53799,7.476 -0.839,2.05001 -2.051,3.86601 -3.63701,5.45001 -1.538,1.537 -3.42599,2.935 -5.664,4.192 -2.237,1.25801 -4.848,2.469 -7.832,3.63301 0,0.28 -0.023,0.58299 -0.07,0.90899 0,0.27901 0,0.582 0,0.908 0,0.606 0.047,1.23401 0.14,1.887 0.093,0.65201 0.257,1.257 0.49,1.81601 0.233,0.559 0.559,1.02499 0.979,1.397 0.419,0.327 0.955,0.49001 1.608,0.49001 1.259,0 2.494,-0.28 3.706,-0.839 1.212,-0.55902 2.35501,-1.23402 3.42701,-2.02602 1.119,-0.838 2.14399,-1.723 3.077,-2.65501 0.979,-0.97799 1.841,-1.86299 2.587,-2.65498 0.466,0.41899 0.86199,0.815 1.189,1.188 -2.09799,2.79399 -4.406,5.12299 -6.923,6.98701 -2.47101,1.816 -4.82501,2.98098 -7.06301,3.49299 -3.217,-0.373 -5.734,-1.53699 -7.552,-3.49299 -1.772,-2.00301 -2.65801,-4.40202 -2.65801,-7.19702 0,-1.90999 0.257,-3.843 0.77001,-5.799 0.559,-2.003 1.305,-3.913 2.237,-5.729 0.979,-1.86401 2.098,-3.61 3.357,-5.24101 1.305,-1.63 2.681,-3.04999 4.126,-4.26199 1.492,-1.21101 3.007,-2.165 4.545,-2.864 1.58501,-0.69901 3.14701,-1.04801 4.685,-1.04801 2.14501,0.27899 4.149,1.60699 6.014,3.982 z m -4.82499,2.30601 c -1.259,0.186 -2.564,0.699 -3.916,1.53699 -1.352,0.839 -2.63401,1.956 -3.84601,3.35401 -1.165,1.39699 -2.238,3.028 -3.217,4.89101 -0.979,1.863 -1.748,3.86599 -2.307,6.008 3.729,-1.863 6.829,-4.145 9.30001,-6.84701 2.47099,-2.74801 3.79999,-5.72901 3.986,-8.943 z"
     fill="#ff0000"
     id="path984"
     style="stroke-width:1" />
  <path
     d="m 226.42389,224.37696 c 0.23298,-1.351 0.62998,-3.12099 1.18898,-5.30999 0.606,-2.236 1.30602,-4.58801 2.098,-7.05701 0.79302,-2.51501 1.63201,-5.03101 2.51802,-7.54602 0.88499,-2.51498 1.748,-4.77399 2.587,-6.77699 0.606,-1.44399 1.14199,-2.562 1.60799,-3.354 0.466,-0.838 0.979,-1.53701 1.53901,-2.09601 0.65199,0.093 1.328,0.25601 2.02799,0.48901 0.699,0.233 1.37501,0.51199 2.02801,0.838 0.65199,0.327 1.23499,0.67599 1.74799,1.04901 0.513,0.32599 0.90901,0.65199 1.18901,0.97799 -1.259,1.49 -2.378,3.19001 -3.357,5.1 -0.932,1.91 -1.88801,4.35501 -2.86701,7.336 2.51701,-2.23499 4.73201,-4.378 6.64302,-6.428 1.958,-2.049 3.776,-4.331 5.455,-6.847 0.279,-0.233 0.76899,-0.349 1.46799,-0.349 0.653,0 1.28201,0.116 1.88801,0.349 0.606,0.187 1.026,0.466 1.259,0.839 -0.839,2.23501 -1.259,4.448 -1.259,6.637 0,2.05001 0.30299,3.587 0.90899,4.61201 -0.046,0.27899 -0.373,0.815 -0.979,1.60698 -0.559,0.79103 -1.18899,1.53703 -1.88799,2.23502 -1.259,-0.652 -2.377,-1.53699 -3.356,-2.65501 -0.979,-1.164 -1.70201,-2.422 -2.16801,-3.77299 -2.19101,1.538 -4.05601,3.05099 -5.595,4.54201 -1.538,1.44399 -2.86701,3.07399 -3.985,4.891 -1.07301,1.77 -2.00501,3.819 -2.79801,6.148 -0.746,2.329 -1.46799,5.101 -2.167,8.31501 -0.41999,-0.047 -0.93299,-0.21001 -1.53899,-0.489 -0.559,-0.233 -1.14202,-0.53601 -1.74802,-0.90901 -0.55999,-0.37199 -1.072,-0.768 -1.53899,-1.18699 -0.46601,-0.42001 -0.769,-0.81601 -0.90899,-1.18802 z"
     fill="#ff0000"
     id="path986"
     style="stroke-width:1" />
  <path
     d="m 256.2369,221.30296 c 0,-2.04999 0.489,-4.915 1.468,-8.594 0.979,-3.727 2.35399,-8.05901 4.12601,-12.996 2.88999,-7.87202 5.594,-14.41601 8.112,-19.63301 2.564,-5.26401 5.05799,-9.36301 7.482,-12.29702 0.559,0.093 1.23501,0.32601 2.02801,0.698 0.839,0.37299 1.655,0.792 2.44699,1.258 0.79301,0.41901 1.492,0.862 2.098,1.328 0.65301,0.46501 1.07301,0.83801 1.25901,1.11801 -3.636,4.285 -6.83,8.89601 -9.58,13.83401 -2.75101,4.93699 -5.26801,10.596 -7.55302,16.97801 -1.958,5.49599 -3.44899,10.45701 -4.47499,14.88201 -1.02601,4.378 -1.538,8.03501 -1.538,10.969 0,0.792 0,1.281 0,1.46799 0,0.18601 0.023,0.37201 0.069,0.55901 -0.65201,-0.094 -1.212,-0.257 -1.678,-0.489 -0.46601,-0.233 -0.76901,-0.51299 -0.90902,-0.839 -0.093,-0.233 -0.34999,-0.582 -0.769,-1.048 -0.41999,-0.419 -0.79299,-0.74501 -1.11899,-0.97801 -0.42,-0.27999 -0.769,-1.00199 -1.04901,-2.16599 -0.28,-1.21101 -0.41899,-2.56201 -0.41899,-4.05201 z"
     fill="#ff0000"
     id="path988"
     style="stroke-width:1" />
  <path
     d="m 272.9029,221.09296 c 0,-0.41899 0.023,-0.93201 0.069,-1.537 0.094,-0.652 0.23401,-1.49101 0.42001,-2.51599 0.187,-1.07101 0.42,-2.35201 0.69899,-3.84201 0.32701,-1.49099 0.723,-3.284 1.189,-5.38001 0.093,-0.466 0.30301,-1.21099 0.62901,-2.236 0.32701,-1.025 0.746,-2.096 1.25901,-3.214 0.56,-1.164 1.212,-2.28199 1.958,-3.35399 0.793,-1.07101 1.725,-1.863 2.797,-2.37501 0.793,0.18601 1.84199,0.675 3.14699,1.46701 1.30601,0.74499 2.424,1.79299 3.35701,3.144 -1.072,1.21099 -1.982,2.422 -2.72701,3.63299 -0.69999,1.21101 -1.352,2.469 -1.958,3.77301 -0.55999,1.30401 -1.096,2.655 -1.609,4.053 -0.466,1.397 -1.00199,2.864 -1.60799,4.401 -0.513,1.305 -0.979,2.655 -1.399,4.05301 -0.419,1.35099 -0.652,2.53799 -0.699,3.56301 0,0.839 -0.023,1.421 -0.07,1.74698 0,0.37201 -0.117,0.55901 -0.34999,0.55901 -0.186,0 -0.559,-0.11699 -1.11901,-0.34999 -0.55899,-0.23201 -1.14199,-0.58202 -1.74801,-1.048 -0.559,-0.51201 -1.072,-1.141 -1.538,-1.88602 -0.466,-0.74499 -0.699,-1.63 -0.699,-2.655 z m 13.35602,-30.32301 c 0,-0.28002 0.07,-0.699 0.21,-1.25801 -0.233,-0.233 -0.443,-0.58199 -0.63,-1.048 -0.13901,-0.466 -0.209,-0.885 -0.209,-1.258 0,-0.41899 0.046,-0.97799 0.13899,-1.67601 0.14,-0.74599 0.30301,-1.53798 0.49001,-2.37599 0.186,-0.83799 0.41999,-1.69999 0.699,-2.585 0.28,-0.932 0.55999,-1.76999 0.839,-2.51501 0.55999,0 1.236,0.16302 2.02799,0.489 0.839,0.27901 1.67902,0.675 2.51802,1.18701 0.839,0.466 1.60799,1.002 2.307,1.60701 0.69999,0.559 1.236,1.09499 1.609,1.607 -0.513,0.513 -1.18901,1.23499 -2.02801,2.16599 -0.839,0.88501 -1.65499,1.84 -2.448,2.86501 -0.79199,0.97799 -1.515,1.90999 -2.16701,2.795 -0.653,0.88499 -1.07299,1.514 -1.259,1.88599 -0.55999,-0.093 -1.049,-0.326 -1.469,-0.69799 -0.41899,-0.42002 -0.62899,-0.81601 -0.62899,-1.188 z"
     fill="#099aa4"
     id="path990"
     style="stroke-width:1" />
  <path
     d="m 300.68692,191.88794 c 1.212,0.37201 2.355,1.21101 3.427,2.51501 1.072,1.25801 1.865,2.65501 2.37701,4.192 -0.51201,1.25801 -1.30501,2.77201 -2.37701,4.54201 -1.072,1.76999 -2.14499,3.58599 -3.217,5.44899 -1.072,1.817 -2.051,3.56401 -2.93699,5.24102 -0.83901,1.63 -1.32901,2.98099 -1.468,4.052 0.74499,-0.79201 1.561,-1.70001 2.44699,-2.72501 0.93201,-1.071 1.81801,-2.119 2.65701,-3.144 0.88599,-1.07099 1.702,-2.02599 2.448,-2.86499 0.746,-0.88502 1.328,-1.53701 1.74799,-1.95601 0.88601,-0.93201 1.93502,-2.003 3.14702,-3.21401 1.212,-1.25799 2.471,-2.422 3.776,-3.493 1.352,-1.118 2.704,-2.04999 4.05599,-2.795 1.352,-0.792 2.587,-1.188 3.706,-1.188 1.21201,0 2.21501,0.41901 3.00701,1.25801 0.839,0.791 1.492,1.63 1.958,2.51499 0,0.093 -0.186,0.233 -0.559,0.419 -0.32699,0.14 -0.81599,0.582 -1.46901,1.328 -0.65198,0.83801 -1.39798,2.003 -2.238,3.49299 -0.79199,1.44402 -1.585,3.02801 -2.37699,4.75102 -0.74602,1.67701 -1.37501,3.401 -1.88801,5.17099 -0.51299,1.77002 -0.76899,3.377 -0.76899,4.82001 0,1.165 0.13899,1.91001 0.41899,2.23599 0.326,0.32601 0.76901,0.48902 1.329,0.48902 0.513,0 1.04901,-0.11602 1.608,-0.349 0.56001,-0.233 1.00201,-0.34901 1.329,-0.34901 0.18601,0.093 0.32601,0.302 0.41901,0.62901 0.14,0.27899 0.21,0.535 0.21,0.768 -0.37301,0.32599 -0.816,0.652 -1.329,0.978 -0.51201,0.326 -1.048,0.629 -1.60801,0.90901 -0.55899,0.27899 -1.119,0.51199 -1.67799,0.698 -0.51301,0.18699 -0.97902,0.27999 -1.39901,0.27999 -1.352,0 -2.471,-0.21001 -3.35601,-0.62899 -0.83898,-0.373 -1.51499,-0.88501 -2.02798,-1.53702 -0.46601,-0.65199 -0.793,-1.421 -0.979,-2.30599 -0.187,-0.93201 -0.28,-1.91002 -0.28,-2.93401 0,-0.55899 0.047,-1.188 0.14,-1.887 0.093,-0.69901 0.28,-1.51401 0.559,-2.445 0.28,-0.97799 0.67599,-2.12 1.18899,-3.424 0.513,-1.351 1.16601,-2.958 1.958,-4.82102 -0.093,0 -0.72299,0.32601 -1.88799,0.97801 -1.16501,0.65201 -2.424,1.65401 -3.776,3.005 -2.19101,2.09602 -4.17301,4.16901 -5.94402,6.21801 -1.725,2.04999 -3.49699,4.332 -5.31499,6.847 -1.02501,1.444 -1.934,2.65502 -2.72701,3.63301 -0.746,1.025 -1.399,1.70101 -1.958,2.027 -0.97901,-0.55899 -1.702,-1.35099 -2.168,-2.376 -0.466,-0.97799 -0.81601,-2.003 -1.04901,-3.074 0,-0.88501 0.11701,-2.00302 0.35001,-3.35401 0.28,-1.35101 0.62899,-2.841 1.04899,-4.47199 0.466,-1.67601 1.02601,-3.42301 1.678,-5.24 0.65301,-1.816 1.37502,-3.63302 2.16802,-5.45001 1.77199,-4.09801 3.38,-7.312 4.82499,-9.641 1.49201,-2.32901 2.424,-3.58702 2.797,-3.77302 z"
     fill="#ff0000"
     id="path992"
     style="stroke-width:1" />
  <path
     d="m 368.84697,271.22499 c -0.797,1.08 -1.73501,1.84899 -2.815,2.30799 -1.08,0.45899 -2.215,0.61601 -3.40601,0.47199 -1.195,-0.17399 -2.36499,-0.66999 -3.509,-1.48699 -0.884,-0.632 -1.61799,-1.378 -2.19999,-2.239 -0.57,-0.87899 -0.962,-1.8 -1.17701,-2.76501 -0.23199,-0.977 -0.27499,-1.92398 -0.12799,-2.83999 0.142,-0.946 0.49699,-1.804 1.06599,-2.57501 1.88401,-2.55398 4.083,-2.93301 6.597,-1.13698 0.22501,0.16099 0.447,0.345 0.664,0.55299 0.218,0.20801 0.38301,0.378 0.496,0.51201 l 0.066,0.557 -5.236,7.09498 c 1.52999,1.12001 2.95498,1.71901 4.274,1.79701 1.31398,0.049 2.43399,-0.39301 3.362,-1.32701 0.91001,-0.94698 1.561,-2.36598 1.951,-4.25999 l 0.166,-0.117 0.96301,0.25599 c -0.01,0.51601 -0.054,1.11401 -0.13,1.792 -0.065,0.66101 -0.17801,1.29901 -0.34201,1.915 -0.163,0.61602 -0.38401,1.11301 -0.662,1.49002 z m -10.468,-2.336 3.19899,-4.82001 c 0.155,-0.28199 0.22101,-0.497 0.198,-0.645 -0.024,-0.147 -0.16499,-0.31399 -0.425,-0.49999 -0.694,-0.49502 -1.362,-0.68401 -2.00399,-0.567 -0.63,0.099 -1.197,0.492 -1.70301,1.178 -0.582,0.78799 -0.81,1.67199 -0.68599,2.65099 0.10798,0.96701 0.58099,1.868 1.421,2.70301 z"
     fill="#ff4646"
     id="path994"
     style="stroke-width:1" />
  <path
     d="m 359.91696,282.462 c -0.948,1.09499 -1.837,1.682 -2.66599,1.76099 -0.84601,0.066 -1.805,-0.356 -2.877,-1.26499 l -5.99701,-5.083 c -0.43901,-0.37201 -0.83101,-0.537 -1.17702,-0.496 -0.34599,0.042 -0.75799,0.32198 -1.23398,0.839 l -0.23001,-0.027 -0.627,-0.741 c 0.14,-0.55101 0.241,-1.10799 0.304,-1.66899 0.061,-0.59101 0.096,-1.119 0.106,-1.58602 0.007,-0.496 0.007,-0.88699 0,-1.17199 -0.023,-0.29902 -0.035,-0.44802 -0.035,-0.44802 l 0.61401,-0.31799 c 0,0 0.133,0.155 0.39999,0.465 0.28101,0.294 0.701,0.71999 1.261,1.27801 l 3.00101,-3.61301 0.136,-0.011 1.10401,1.313 -3.10602,3.44102 c 0.722,0.69498 1.58101,1.49298 2.577,2.39299 0.99601,0.90001 2.11901,1.88101 3.37102,2.941 0.82899,0.703 1.53199,1.06201 2.10999,1.07701 0.593,0 1.189,-0.347 1.788,-1.039 0.349,-0.40302 0.59601,-0.835 0.74301,-1.29701 0.15998,-0.479 0.241,-0.718 0.241,-0.718 l 0.84299,0.29601 c 0,0 -0.011,0.15798 -0.032,0.47599 -0.021,0.317 -0.06,0.703 -0.116,1.158 -0.042,0.43899 -0.108,0.858 -0.199,1.25601 -0.077,0.38099 -0.17801,0.64399 -0.30301,0.789 z"
     fill="#ff4646"
     id="path996"
     style="stroke-width:1" />
  <path
     d="m 348.76395,294.419 c -0.543,0.54201 -1.06199,0.972 -1.55999,1.289 -0.48201,0.33199 -0.874,0.57301 -1.17601,0.72401 -0.287,0.136 -0.43,0.205 -0.43,0.205 l -0.22699,-0.09 c -0.136,-0.19499 -0.37901,-0.494 -0.72801,-0.899 -0.349,-0.43401 -0.72,-0.87601 -1.11399,-1.32499 -0.38001,-0.46501 -0.69,-0.81702 -0.93301,-1.05601 l 0.67701,-0.90401 c 1,0.98801 1.871,1.51901 2.611,1.59201 0.74099,0.072 1.51,-0.291 2.30798,-1.089 0.57201,-0.573 0.92502,-1.182 1.05901,-1.828 0.134,-0.647 0.012,-1.15701 -0.36699,-1.531 -0.25801,-0.25501 -0.56801,-0.41102 -0.93101,-0.47 -0.36299,-0.059 -0.86099,-0.028 -1.49499,0.095 -0.634,0.12199 -1.47901,0.34998 -2.536,0.68401 -1.29802,0.42399 -2.37,0.608 -3.216,0.55099 -0.84601,-0.058 -1.542,-0.356 -2.08801,-0.89501 -0.621,-0.61399 -0.99299,-1.341 -1.117,-2.182 -0.123,-0.84001 -0.005,-1.71199 0.35401,-2.614 0.34499,-0.917 0.90899,-1.768 1.69199,-2.551 0.617,-0.61799 1.20501,-1.08599 1.76301,-1.40299 0.57299,-0.332 0.85899,-0.498 0.85899,-0.498 l 0.15901,0.067 c 0,0 0.099,0.15702 0.29598,0.47202 0.21302,0.29998 0.49302,0.69698 0.84201,1.19099 0.349,0.46501 0.75101,0.967 1.20601,1.506 l -0.76701,0.90401 c 0,0 -0.076,-0.09 -0.228,-0.27001 -0.151,-0.18001 -0.28,-0.322 -0.386,-0.427 -0.546,-0.539 -1.091,-0.777 -1.63399,-0.716 -0.54401,0.032 -1.14,0.37199 -1.787,1.02 -0.51201,0.51201 -0.828,1.069 -0.947,1.67001 -0.10301,0.586 0.019,1.05099 0.367,1.39599 0.364,0.35901 0.856,0.54499 1.475,0.55799 0.63499,-0.002 1.47999,-0.16999 2.53699,-0.50298 1.237,-0.39501 2.25601,-0.64601 3.056,-0.75401 0.80101,-0.137 1.45001,-0.13899 1.949,-0.006 0.51401,0.119 0.96101,0.365 1.339,0.73899 0.576,0.56902 0.919,1.29701 1.027,2.18202 0.12399,0.87101 0.021,1.77299 -0.30799,2.705 -0.33,0.902 -0.86402,1.72201 -1.60101,2.461 z"
     fill="#ff4646"
     id="path998"
     style="stroke-width:1" />
  <path
     d="m 340.45396,302.17299 c -0.651,0.54902 -1.30101,0.81902 -1.95101,0.80901 -0.646,-0.04 -1.27699,-0.358 -1.89101,-0.95399 l -0.11899,0.058 c -0.061,0.71999 -0.147,1.378 -0.259,1.973 -0.108,0.565 -0.23201,1.04601 -0.37201,1.442 -0.13699,0.367 -0.287,0.61801 -0.44999,0.75601 -0.60201,0.50799 -1.25001,0.83099 -1.94201,0.968 -0.692,0.138 -1.369,0.096 -2.02999,-0.127 -0.645,-0.23601 -1.21501,-0.647 -1.70901,-1.234 -0.39799,-0.472 -0.634,-0.98301 -0.70801,-1.53402 -0.058,-0.56399 0.06,-1.06801 0.35502,-1.51099 l 3.571,-5.184 -0.882,-1.09502 c -0.68601,-0.815 -1.40901,-1.29198 -2.16801,-1.43198 -0.759,-0.14002 -1.481,0.078 -2.165,0.655 -0.45599,0.384 -0.847,0.895 -1.17399,1.53299 -0.326,0.63701 -0.56902,1.35701 -0.72801,2.16 l -0.18399,0.03 -1.17901,-0.80298 c 0.218,-0.60201 0.477,-1.25201 0.779,-1.95201 0.28701,-0.71701 0.59201,-1.363 0.91301,-1.941 0.32199,-0.57699 0.604,-0.96901 0.84899,-1.175 0.71601,-0.604 1.43701,-0.98901 2.162,-1.154 0.71101,-0.181 1.39501,-0.14599 2.05401,0.10699 0.662,0.222 1.27399,0.66802 1.83699,1.33501 0.17801,0.212 0.442,0.574 0.79201,1.08801 0.365,0.49999 0.76299,1.07 1.19199,1.71098 0.41501,0.62502 0.82499,1.227 1.229,1.805 0.42102,0.565 0.78202,1.02701 1.084,1.38501 0.30301,0.358 0.62601,0.55999 0.97002,0.604 0.343,0.044 0.66999,-0.064 0.97999,-0.32499 0.27701,-0.233 0.49901,-0.53202 0.666,-0.89601 0.153,-0.38001 0.248,-0.69701 0.285,-0.94999 l 0.671,0.10198 c 0.048,0.32201 0.075,0.71701 0.081,1.186 0.008,0.43901 -0.031,0.88901 -0.115,1.35101 -0.069,0.44701 -0.21601,0.85099 -0.444,1.20899 z m -6.02701,2.07301 c 0.31,-0.261 0.57899,-0.669 0.80699,-1.22399 0.23201,-0.58501 0.37401,-1.19301 0.42801,-1.82301 l -1.979,-2.59501 -2.478,3.80301 c -0.349,0.545 -0.29701,1.086 0.15599,1.623 0.38501,0.45601 0.869,0.71701 1.45301,0.781 0.58699,0.035 1.12399,-0.153 1.613,-0.565 z"
     fill="#ff4646"
     id="path1000"
     style="stroke-width:1" />
  <path
     d="m 317.18893,319.42002 -0.559,-1.283 c 0.77801,-0.63701 1.303,-1.15301 1.57601,-1.54701 0.26199,-0.412 0.293,-0.85999 0.094,-1.34299 -0.19301,-0.51401 -0.606,-1.238 -1.23902,-2.17201 L 309.25093,301.54 c -0.99499,0.735 -1.76699,1.343 -2.316,1.82301 -0.544,0.45098 -0.88501,0.87899 -1.02301,1.28399 -0.14899,0.38702 -0.13599,0.84301 0.039,1.36802 0.17601,0.52499 0.47402,1.212 0.89402,2.06099 l -1.16702,0.95601 c -0.276,-0.56002 -0.57299,-1.13101 -0.88999,-1.714 -0.31801,-0.58301 -0.632,-1.14201 -0.94301,-1.678 -0.32299,-0.55301 -0.613,-1.03903 -0.87,-1.45602 l 0.093,-0.37499 2.38401,-1.21001 8.16701,-5.60801 2.04299,-1.829 0.38,0.049 c 0.29201,0.393 0.63501,0.84299 1.028,1.348 0.382,0.48699 0.77801,0.977 1.18901,1.46999 0.42899,0.481 0.82999,0.94101 1.206,1.38101 l -1.167,0.95599 c -0.66,-0.709 -1.21001,-1.23601 -1.649,-1.58 -0.434,-0.37401 -0.857,-0.56199 -1.26901,-0.563 -0.40699,-0.031 -0.906,0.106 -1.49799,0.40899 -0.593,0.30301 -1.38101,0.75402 -2.36501,1.35301 0.30501,0.565 0.766,1.35901 1.382,2.383 0.61601,1.024 1.325,2.165 2.12601,3.42401 0.78799,1.24101 1.59499,2.508 2.41999,3.802 0.842,1.28201 1.62799,2.461 2.35601,3.537 0.442,0.65201 0.87299,1.041 1.292,1.16701 0.407,0.108 0.883,-0.025 1.42801,-0.39901 0.52699,-0.36199 0.992,-0.71999 1.395,-1.075 l 0.151,0.052 0.58698,1.38 c -0.38099,0.235 -0.82299,0.51299 -1.32698,0.833 -0.49201,0.338 -0.981,0.66099 -1.46701,0.96901 -0.45701,0.31298 -0.834,0.57299 -1.133,0.77799 -0.281,0.192 -0.641,0.44 -1.08001,0.741 -0.41,0.307 -0.837,0.626 -1.28199,0.958 -0.427,0.319 -0.819,0.614 -1.17601,0.88501 z"
     fill="#ff4646"
     id="path1002"
     style="stroke-width:1" />
  <path
     d="m 286.64992,335.31402 -0.34001,-1.21201 c 0.53201,-0.33 0.871,-0.70199 1.01901,-1.11798 0.14799,-0.41501 0.11799,-0.86801 -0.09,-1.35802 l -3.36499,-7.94099 c -0.21901,-0.462 -0.48801,-0.71501 -0.808,-0.76 -0.3,-0.053 -0.81401,0.071 -1.54301,0.37201 l -0.19099,-0.12401 -0.22,-1.091 1.615,-1.10299 -0.05,-0.11802 c -0.703,-1.714 -1.04401,-3.31099 -1.022,-4.789 0.013,-1.49701 0.375,-2.79999 1.085,-3.90801 0.72999,-1.11798 1.77599,-1.97899 3.13899,-2.58598 0.99301,-0.442 1.833,-0.699 2.519,-0.77101 0.698,-0.101 1.04701,-0.151 1.04701,-0.151 l 0.17,0.23801 c 0,0 -0.018,0.22999 -0.055,0.68899 -0.045,0.44 -0.058,0.982 -0.04,1.626 l -0.283,0.231 c 0,0 -0.18401,-0.023 -0.55101,-0.07 -0.375,-0.066 -0.853,-0.074 -1.434,-0.026 -0.58099,0.049 -1.19299,0.21598 -1.835,0.50199 -0.73999,0.329 -1.27,0.79801 -1.58999,1.40699 -0.321,0.60901 -0.43701,1.37201 -0.35001,2.288 0.088,0.91701 0.38401,1.997 0.888,3.241 l 0.58101,1.45402 c 0.701,-0.31201 1.34899,-0.61201 1.94399,-0.9 0.615,-0.29701 1.10701,-0.52701 1.477,-0.69202 0.38101,-0.19299 0.572,-0.289 0.572,-0.289 l 0.125,0.049 0.36801,1.689 c 0,0 -0.18901,0.072 -0.56701,0.217 -0.35899,0.136 -0.83,0.33501 -1.414,0.59399 -0.593,0.24102 -1.229,0.51201 -1.911,0.81601 l 3.63501,8.90501 c 0.457,1.078 1.182,1.39699 2.175,0.95499 0.50601,-0.22599 0.921,-0.42201 1.24301,-0.58801 0.323,-0.16699 0.48399,-0.25099 0.48399,-0.25099 l 0.10901,0.092 0.33099,1.35599 c 0,0 -0.14,0.05 -0.421,0.15201 -0.25299,0.11301 -0.584,0.25999 -0.99299,0.442 -0.38901,0.17301 -0.793,0.341 -1.21002,0.50301 -0.389,0.17298 -0.72999,0.32499 -1.02199,0.455 -0.409,0.18198 -0.808,0.36 -1.19701,0.533 -0.38099,0.19299 -0.723,0.36799 -1.027,0.526 -0.30299,0.15899 -0.552,0.28098 -0.746,0.36799 -0.16699,0.097 -0.25099,0.146 -0.25099,0.146 z"
     fill="#ff4646"
     id="path1004"
     style="stroke-width:1" />
  <path
     d="m 275.1159,340.90803 c -1.147,0.40099 -2.25499,0.473 -3.32399,0.216 -1.06901,-0.25799 -2.02001,-0.80501 -2.85201,-1.641 -0.81899,-0.86399 -1.44199,-1.954 -1.87,-3.271 -0.475,-1.45801 -0.59799,-2.87 -0.36999,-4.235 0.242,-1.393 0.787,-2.61001 1.63599,-3.651 0.84201,-1.06201 1.917,-1.82101 3.224,-2.27801 1.147,-0.40199 2.255,-0.47301 3.32401,-0.216 1.069,0.257 2.01001,0.80801 2.822,1.652 0.832,0.83601 1.466,1.92299 1.9,3.259 0.468,1.438 0.58101,2.853 0.33901,4.246 -0.22101,1.38601 -0.75301,2.60901 -1.59501,3.67102 -0.82899,1.03399 -1.90699,1.78398 -3.23401,2.24799 z m 0.36101,-1.78399 c 1.12601,-0.39401 1.873,-1.16301 2.24,-2.30601 0.36101,-1.16399 0.28501,-2.53601 -0.229,-4.116 -0.395,-1.21501 -0.925,-2.22501 -1.58999,-3.02901 -0.66501,-0.80501 -1.40502,-1.358 -2.22001,-1.66 -0.815,-0.30101 -1.645,-0.304 -2.49,-0.008 -1.126,0.39399 -1.87,1.173 -2.23,2.33598 -0.36101,1.16402 -0.28101,2.54602 0.239,4.14602 0.395,1.21499 0.925,2.225 1.59,3.03001 0.65799,0.78399 1.395,1.32698 2.21,1.62898 0.80799,0.28101 1.635,0.27401 2.48,-0.022 z"
     fill="#ff4646"
     id="path1006"
     style="stroke-width:1" />
  <path
     d="m 253.2439,346.88203 c -0.837,0.164 -1.531,0.083 -2.08201,-0.24299 -0.53399,-0.35001 -0.91199,-0.938 -1.13599,-1.76101 l -0.131,-0.007 c -0.41801,0.60198 -0.82501,1.13799 -1.22201,1.60599 -0.38,0.44299 -0.72999,0.804 -1.05,1.084 -0.30299,0.255 -0.559,0.403 -0.768,0.444 -0.774,0.151 -1.492,0.119 -2.155,-0.099 -0.66301,-0.217 -1.221,-0.58501 -1.674,-1.10299 -0.433,-0.522 -0.71301,-1.16202 -0.839,-1.91801 -0.10201,-0.60901 -0.045,-1.173 0.171,-1.693 0.23599,-0.52299 0.593,-0.908 1.06999,-1.153 l 5.68701,-2.80701 -0.19999,-1.39199 c -0.176,-1.05 -0.55301,-1.822 -1.132,-2.316 -0.57901,-0.49401 -1.30799,-0.655 -2.186,-0.48301 -0.58602,0.11501 -1.18001,0.373 -1.78302,0.773 -0.60199,0.40001 -1.175,0.91402 -1.71899,1.54101 l -0.17201,-0.064 -0.60299,-1.281 c 0.49099,-0.42201 1.04299,-0.86602 1.65599,-1.33301 0.61,-0.48902 1.199,-0.908 1.76701,-1.25801 0.56701,-0.349 1.008,-0.55501 1.32201,-0.617 0.92,-0.17999 1.73199,-0.166 2.437,0.043 0.70099,0.188 1.26899,0.55399 1.70599,1.09701 0.453,0.51899 0.75201,1.20798 0.89601,2.07001 0.046,0.27299 0.088,0.72 0.12699,1.341 0.06,0.617 0.11101,1.31198 0.15401,2.08499 0.039,0.75101 0.085,1.48001 0.138,2.18501 0.074,0.70199 0.149,1.283 0.22699,1.745 0.077,0.46199 0.25101,0.79699 0.524,1.00399 0.272,0.207 0.606,0.271 1.00401,0.19299 0.35499,-0.069 0.697,-0.22299 1.024,-0.46099 0.324,-0.25901 0.56601,-0.49001 0.72599,-0.69501 l 0.524,0.41802 c -0.12199,0.306 -0.29899,0.66599 -0.53199,1.07999 -0.21601,0.39 -0.47701,0.76601 -0.784,1.13 -0.285,0.35899 -0.61601,0.64101 -0.992,0.845 z m -6.21401,-1.124 c 0.397,-0.078 0.83501,-0.30499 1.31201,-0.67999 0.49499,-0.40102 0.925,-0.865 1.29,-1.39201 l -0.38,-3.24401 -4.05,2.12802 c -0.57502,0.308 -0.80502,0.80799 -0.68902,1.501 0.098,0.58799 0.38101,1.05299 0.84902,1.39599 0.485,0.317 1.041,0.414 1.66799,0.291 z"
     fill="#ff4646"
     id="path1008"
     style="stroke-width:1" />
  <path
     d="m 228.10387,348.99902 c 0.63101,-0.13299 1.03901,-0.38099 1.225,-0.74299 0.18301,-0.384 0.23702,-1.07501 0.15901,-2.073 l -0.544,-7.006 c -0.054,-0.69999 -0.18801,-1.18901 -0.40201,-1.465 -0.21399,-0.27699 -0.53298,-0.392 -0.95599,-0.34599 -0.16999,0.018 -0.32701,0.057 -0.472,0.11498 -0.126,0.035 -0.188,0.053 -0.188,0.053 l -0.17601,-0.20601 0.018,-0.99799 c 0.647,-0.198 1.29299,-0.407 1.939,-0.627 0.645,-0.22 1.186,-0.407 1.62201,-0.56101 0.437,-0.155 0.655,-0.23199 0.655,-0.23199 l 0.238,0.16699 c 0,0 -0.019,0.173 -0.056,0.52001 -0.016,0.34401 -0.025,0.77301 -0.028,1.287 -0.005,0.49301 0.013,0.99399 0.052,1.504 l 0.13501,0.082 c 0.57899,-1.06899 1.268,-1.96801 2.066,-2.69701 0.798,-0.72901 1.51499,-1.12799 2.15,-1.19699 0.36099,-0.039 0.617,-0.045 0.768,-0.019 0.15199,0.027 0.228,0.04 0.228,0.04 l 0.10499,0.117 c 0,0 -0.01,0.15098 -0.029,0.45298 -0.021,0.28002 -0.045,0.65702 -0.073,1.13102 -0.028,0.453 -0.054,0.94799 -0.076,1.486 -0.002,0.535 0.006,1.048 0.023,1.539 l -1.232,0.23001 c -0.068,-0.87102 -0.16499,-1.43802 -0.293,-1.70302 -0.129,-0.285 -0.373,-0.40899 -0.733,-0.36999 -0.466,0.051 -0.94999,0.29601 -1.44999,0.73601 -0.50001,0.43899 -0.94601,1.02299 -1.338,1.74999 0,0 0.005,0.203 0.015,0.60901 0.009,0.384 0.026,0.87499 0.05,1.47199 0.025,0.59601 0.052,1.214 0.08,1.853 0.027,0.618 0.049,1.173 0.065,1.66301 0.015,0.47 0.029,0.77898 0.04,0.92699 0.056,0.722 0.2,1.199 0.43201,1.431 0.231,0.231 0.64399,0.315 1.23699,0.251 0.233,-0.026 0.51801,-0.067 0.856,-0.12499 0.358,-0.06 0.537,-0.091 0.537,-0.091 l 0.042,0.12399 -0.177,1.43301 c 0,0 -0.10701,0 -0.32001,0.002 -0.21198,0.023 -0.488,0.053 -0.82699,0.09 -0.339,0.036 -0.70001,0.065 -1.083,0.085 -0.36,0.039 -0.699,0.076 -1.01701,0.11 -0.614,0.067 -1.175,0.138 -1.68201,0.215 -0.506,0.076 -0.907,0.141 -1.20199,0.194 -0.295,0.054 -0.44301,0.081 -0.44301,0.081 z"
     fill="#ff4646"
     id="path1010"
     style="stroke-width:1" />
  <path
     d="m 206.24687,350.97805 0.225,-1.47101 c 0.962,-0.13701 1.617,-0.388 1.966,-0.75301 0.371,-0.38701 0.567,-1.038 0.587,-1.954 l 0.332,-13.41101 c 0.015,-0.682 -0.049,-1.139 -0.193,-1.37099 -0.144,-0.233 -0.461,-0.347 -0.951,-0.34201 -0.128,0.001 -0.299,0.013 -0.512,0.037 -0.214,0.002 -0.406,0.014 -0.577,0.037 l -0.061,-0.127 0.256,-1.40701 c 0.362,-0.003 0.798,0.003 1.309,0.019 0.511,0.016 1.044,0.032 1.597,0.048 0.554,-0.005 1.066,-0.01 1.535,-0.015 1.704,-0.017 3.13301,-0.041 4.28401,-0.074 1.172,-0.033 2.17499,-0.085 3.00701,-0.15702 0.83298,-0.072 1.60199,-0.15398 2.30699,-0.24699 l 0.092,0.191 c -0.118,0.512 -0.23801,1.08801 -0.35899,1.728 -0.12002,0.61799 -0.21902,1.236 -0.29702,1.854 -0.077,0.61801 -0.14399,1.193 -0.19799,1.726 l -1.537,0.14301 c 0.025,-0.192 0.041,-0.42601 0.047,-0.703 0.028,-0.298 0.044,-0.522 0.047,-0.671 0.012,-0.511 -0.032,-0.91501 -0.132,-1.212 -0.078,-0.31801 -0.276,-0.55001 -0.59199,-0.69602 -0.295,-0.14599 -0.772,-0.237 -1.432,-0.27299 -0.66,-0.036 -1.554,-0.049 -2.68401,-0.038 -0.682,0.007 -1.183,0.033 -1.504,0.079 -0.32,0.046 -0.525,0.15401 -0.614,0.32499 -0.068,0.17101 -0.117,0.45902 -0.147,0.86402 l -0.486,7.443 -0.278,6.707 c -0.013,0.57499 0.031,0.99999 0.131,1.27599 0.101,0.25402 0.321,0.42202 0.66,0.50402 0.361,0.082 0.924,0.119 1.692,0.11099 1.25701,-0.012 2.27001,-0.065 3.03901,-0.15801 0.769,-0.092 1.35899,-0.26798 1.77,-0.528 0.41,-0.259 0.71699,-0.645 0.921,-1.158 0.203,-0.53399 0.379,-1.238 0.526,-2.11198 l 1.41,-0.17402 0.093,0.15902 c -0.164,0.66099 -0.343,1.50399 -0.53601,2.52699 -0.172,1.02299 -0.321,1.97199 -0.44699,2.846 l -0.16501,0.19302 c -1.277,-0.03 -2.55499,-0.06 -3.83299,-0.09 -1.257,-0.009 -2.39601,-0.019 -3.41901,-0.03 -1.022,-0.011 -1.832,-0.014 -2.428,-0.008 -0.661,0.006 -1.418,0.035 -2.271,0.086 -0.833,0.072 -1.559,0.16401 -2.18,0.27702 z m 4.852,-9.75302 0.331,-1.919 c 0.149,-9.9e-4 0.437,-0.004 0.863,-0.008 0.426,-0.005 0.884,0.002 1.374,0.018 0.49,-0.005 0.916,-0.009 1.27801,-0.013 0.363,-0.003 0.917,-0.04 1.665,-0.11202 0.769,-0.092 1.517,-0.18499 2.24299,-0.27699 l 0.12401,0.15801 -0.489,1.889 c -0.597,-0.016 -1.342,-0.03 -2.236,-0.042 -0.874,-0.013 -1.61901,-0.016 -2.23701,-0.01 -0.405,0.004 -0.885,0.041 -1.441,0.11001 -0.534,0.048 -1.025,0.11599 -1.475,0.20599 z"
     fill="#ff4646"
     id="path1012"
     style="stroke-width:1" />
  <path
     d="m 174.44785,347.07003 c 0,0 -0.027,-0.242 -0.079,-0.72601 -0.032,-0.48098 -0.086,-1.117 -0.163,-1.90699 -0.076,-0.79099 -0.169,-1.65999 -0.279,-2.608 -0.088,-0.944 -0.177,-1.88799 -0.266,-2.83201 -0.084,-0.96499 -0.175,-1.84398 -0.272,-2.63899 -0.073,-0.811 -0.137,-1.44901 -0.194,-1.91201 -0.147,-1.08401 -0.733,-1.72499 -1.758,-1.92299 l -0.037,-0.136 0.401,-1.00002 c 0,0 0.158,0.027 0.473,0.082 0.336,0.058 0.701,0.13101 1.096,0.221 0.399,0.069 0.714,0.12301 0.945,0.163 0.63,0.10901 1.233,0.19101 1.808,0.24701 0.576,0.057 1.034,0.10299 1.374,0.14 0.366,0.02 0.549,0.03 0.549,0.03 l 0.031,0.16699 -0.389,0.938 c -0.697,-0.099 -1.185,-0.10798 -1.462,-0.026 -0.274,0.061 -0.441,0.23702 -0.501,0.52901 -0.034,0.16701 -0.044,0.533 -0.029,1.09699 0.018,0.54303 0.045,1.20602 0.08,1.99003 0.059,0.76598 0.113,1.56299 0.16,2.39198 0.072,0.81201 0.132,1.57802 0.18,2.299 0.068,0.72501 0.12,1.31702 0.156,1.77601 0.04,0.439 0.061,0.659 0.061,0.659 l 0.126,0.022 c 0.482,-0.76001 0.93,-1.46 1.345,-2.10101 0.44,-0.658 0.837,-1.26999 1.193,-1.83499 0.376,-0.56101 0.719,-1.06399 1.027,-1.507 0.313,-0.46499 0.584,-0.882 0.812,-1.253 0.254,-0.388 0.466,-0.72999 0.635,-1.02501 -0.073,-0.703 -0.23,-1.25999 -0.472,-1.66901 -0.242,-0.40899 -0.689,-0.66898 -1.34,-0.78098 l -0.037,-0.13701 0.401,-0.999 c 0,0 0.158,0.027 0.473,0.081 0.336,0.058 0.701,0.132 1.096,0.22199 0.399,0.069 0.714,0.12301 0.945,0.163 0.63,0.108 1.22,0.199 1.77001,0.27301 0.576,0.056 1.044,0.10398 1.406,0.14498 0.361,0.041 0.542,0.061 0.542,0.061 l 0.031,0.168 -0.389,0.93701 c -0.718,-0.10302 -1.214,-0.123 -1.488,-0.062 -0.252,0.064 -0.40601,0.23201 -0.46201,0.50301 -0.03,0.14599 -0.038,0.50101 -0.023,1.065 0.019,0.54302 0.045,1.20601 0.08,1.99002 0.06,0.76598 0.113,1.56399 0.16001,2.39299 0.068,0.832 0.126,1.60901 0.173,2.32999 0.069,0.72402 0.121,1.31601 0.157,1.77601 0.04,0.439 0.06,0.65801 0.06,0.65801 l 0.126,0.022 c 1.151,-1.78798 2.137,-3.30299 2.957,-4.54398 0.821,-1.24 1.457,-2.221 1.91,-2.94201 0.457,-0.742 0.711,-1.238 0.763,-1.488 0.06,-0.292 0.006,-0.507 -0.162,-0.64399 -0.163,-0.15801 -0.486,-0.27802 -0.969,-0.36101 l -1.166,-0.20101 -0.087,-0.20999 0.357,-0.94301 c 0,0 0.155,0.038 0.466,0.11299 0.315,0.054 0.701,0.13201 1.159,0.233 0.483,0.083 0.977,0.168 1.481,0.25501 0.357,0.062 0.735,0.127 1.134,0.196 0.403,0.048 0.741,0.095 1.014,0.14199 0.294,0.051 0.441,0.076 0.441,0.076 l -0.458,1.12002 c -0.429,-0.031 -0.801,0.089 -1.118,0.358 -0.312,0.248 -0.751,0.79899 -1.318,1.65099 l -6.604,9.90801 -1.81001,0.23899 c 0,0 -0.035,-0.309 -0.104,-0.92499 -0.043,-0.634 -0.116,-1.44601 -0.217,-2.43501 -0.096,-1.01 -0.203,-2.07599 -0.321,-3.198 -0.096,-1.11801 -0.195,-2.172 -0.296,-3.16099 l -0.189,-0.033 -5.253,8.1 z"
     fill="#ff4646"
     id="path1014"
     style="stroke-width:1" />
  <path
     d="m 159.48884,342.85603 c -1.287,-0.38299 -2.317,-1.001 -3.089,-1.853 -0.773,-0.85299 -1.271,-1.856 -1.495,-3.01101 -0.197,-1.16999 -0.075,-2.42099 0.366,-3.756 0.341,-1.031 0.839,-1.96 1.493,-2.78699 0.675,-0.82001 1.446,-1.49002 2.313,-2.00901 0.874,-0.539 1.776,-0.892 2.706,-1.059 0.957,-0.181 1.895,-0.135 2.814,0.13901 3.043,0.90699 4.08,2.82598 3.111,5.758 -0.087,0.263 -0.197,0.52999 -0.332,0.8 -0.134,0.27099 -0.248,0.482 -0.343,0.631 l -0.518,0.24501 -8.455,-2.51901 c -0.615,1.79299 -0.76,3.316 -0.433,4.56799 0.353,1.23801 1.123,2.13402 2.308,2.687 1.193,0.53301 2.763,0.66802 4.712,0.40502 l 0.164,0.116 0.046,0.979 c -0.502,0.162 -1.092,0.31899 -1.771,0.47199 -0.658,0.159 -1.31,0.265 -1.955,0.317 -0.646,0.052 -1.193,0.011 -1.642,-0.123 z m -0.936,-10.50701 5.635,1.38 c 0.32,0.05 0.547,0.04 0.683,-0.03 0.136,-0.071 0.253,-0.258 0.354,-0.56101 0.267,-0.809 0.246,-1.49298 -0.063,-2.051 -0.288,-0.55299 -0.841,-0.94999 -1.658,-1.19399 -0.939,-0.28 -1.863,-0.2 -2.771,0.24 -0.902,0.42 -1.628,1.15899 -2.18,2.216 z"
     fill="#ff4646"
     id="path1016"
     style="stroke-width:1" />
  <path
     d="m 144.17283,338.46503 c -0.404,-2.821 -0.812,-5.481 -1.224,-7.98101 -0.413,-2.499 -0.79,-4.69399 -1.134,-6.584 -0.334,-1.90901 -0.612,-3.41001 -0.832,-4.50301 -0.2,-1.08501 -0.301,-1.628 -0.301,-1.628 l -0.146,-0.063 -5.89401,12.30701 c -0.198,0.425 -0.269,0.75401 -0.212,0.98702 0.056,0.233 0.25,0.42199 0.582,0.56598 0.098,0.042 0.264,0.114 0.499,0.21601 0.263,0.091 0.492,0.179 0.687,0.26401 0.215,0.093 0.323,0.13999 0.323,0.13999 l 0.005,0.14099 -0.87,1.18901 c 0,0 -0.103,-0.056 -0.309,-0.16901 -0.195,-0.084 -0.445,-0.20399 -0.749,-0.35899 -0.304,-0.15499 -0.637,-0.32299 -0.999,-0.50399 -0.352,-0.15201 -0.684,-0.29702 -0.997,-0.43201 -0.391,-0.16999 -0.811,-0.32901 -1.259,-0.477 -0.428,-0.13899 -0.798,-0.25301 -1.109,-0.34199 -0.311,-0.088 -0.467,-0.13302 -0.467,-0.13302 l 0.766,-1.26899 c 0.642,0.18601 1.172,0.207 1.591,0.064 0.419,-0.14301 0.777,-0.50999 1.075,-1.1 l 6.26301,-12.49502 c 0.278,-0.59899 0.29,-1.104 0.035,-1.516 -0.235,-0.40398 -0.819,-0.86599 -1.75101,-1.38698 l -0.021,-0.18302 0.73301,-0.96999 c 0,0 0.142,0.073 0.426,0.22 0.304,0.15499 0.642,0.33599 1.015,0.54501 0.402,0.19699 0.739,0.35499 1.013,0.474 0.332,0.14399 0.65,0.27 0.952,0.37798 0.302,0.108 0.555,0.19501 0.76,0.26001 0.204,0.066 0.307,0.098 0.307,0.098 0.286,1.91202 0.571,3.776 0.854,5.59301 0.303,1.82502 0.592,3.529 0.867,5.11102 0.275,1.581 0.525,2.96598 0.748,4.15299 0.223,1.188 0.39,2.11899 0.499,2.793 0.138,0.66299 0.207,0.99499 0.207,0.99499 l 0.147,0.064 5.451,-11.73401 c 0.198,-0.425 0.263,-0.76699 0.197,-1.028 -0.058,-0.28101 -0.253,-0.49301 -0.585,-0.63701 -0.255,-0.11 -0.513,-0.211 -0.776,-0.302 -0.235,-0.10201 -0.352,-0.153 -0.352,-0.153 l -0.005,-0.14101 0.87,-1.18899 c 0,0 0.093,0.052 0.279,0.15599 0.196,0.085 0.436,0.20002 0.72,0.34702 0.284,0.14698 0.578,0.29699 0.882,0.45199 0.313,0.136 0.596,0.259 0.85001,0.369 0.411,0.178 0.85,0.34599 1.317,0.502 0.468,0.157 0.867,0.283 1.198,0.38099 0.331,0.097 0.496,0.14501 0.496,0.14501 l -0.766,1.26902 c -0.7,-0.211 -1.284,-0.24401 -1.751,-0.098 -0.447,0.15401 -0.81101,0.507 -1.09101,1.05801 l -7.975,16.104 z"
     fill="#ff4646"
     id="path1018"
     style="stroke-width:1" />
  <path
     d="m 111.83471,320.40202 c -1.12201,-0.73701 -1.93351,-1.627 -2.43461,-2.66901 -0.50109,-1.042 -0.6981,-2.152 -0.59099,-3.33 0.13689,-1.184 0.60139,-2.357 1.3933,-3.51801 0.612,-0.89799 1.34539,-1.65198 2.2001,-2.26299 0.8726,-0.59899 1.7949,-1.025 2.767,-1.27801 0.984,-0.27099 1.9434,-0.35499 2.878,-0.25099 0.9643,0.099 1.8473,0.411 2.6487,0.93699 2.6537,1.74301 3.1106,3.89002 1.3706,6.44102 -0.156,0.22898 -0.3357,0.455 -0.5394,0.67799 -0.2036,0.22301 -0.3712,0.393 -0.5028,0.51001 l -0.5633,0.089 -7.3733,-4.84099 c -1.0858,1.55401 -1.64681,2.98199 -1.68301,4.283 -0.006,1.29501 0.47961,2.37799 1.45801,3.25 0.9904,0.854 2.4527,1.432 4.3869,1.734 l 0.1243,0.15802 -0.2281,0.95899 c -0.5242,0.012 -1.1317,-0.005 -1.8223,-0.05 -0.6729,-0.035 -1.3247,-0.11901 -1.9553,-0.252 -0.6307,-0.134 -1.1419,-0.33 -1.5338,-0.587 z m 2.0261,-10.40201 4.9974,2.93799 c 0.2912,0.14002 0.5113,0.19501 0.6603,0.166 0.1491,-0.03 0.3136,-0.17698 0.4936,-0.43998 0.4799,-0.70401 0.65,-1.37 0.5102,-1.997 -0.122,-0.615 -0.5392,-1.156 -1.2516,-1.624 -0.8193,-0.53801 -1.7237,-0.72402 -2.7132,-0.55901 -0.9775,0.148 -1.8764,0.65401 -2.6967,1.516 z"
     fill="#ff4646"
     id="path1020"
     style="stroke-width:1" />
  <path
     d="m 91.225489,302.60199 c 0.5189,0.343 0.9511,0.49001 1.2966,0.44301 0.362,-0.034 0.7348,-0.27901 1.1182,-0.736 L 104.5674,289.28899 c 0.3697,-0.44101 0.5626,-0.82 0.5787,-1.137 0.0462,-0.31999 -0.0955,-0.61501 -0.425,-0.886 l -0.5189,-0.425 -0.0372,-0.155 0.7561,-0.70199 c 0.42,0.26199 0.8866,0.53399 1.3999,0.81799 0.5298,0.296 1.04311,0.57901 1.53991,0.84899 0.51049,0.25301 0.9482,0.46102 1.3133,0.62201 l -0.1188,0.44 c -0.16171,0.06 -0.59871,0.43201 -1.31101,1.11501 -0.7123,0.683 -1.6148,1.609 -2.7077,2.779 -1.0764,1.18301 -2.2829,2.521 -3.6195,4.014 0.1838,0.013 0.5061,0.044 0.967,0.091 0.491,0.044 1.0218,0.108 1.5925,0.19 0.5871,0.096 1.1303,0.211 1.6297,0.345 0.5158,0.14698 0.8891,0.31599 1.1197,0.50498 1.0709,0.87801 1.6701,1.83702 1.7976,2.87801 0.1413,1.02501 -0.2126,2.04301 -1.0616,3.055 -0.178,0.212 -0.4971,0.542 -0.9573,0.99101 -0.4438,0.463 -0.9437,0.976 -1.4998,1.539 -0.556,0.563 -1.0916,1.102 -1.6066,1.61601 -0.4985,0.52799 -0.8984,0.97098 -1.1996,1.32999 -0.3971,0.47301 -0.6256,0.87801 -0.6855,1.214 -0.0462,0.321 0.0872,0.60901 0.4002,0.86599 0.0988,0.081 0.2306,0.18902 0.3954,0.32401 0.1949,0.132 0.3651,0.244 0.5106,0.336 l -0.0327,0.13799 -1.0809,0.89101 c -0.25,-0.233 -0.5905,-0.53999 -1.0216,-0.921 -0.4147,-0.36701 -0.786701,-0.68601 -1.116201,-0.95599 -0.1977,-0.162 -0.4435,-0.35001 -0.7372,-0.563 -0.3075,-0.19701 -0.6314,-0.40801 -0.9718,-0.632 -0.3541,-0.207 -0.7151,-0.40702 -1.0829,-0.59801 l 0.941,-0.923 c 0.6038,0.27499 1.1155,0.37801 1.535,0.30901 0.4333,-0.086 0.828001,-0.34101 1.184001,-0.76502 l 4.2151,-4.724 c 0.6847,-0.81601 1.0306,-1.59299 1.0379,-2.331 0.0238,-0.72399 -0.2939,-1.35599 -0.9529,-1.896 -0.4118,-0.338 -1.0321,-0.62601 -1.8608,-0.865 -0.8122,-0.22499 -1.6146,-0.34599 -2.4073,-0.362 -0.523101,0.59001 -1.066801,1.204 -1.631001,1.844 -0.5477,0.65201 -1.1174,1.31401 -1.709,1.986 -0.5614,0.669 -1.1365,1.35501 -1.7253,2.05601 -0.4245,0.50599 -0.6599,0.919 -0.7061,1.23899 -0.016,0.31701 0.1325,0.60401 0.4455,0.86101 0.0988,0.081 0.2306,0.189 0.3954,0.32401 0.1949,0.13299 0.3651,0.24499 0.5106,0.33599 l -0.0327,0.13899 -1.1057,0.87001 c -0.2663,-0.246 -0.6151,-0.55999 -1.0462,-0.94101 -0.4311,-0.38099 -0.81151,-0.70598 -1.14101,-0.97599 -0.3459,-0.28399 -0.7578,-0.62202 -1.2356,-1.013 -0.475,-0.362 -0.8923,-0.677 -1.252,-0.94402 z"
     fill="#ff4646"
     id="path1022"
     style="stroke-width:1" />
  <path
     d="m 77.980779,291.12901 1.1692,-0.76702 c 0.75791,0.66001 1.35401,1.09201 1.78811,1.29501 0.4495,0.189 0.8958,0.144 1.3387,-0.13299 0.4732,-0.27701 1.1171,-0.80601 1.9317,-1.58801 l 10.0518,-9.64702 c -0.8902,-0.85799 -1.6179,-1.51799 -2.1832,-1.97899 -0.5352,-0.461 -1.0135,-0.725 -1.435,-0.79299 -0.4062,-0.083 -0.8532,0.007 -1.3412,0.268 -0.488,0.26199 -1.1146,0.67098 -1.8797,1.229 l -1.137,-0.99101 c 0.505,-0.366 1.018,-0.755 1.5389,-1.167 0.5209,-0.411 1.0191,-0.815 1.4944,-1.21299 0.4908,-0.41102 0.9203,-0.77901 1.2886,-1.10301 l 0.3845,0.029 1.5913,2.149 6.89051,7.11599 2.142901,1.708 0.0157,0.384 c -0.3387,0.35401 -0.7238,0.76801 -1.1553,1.24101 -0.4161,0.459 -0.832401,0.93201 -1.249101,1.41999 -0.4018,0.50402 -0.788,0.97801 -1.1585,1.42202 l -1.1369,-0.99001 c 0.5879,-0.77099 1.0147,-1.402 1.2804,-1.893 0.2959,-0.49099 0.4098,-0.94 0.3418,-1.34699 -0.0378,-0.40701 -0.2557,-0.87701 -0.6536,-1.41002 -0.3979,-0.53298 -0.9738,-1.23499 -1.7279,-2.10599 -0.5056,0.397 -1.2109,0.985 -2.1161,1.76501 -0.90521,0.77999 -1.91051,1.671 -3.01601,2.67299 -1.0902,0.987 -2.2034,1.997 -3.3397,3.02801 -1.1214,1.04699 -2.1509,2.02 -3.0885,2.92001 -0.5686,0.546 -0.8796,1.03598 -0.9329,1.471 -0.0379,0.41999 0.1728,0.86799 0.6322,1.34198 0.4445,0.45902 0.8751,0.85802 1.2917,1.19602 l -0.0256,0.158 -1.2605,0.81098 c -0.2959,-0.33599 -0.6435,-0.72599 -1.0431,-1.16898 -0.4149,-0.42902 -0.8147,-0.85701 -1.1994,-1.28502 -0.3853,-0.39799 -0.7039,-0.72698 -0.9558,-0.98699 -0.2371,-0.24499 -0.5409,-0.559 -0.9113,-0.94101 -0.3711,-0.35299 -0.7569,-0.72098 -1.1575,-1.104 -0.3859,-0.36799 -0.742,-0.70499 -1.0686,-1.01198 z"
     fill="#ff4646"
     id="path1024"
     style="stroke-width:1" />
  <path
     d="m 324.22094,186.92695 0.16,-0.858 c 0.62601,-0.054 1.07901,-0.134 1.358,-0.24 0.28001,-0.12002 0.453,-0.33901 0.52,-0.65901 0.08,-0.332 0.12001,-0.85199 0.12001,-1.557 v -8.704 c -0.77301,0.027 -1.38601,0.067 -1.838,0.11999 -0.44,0.04 -0.76601,0.14 -0.98001,0.30001 -0.213,0.14599 -0.366,0.386 -0.459,0.718 -0.093,0.333 -0.17999,0.792 -0.25999,1.378 l -0.93901,0.08 c 0.053,-0.386 0.10001,-0.78601 0.14,-1.19801 0.04,-0.41299 0.073,-0.81199 0.10001,-1.19799 0.027,-0.399 0.047,-0.752 0.06,-1.05802 l 0.18001,-0.15998 1.658,0.22 h 6.19399 l 1.698,-0.22 0.18001,0.15998 c 0.013,0.30602 0.033,0.65902 0.06,1.05802 0.026,0.386 0.06,0.779 0.1,1.178 0.053,0.399 0.1,0.778 0.139,1.138 l -0.939,0.08 c -0.093,-0.599 -0.19299,-1.065 -0.299,-1.39801 -0.093,-0.34599 -0.24699,-0.59199 -0.46,-0.738 -0.2,-0.15999 -0.506,-0.267 -0.91899,-0.31999 -0.41301,-0.053 -0.97902,-0.10001 -1.698,-0.14 -0.04,0.39999 -0.08,0.972 -0.12,1.71699 -0.04,0.745 -0.073,1.58402 -0.1,2.51602 -0.027,0.91799 -0.053,1.85599 -0.08,2.814 -0.013,0.958 -0.02,1.84299 -0.02,2.655 0,0.49299 0.087,0.845 0.26001,1.05799 0.173,0.2 0.466,0.30001 0.87899,0.30001 0.40001,0 0.76601,-0.02 1.09899,-0.06 l 0.06,0.08 -0.18001,0.91799 c -0.28,-0.013 -0.606,-0.027 -0.979,-0.04 -0.373,0 -0.73899,-0.007 -1.09899,-0.02 -0.34601,0 -0.63301,0 -0.85901,0 -0.21299,0 -0.486,0 -0.81899,0 -0.32001,0.013 -0.653,0.027 -0.99901,0.04 -0.33299,0.013 -0.639,0.027 -0.919,0.04 z"
     fill="#ff0000"
     id="path1026"
     style="stroke-width:1" />
  <path
     d="m 340.56196,187.22594 c -0.42601,-1.197 -0.852,-2.39499 -1.279,-3.593 -0.42601,-1.19799 -0.852,-2.389 -1.27801,-3.573 -0.42599,-1.19799 -0.85299,-2.39601 -1.27901,-3.59301 h -0.10001 c 0,0 -0.02,0.20601 -0.06,0.61801 -0.026,0.39999 -0.066,0.925 -0.12001,1.577 -0.053,0.639 -0.11299,1.32501 -0.179,2.057 -0.067,0.732 -0.127,1.437 -0.17999,2.116 -0.054,0.66501 -0.10001,1.231 -0.14,1.69601 -0.027,0.453 -0.04,0.72599 -0.04,0.81899 0,0.41201 0.20601,0.61901 0.619,0.61901 0.10701,0 0.26701,0 0.48002,0 0.226,-0.014 0.33899,-0.02 0.33899,-0.02 l 0.04,0.08 -0.179,0.89801 c 0,0 -0.12,-0.007 -0.36,-0.02 -0.22601,-0.013 -0.49302,-0.027 -0.79902,-0.04 -0.293,-0.013 -0.55299,-0.02 -0.77899,-0.02 -0.20001,0 -0.40001,0.007 -0.6,0.02 -0.2,0.013 -0.386,0.033 -0.55901,0.06 -0.173,0.027 -0.313,0.046 -0.41999,0.06 -0.093,0.013 -0.14,0.02 -0.14,0.02 l 0.1,-0.919 c 0.42601,-0.053 0.733,-0.18601 0.919,-0.399 0.187,-0.226 0.30701,-0.60501 0.36,-1.13802 0.027,-0.23899 0.067,-0.59798 0.12001,-1.07799 0.053,-0.49201 0.11299,-1.04401 0.17999,-1.656 0.066,-0.62599 0.12601,-1.25799 0.179,-1.897 0.067,-0.639 0.127,-1.24399 0.18001,-1.817 0.067,-0.572 0.11299,-1.051 0.14,-1.437 0.04,-0.399 0.06,-0.64501 0.06,-0.73801 0,-0.24 -0.06,-0.43299 -0.18001,-0.57899 -0.12,-0.147 -0.306,-0.26001 -0.55899,-0.34001 -0.253,-0.093 -0.58,-0.153 -0.979,-0.179 l -0.06,-0.1 0.16,-0.699 c 0,0 0.13301,0.007 0.399,0.02 0.28,0.013 0.593,0.033 0.93901,0.06 0.347,0.013 0.62599,0.02 0.839,0.02 0.2,0 0.4,-0.007 0.6,-0.02 0.21301,-0.013 0.393,-0.027 0.53901,-0.04 0.14699,-0.013 0.21998,-0.02 0.21998,-0.02 0.45301,1.45102 0.87902,2.782 1.27901,3.99302 0.41301,1.211 0.772,2.255 1.079,3.13401 0.319,0.87798 0.56601,1.563 0.739,2.05599 0.186,0.479 0.28001,0.71901 0.28001,0.71901 h 0.1 c 0,0 0.086,-0.24001 0.259,-0.71901 0.187,-0.49299 0.44,-1.17801 0.76001,-2.05599 0.319,-0.89201 0.68499,-1.937 1.09799,-3.13401 0.41301,-1.19801 0.86001,-2.516 1.33901,-3.95301 0,-0.013 0.08,-0.013 0.23999,0 0.173,0.013 0.35901,0.027 0.559,0.04 0.213,0 0.386,0 0.52001,0 0.199,0 0.473,-0.007 0.81899,-0.02 0.34601,-0.027 0.653,-0.047 0.919,-0.06 0.28,-0.027 0.41901,-0.04 0.41901,-0.04 l 0.04,0.08 -0.099,0.739 c -0.57299,0.066 -0.979,0.186 -1.219,0.35901 -0.23999,0.16 -0.36,0.406 -0.36,0.73899 0,0.11901 0.007,0.38501 0.02,0.798 0.027,0.41301 0.06,0.918 0.10001,1.51702 0.04,0.599 0.08,1.24499 0.12,1.93699 0.053,0.678 0.1,1.357 0.13999,2.036 0.053,0.67801 0.10001,1.29701 0.14,1.85601 0.093,0.772 0.19901,1.285 0.319,1.537 0.12001,0.24 0.34001,0.36 0.66,0.36 0.11999,0 0.239,-0.007 0.35901,-0.02 0.13299,-0.014 0.2,-0.02 0.2,-0.02 l 0.04,0.08 -0.17999,0.898 c 0,0 -0.10601,-0.007 -0.319,-0.02 -0.21401,-0.013 -0.47301,-0.027 -0.78001,-0.04 -0.293,0 -0.55899,0 -0.799,0 -0.21299,0 -0.43899,0.007 -0.67899,0.02 -0.24001,0.013 -0.466,0.033 -0.679,0.06 -0.214,0.027 -0.38701,0.046 -0.52,0.06 -0.13302,0.013 -0.2,0.02 -0.2,0.02 l 0.08,-0.919 c 0.41301,-0.053 0.71302,-0.15902 0.89902,-0.319 0.187,-0.16 0.28,-0.386 0.28,-0.679 0,-0.119 -0.02,-0.406 -0.06,-0.85801 -0.027,-0.46601 -0.067,-1.02499 -0.12001,-1.677 -0.053,-0.652 -0.106,-1.331 -0.16,-2.036 -0.053,-0.705 -0.10599,-1.36399 -0.15999,-1.97601 -0.053,-0.61299 -0.099,-1.112 -0.13901,-1.498 -0.027,-0.38499 -0.04,-0.578 -0.04,-0.578 h -0.10001 c -0.32,0.878 -0.63999,1.76302 -0.95899,2.65501 -0.32001,0.87801 -0.64601,1.76299 -0.979,2.65501 -0.32001,0.891 -0.64001,1.78299 -0.95901,2.67499 -0.31999,0.878 -0.64,1.756 -0.959,2.63499 z"
     fill="#ff0000"
     id="path1028"
     style="stroke-width:1" />
  <defs
     id="defs1035">
    <linearGradient
       inkscape:collect="always"
       id="linearGradient5040">
      <stop
         style="stop-color:#faff00;stop-opacity:1;"
         offset="0"
         id="stop5036" />
      <stop
         style="stop-color:#faff00;stop-opacity:0;"
         offset="1"
         id="stop5038" />
    </linearGradient>
    <radialGradient
       id="paint0_radial_101_4"
       cx="0"
       cy="0"
       r="1"
       gradientUnits="userSpaceOnUse"
       gradientTransform="matrix(13.907857,243.10259,-259.48726,14.845221,297.55667,298.20678)"
       fx="0"
       fy="0">
      <stop
         stop-color="#FAFF00"
         id="stop1030" />
      <stop
         offset="1"
         stop-color="#FAFF00"
         stop-opacity="0"
         id="stop1032" />
    </radialGradient>
    <radialGradient
       inkscape:collect="always"
       xlink:href="#linearGradient5040"
       id="radialGradient5042"
       cx="297.55685"
       cy="298.20685"
       fx="297.55685"
       fy="298.20685"
       r="200"
       gradientUnits="userSpaceOnUse"
       gradientTransform="matrix(1.1199037,0,0,1.1199037,-108.23502,-108.96295)" />
  </defs>
</svg>
