<?xml version="1.0" encoding="UTF-8" standalone="no"?>
<svg
   width="400"
   height="400"
   viewBox="0 0 400 400"
   fill="none"
   version="1.1"
   id="svg199"
   sodipodi:docname="Vector-iBerlin.svg"
   inkscape:version="1.2.1 (9c6d41e, 2022-07-14)"
   xmlns:inkscape="http://www.inkscape.org/namespaces/inkscape"
   xmlns:sodipodi="http://sodipodi.sourceforge.net/DTD/sodipodi-0.dtd"
   xmlns="http://www.w3.org/2000/svg"
   xmlns:svg="http://www.w3.org/2000/svg">
  <sodipodi:namedview
     id="namedview201"
     pagecolor="#ffffff"
     bordercolor="#000000"
     borderopacity="0.25"
     inkscape:showpageshadow="2"
     inkscape:pageopacity="0.0"
     inkscape:pagecheckerboard="0"
     inkscape:deskcolor="#d1d1d1"
     showgrid="false"
     inkscape:zoom="1"
     inkscape:cx="194"
     inkscape:cy="188.5"
     inkscape:window-width="1673"
     inkscape:window-height="1051"
     inkscape:window-x="55"
     inkscape:window-y="38"
     inkscape:window-maximized="1"
     inkscape:current-layer="svg199" />
  <circle
     style="fill:#ffbe00;fill-opacity:1;stroke:none;stroke-width:8.60215;stroke-linecap:round"
     id="path600"
     cx="200"
     cy="200"
     r="200" />
  <path
     d="M 0,1.3e-5 H 400 V 400 H 0 Z"
     fill="url(#paint0_radial_101_4)"
     id="path134"
     style="fill:url(#paint0_radial_101_4)" />
  <g
     id="g1907">
    <path
       d="m 160.288,123.204 c 0.464,-0.858 0.145,-1.932 -0.724,-2.374 -8.898,-4.5289 -18.648,-7.1598 -28.63,-7.7178 -10.571,-0.5909 -21.143,1.1573 -30.9598,5.1198 -9.8169,3.962 -18.6372,10.042 -25.8312,17.803 -6.7935,7.33 -11.9785,15.989 -15.231,25.421 -0.318,0.922 0.1991,1.916 1.1295,2.211 0.9304,0.295 1.9217,-0.221 2.2409,-1.142 3.0944,-8.937 8.0142,-17.142 14.4541,-24.09 6.8405,-7.38 15.2273,-13.161 24.5615,-16.928 9.335,-3.7681 19.387,-5.4303 29.438,-4.8685 9.463,0.529 18.706,3.0169 27.146,7.2985 0.87,0.442 1.942,0.125 2.406,-0.733 z"
       fill="#ff0000"
       id="path136" />
    <path
       d="m 232.403,123.204 c -0.464,-0.858 -0.145,-1.932 0.724,-2.374 8.898,-4.5289 18.648,-7.1598 28.63,-7.7178 10.571,-0.5909 21.143,1.1573 30.96,5.1198 9.817,3.962 18.637,10.042 25.831,17.803 6.793,7.33 11.978,15.989 15.231,25.421 0.318,0.922 -0.199,1.916 -1.13,2.211 -0.93,0.295 -1.921,-0.221 -2.24,-1.142 -3.095,-8.937 -8.015,-17.142 -14.455,-24.09 -6.84,-7.38 -15.227,-13.161 -24.561,-16.928 -9.335,-3.7681 -19.387,-5.4303 -29.438,-4.8685 -9.463,0.529 -18.707,3.0169 -27.146,7.2985 -0.87,0.442 -1.942,0.125 -2.406,-0.733 z"
       fill="#ff0000"
       id="path138" />
    <path
       d="m 323.202,216.623 c 1.825,1.276 2.272,3.792 0.95,5.583 -14.301,19.358 -32.77,35.286 -54.062,46.598 -22.48,11.943 -47.47,18.4 -72.927,18.844 -25.456,0.444 -50.657,-5.138 -73.541,-16.289 -21.674,-10.563 -40.6872,-25.837 -55.6556,-44.685 -1.3847,-1.743 -1.0254,-4.274 0.7537,-5.613 1.779,-1.34 4.3038,-0.981 5.6908,0.761 14.2007,17.832 32.2181,32.288 52.7481,42.292 21.739,10.594 45.68,15.897 69.863,15.475 24.184,-0.421 47.925,-6.556 69.281,-17.901 20.168,-10.715 37.669,-25.789 51.239,-44.106 1.325,-1.789 3.836,-2.236 5.66,-0.959 z"
       fill="#ff0000"
       id="path140" />
    <path
       d="m 92.8107,217.115 c 0,-0.419 0.0233,-0.932 0.07,-1.537 0.0932,-0.652 0.233,-1.491 0.4195,-2.516 0.1865,-1.071 0.4196,-2.352 0.6993,-3.842 0.3264,-1.491 0.7226,-3.284 1.1888,-5.38 0.0932,-0.466 0.303,-1.211 0.6294,-2.236 0.3263,-1.025 0.7459,-2.096 1.2587,-3.214 0.5594,-1.164 1.2121,-2.282 1.958,-3.354 0.7925,-1.071 1.7246,-1.863 2.7976,-2.375 0.792,0.186 1.841,0.675 3.146,1.467 1.306,0.745 2.425,1.793 3.357,3.144 -1.072,1.211 -1.981,2.422 -2.727,3.633 -0.7,1.211 -1.352,2.469 -1.958,3.773 -0.56,1.304 -1.096,2.655 -1.609,4.053 -0.466,1.397 -1.002,2.864 -1.608,4.401 -0.5128,1.305 -0.979,2.655 -1.3986,4.053 -0.4196,1.351 -0.6527,2.538 -0.6993,3.563 0,0.839 -0.0233,1.421 -0.0699,1.747 0,0.372 -0.1166,0.559 -0.3497,0.559 -0.1864,0 -0.5594,-0.117 -1.1188,-0.35 -0.5595,-0.232 -1.1422,-0.582 -1.7482,-1.048 -0.5595,-0.512 -1.0723,-1.141 -1.5385,-1.886 -0.4662,-0.745 -0.6993,-1.63 -0.6993,-2.655 z m 13.3563,-30.323 c 0,-0.28 0.07,-0.699 0.21,-1.258 -0.233,-0.233 -0.443,-0.582 -0.629,-1.048 -0.14,-0.466 -0.21,-0.885 -0.21,-1.258 0,-0.419 0.046,-0.978 0.14,-1.676 0.14,-0.746 0.303,-1.538 0.489,-2.376 0.187,-0.838 0.42,-1.7 0.699,-2.585 0.28,-0.932 0.56,-1.77 0.84,-2.515 0.559,0 1.235,0.163 2.028,0.489 0.839,0.279 1.678,0.675 2.517,1.187 0.839,0.466 1.608,1.002 2.308,1.607 0.699,0.559 1.235,1.095 1.608,1.607 -0.513,0.513 -1.189,1.235 -2.028,2.166 -0.839,0.885 -1.655,1.84 -2.447,2.865 -0.793,0.978 -1.516,1.91 -2.168,2.795 -0.653,0.885 -1.073,1.514 -1.259,1.886 -0.559,-0.093 -1.049,-0.326 -1.468,-0.698 -0.42,-0.42 -0.63,-0.816 -0.63,-1.188 z"
       fill="#099aa4"
       id="path142" />
    <path
       d="m 174.39,183.298 c 0,2.888 -0.792,5.473 -2.377,7.756 -1.585,2.236 -3.753,4.099 -6.504,5.589 1.772,1.211 3.171,2.702 4.196,4.472 1.072,1.723 1.609,3.633 1.609,5.729 0,2.515 -0.77,5.007 -2.308,7.476 -1.492,2.422 -3.497,4.588 -6.014,6.498 -2.517,1.863 -5.384,3.377 -8.601,4.541 -3.217,1.165 -6.504,1.747 -9.86,1.747 -3.637,0 -6.83,-0.699 -9.58,-2.096 -2.704,-1.351 -4.826,-3.284 -6.364,-5.799 0.466,-1.397 1.072,-3.121 1.818,-5.17 0.793,-2.096 1.655,-4.286 2.588,-6.568 0.932,-2.329 1.864,-4.635 2.797,-6.917 0.979,-2.282 1.888,-4.332 2.727,-6.149 1.771,-3.959 3.356,-7.243 4.755,-9.851 1.399,-2.609 2.681,-4.681 3.846,-6.218 -2.564,0.791 -4.895,1.7 -6.993,2.724 -2.098,0.979 -3.636,1.934 -4.615,2.865 -0.42,-0.279 -0.862,-0.699 -1.329,-1.258 -0.419,-0.559 -0.839,-1.164 -1.258,-1.816 -0.373,-0.699 -0.7,-1.398 -0.979,-2.096 -0.234,-0.699 -0.373,-1.328 -0.42,-1.887 1.212,-0.838 2.774,-1.63 4.685,-2.375 1.958,-0.792 4.079,-1.467 6.364,-2.026 2.284,-0.559 4.615,-1.002 6.993,-1.328 2.424,-0.326 4.732,-0.489 6.923,-0.489 5.594,0 9.976,1.118 13.146,3.354 3.17,2.236 4.755,5.333 4.755,9.292 z m -26.642,16.699 c -0.886,-0.419 -1.702,-1.048 -2.448,-1.886 -1.072,2.375 -2.098,4.704 -3.077,6.986 -0.932,2.283 -1.771,4.402 -2.517,6.359 -0.746,1.956 -1.352,3.656 -1.818,5.1 -0.467,1.444 -0.723,2.492 -0.77,3.144 0.653,0.373 1.422,0.652 2.308,0.838 0.932,0.187 2.075,0.28 3.427,0.28 3.17,0 6.2,-0.443 9.09,-1.328 2.891,-0.885 5.431,-2.072 7.622,-3.563 2.192,-1.537 3.94,-3.284 5.245,-5.24 1.306,-1.956 1.958,-4.006 1.958,-6.149 0,-3.074 -1.328,-5.286 -3.986,-6.637 -3.636,1.49 -7.739,2.236 -12.307,2.236 -0.653,0 -1.166,0 -1.539,0 -0.326,0 -0.722,-0.047 -1.188,-0.14 z m 13.566,-24.245 c -0.979,0 -2.028,0.07 -3.147,0.21 -1.072,0.093 -2.214,0.256 -3.427,0.489 0.187,0.186 0.327,0.396 0.42,0.629 0.14,0.186 0.256,0.396 0.35,0.629 -0.42,0.559 -0.933,1.374 -1.539,2.445 -0.606,1.071 -1.282,2.329 -2.028,3.773 -0.746,1.397 -1.538,2.958 -2.377,4.681 -0.793,1.724 -1.609,3.494 -2.448,5.31 0.793,-0.186 1.748,-0.326 2.867,-0.419 1.166,-0.14 2.308,-0.209 3.427,-0.209 0.606,0 1.189,0.023 1.748,0.069 0.606,0.047 1.189,0.117 1.748,0.21 2.238,-0.373 4.243,-0.908 6.014,-1.607 1.818,-0.745 3.38,-1.584 4.685,-2.515 1.306,-0.978 2.308,-2.05 3.007,-3.214 0.7,-1.165 1.049,-2.399 1.049,-3.703 0,-2.236 -0.886,-3.913 -2.657,-5.031 -1.772,-1.164 -4.336,-1.747 -7.692,-1.747 z"
       fill="#ff0000"
       id="path144" />
    <path
       d="m 200.884,192.87 c -0.186,2.888 -0.699,5.38 -1.538,7.476 -0.839,2.05 -2.051,3.866 -3.637,5.45 -1.538,1.537 -3.426,2.935 -5.664,4.192 -2.237,1.258 -4.848,2.469 -7.832,3.633 0,0.28 -0.023,0.583 -0.07,0.909 0,0.279 0,0.582 0,0.908 0,0.606 0.047,1.234 0.14,1.887 0.093,0.652 0.257,1.257 0.49,1.816 0.233,0.559 0.559,1.025 0.979,1.397 0.419,0.327 0.955,0.49 1.608,0.49 1.259,0 2.494,-0.28 3.706,-0.839 1.212,-0.559 2.355,-1.234 3.427,-2.026 1.119,-0.838 2.144,-1.723 3.077,-2.655 0.979,-0.978 1.841,-1.863 2.587,-2.655 0.466,0.419 0.862,0.815 1.189,1.188 -2.098,2.794 -4.406,5.123 -6.923,6.987 -2.471,1.816 -4.825,2.981 -7.063,3.493 -3.217,-0.373 -5.734,-1.537 -7.552,-3.493 -1.772,-2.003 -2.658,-4.402 -2.658,-7.197 0,-1.91 0.257,-3.843 0.77,-5.799 0.559,-2.003 1.305,-3.913 2.237,-5.729 0.979,-1.864 2.098,-3.61 3.357,-5.241 1.305,-1.63 2.681,-3.05 4.126,-4.262 1.492,-1.211 3.007,-2.165 4.545,-2.864 1.585,-0.699 3.147,-1.048 4.685,-1.048 2.145,0.279 4.149,1.607 6.014,3.982 z m -4.825,2.306 c -1.259,0.186 -2.564,0.699 -3.916,1.537 -1.352,0.839 -2.634,1.956 -3.846,3.354 -1.165,1.397 -2.238,3.028 -3.217,4.891 -0.979,1.863 -1.748,3.866 -2.307,6.008 3.729,-1.863 6.829,-4.145 9.3,-6.847 2.471,-2.748 3.8,-5.729 3.986,-8.943 z"
       fill="#ff0000"
       id="path146" />
    <path
       d="m 202.443,220.399 c 0.233,-1.351 0.63,-3.121 1.189,-5.31 0.606,-2.236 1.306,-4.588 2.098,-7.057 0.793,-2.515 1.632,-5.031 2.518,-7.546 0.885,-2.515 1.748,-4.774 2.587,-6.777 0.606,-1.444 1.142,-2.562 1.608,-3.354 0.466,-0.838 0.979,-1.537 1.539,-2.096 0.652,0.093 1.328,0.256 2.028,0.489 0.699,0.233 1.375,0.512 2.028,0.838 0.652,0.327 1.235,0.676 1.748,1.049 0.513,0.326 0.909,0.652 1.189,0.978 -1.259,1.49 -2.378,3.19 -3.357,5.1 -0.932,1.91 -1.888,4.355 -2.867,7.336 2.517,-2.235 4.732,-4.378 6.643,-6.428 1.958,-2.049 3.776,-4.331 5.455,-6.847 0.279,-0.233 0.769,-0.349 1.468,-0.349 0.653,0 1.282,0.116 1.888,0.349 0.606,0.187 1.026,0.466 1.259,0.839 -0.839,2.235 -1.259,4.448 -1.259,6.637 0,2.05 0.303,3.587 0.909,4.612 -0.046,0.279 -0.373,0.815 -0.979,1.607 -0.559,0.791 -1.189,1.537 -1.888,2.235 -1.259,-0.652 -2.377,-1.537 -3.356,-2.655 -0.979,-1.164 -1.702,-2.422 -2.168,-3.773 -2.191,1.538 -4.056,3.051 -5.595,4.542 -1.538,1.444 -2.867,3.074 -3.985,4.891 -1.073,1.77 -2.005,3.819 -2.798,6.148 -0.746,2.329 -1.468,5.101 -2.167,8.315 -0.42,-0.047 -0.933,-0.21 -1.539,-0.489 -0.559,-0.233 -1.142,-0.536 -1.748,-0.909 -0.56,-0.372 -1.072,-0.768 -1.539,-1.187 -0.466,-0.42 -0.769,-0.816 -0.909,-1.188 z"
       fill="#ff0000"
       id="path148" />
    <path
       d="m 232.256,217.325 c 0,-2.05 0.489,-4.915 1.468,-8.594 0.979,-3.727 2.354,-8.059 4.126,-12.996 2.89,-7.872 5.594,-14.416 8.112,-19.633 2.564,-5.264 5.058,-9.363 7.482,-12.297 0.559,0.093 1.235,0.326 2.028,0.698 0.839,0.373 1.655,0.792 2.447,1.258 0.793,0.419 1.492,0.862 2.098,1.328 0.653,0.465 1.073,0.838 1.259,1.118 -3.636,4.285 -6.83,8.896 -9.58,13.834 -2.751,4.937 -5.268,10.596 -7.553,16.978 -1.958,5.496 -3.449,10.457 -4.475,14.882 -1.026,4.378 -1.538,8.035 -1.538,10.969 0,0.792 0,1.281 0,1.468 0,0.186 0.023,0.372 0.069,0.559 -0.652,-0.094 -1.212,-0.257 -1.678,-0.489 -0.466,-0.233 -0.769,-0.513 -0.909,-0.839 -0.093,-0.233 -0.35,-0.582 -0.769,-1.048 -0.42,-0.419 -0.793,-0.745 -1.119,-0.978 -0.42,-0.28 -0.769,-1.002 -1.049,-2.166 -0.28,-1.211 -0.419,-2.562 -0.419,-4.052 z"
       fill="#ff0000"
       id="path150" />
    <path
       d="m 248.922,217.115 c 0,-0.419 0.023,-0.932 0.069,-1.537 0.094,-0.652 0.234,-1.491 0.42,-2.516 0.187,-1.071 0.42,-2.352 0.699,-3.842 0.327,-1.491 0.723,-3.284 1.189,-5.38 0.093,-0.466 0.303,-1.211 0.629,-2.236 0.327,-1.025 0.746,-2.096 1.259,-3.214 0.56,-1.164 1.212,-2.282 1.958,-3.354 0.793,-1.071 1.725,-1.863 2.797,-2.375 0.793,0.186 1.842,0.675 3.147,1.467 1.306,0.745 2.424,1.793 3.357,3.144 -1.072,1.211 -1.982,2.422 -2.727,3.633 -0.7,1.211 -1.352,2.469 -1.958,3.773 -0.56,1.304 -1.096,2.655 -1.609,4.053 -0.466,1.397 -1.002,2.864 -1.608,4.401 -0.513,1.305 -0.979,2.655 -1.399,4.053 -0.419,1.351 -0.652,2.538 -0.699,3.563 0,0.839 -0.023,1.421 -0.07,1.747 0,0.372 -0.117,0.559 -0.35,0.559 -0.186,0 -0.559,-0.117 -1.119,-0.35 -0.559,-0.232 -1.142,-0.582 -1.748,-1.048 -0.559,-0.512 -1.072,-1.141 -1.538,-1.886 -0.466,-0.745 -0.699,-1.63 -0.699,-2.655 z m 13.356,-30.323 c 0,-0.28 0.07,-0.699 0.21,-1.258 -0.233,-0.233 -0.443,-0.582 -0.63,-1.048 -0.139,-0.466 -0.209,-0.885 -0.209,-1.258 0,-0.419 0.046,-0.978 0.139,-1.676 0.14,-0.746 0.303,-1.538 0.49,-2.376 0.186,-0.838 0.42,-1.7 0.699,-2.585 0.28,-0.932 0.56,-1.77 0.839,-2.515 0.56,0 1.236,0.163 2.028,0.489 0.839,0.279 1.679,0.675 2.518,1.187 0.839,0.466 1.608,1.002 2.307,1.607 0.7,0.559 1.236,1.095 1.609,1.607 -0.513,0.513 -1.189,1.235 -2.028,2.166 -0.839,0.885 -1.655,1.84 -2.448,2.865 -0.792,0.978 -1.515,1.91 -2.167,2.795 -0.653,0.885 -1.073,1.514 -1.259,1.886 -0.56,-0.093 -1.049,-0.326 -1.469,-0.698 -0.419,-0.42 -0.629,-0.816 -0.629,-1.188 z"
       fill="#099aa4"
       id="path152" />
    <path
       d="m 276.706,187.91 c 1.212,0.372 2.355,1.211 3.427,2.515 1.072,1.258 1.865,2.655 2.377,4.192 -0.512,1.258 -1.305,2.772 -2.377,4.542 -1.072,1.77 -2.145,3.586 -3.217,5.449 -1.072,1.817 -2.051,3.564 -2.937,5.241 -0.839,1.63 -1.329,2.981 -1.468,4.052 0.745,-0.792 1.561,-1.7 2.447,-2.725 0.932,-1.071 1.818,-2.119 2.657,-3.144 0.886,-1.071 1.702,-2.026 2.448,-2.865 0.746,-0.885 1.328,-1.537 1.748,-1.956 0.886,-0.932 1.935,-2.003 3.147,-3.214 1.212,-1.258 2.471,-2.422 3.776,-3.493 1.352,-1.118 2.704,-2.05 4.056,-2.795 1.352,-0.792 2.587,-1.188 3.706,-1.188 1.212,0 2.215,0.419 3.007,1.258 0.839,0.791 1.492,1.63 1.958,2.515 0,0.093 -0.186,0.233 -0.559,0.419 -0.327,0.14 -0.816,0.582 -1.469,1.328 -0.652,0.838 -1.398,2.003 -2.238,3.493 -0.792,1.444 -1.585,3.028 -2.377,4.751 -0.746,1.677 -1.375,3.401 -1.888,5.171 -0.513,1.77 -0.769,3.377 -0.769,4.82 0,1.165 0.139,1.91 0.419,2.236 0.326,0.326 0.769,0.489 1.329,0.489 0.513,0 1.049,-0.116 1.608,-0.349 0.56,-0.233 1.002,-0.349 1.329,-0.349 0.186,0.093 0.326,0.302 0.419,0.629 0.14,0.279 0.21,0.535 0.21,0.768 -0.373,0.326 -0.816,0.652 -1.329,0.978 -0.512,0.326 -1.048,0.629 -1.608,0.909 -0.559,0.279 -1.119,0.512 -1.678,0.698 -0.513,0.187 -0.979,0.28 -1.399,0.28 -1.352,0 -2.471,-0.21 -3.356,-0.629 -0.839,-0.373 -1.515,-0.885 -2.028,-1.537 -0.466,-0.652 -0.793,-1.421 -0.979,-2.306 -0.187,-0.932 -0.28,-1.91 -0.28,-2.934 0,-0.559 0.047,-1.188 0.14,-1.887 0.093,-0.699 0.28,-1.514 0.559,-2.445 0.28,-0.978 0.676,-2.12 1.189,-3.424 0.513,-1.351 1.166,-2.958 1.958,-4.821 -0.093,0 -0.723,0.326 -1.888,0.978 -1.165,0.652 -2.424,1.654 -3.776,3.005 -2.191,2.096 -4.173,4.169 -5.944,6.218 -1.725,2.05 -3.497,4.332 -5.315,6.847 -1.025,1.444 -1.934,2.655 -2.727,3.633 -0.746,1.025 -1.399,1.701 -1.958,2.027 -0.979,-0.559 -1.702,-1.351 -2.168,-2.376 -0.466,-0.978 -0.816,-2.003 -1.049,-3.074 0,-0.885 0.117,-2.003 0.35,-3.354 0.28,-1.351 0.629,-2.841 1.049,-4.472 0.466,-1.676 1.026,-3.423 1.678,-5.24 0.653,-1.816 1.375,-3.633 2.168,-5.45 1.772,-4.098 3.38,-7.312 4.825,-9.641 1.492,-2.329 2.424,-3.587 2.797,-3.773 z"
       fill="#ff0000"
       id="path154" />
    <path
       d="m 344.866,247.247 c -0.797,1.08 -1.735,1.849 -2.815,2.308 -1.08,0.459 -2.215,0.616 -3.406,0.472 -1.195,-0.174 -2.365,-0.67 -3.509,-1.487 -0.884,-0.632 -1.618,-1.378 -2.2,-2.239 -0.57,-0.879 -0.962,-1.8 -1.177,-2.765 -0.232,-0.977 -0.275,-1.924 -0.128,-2.84 0.142,-0.946 0.497,-1.804 1.066,-2.575 1.884,-2.554 4.083,-2.933 6.597,-1.137 0.225,0.161 0.447,0.345 0.664,0.553 0.218,0.208 0.383,0.378 0.496,0.512 l 0.066,0.557 -5.236,7.095 c 1.53,1.12 2.955,1.719 4.274,1.797 1.314,0.049 2.434,-0.393 3.362,-1.327 0.91,-0.947 1.561,-2.366 1.951,-4.26 l 0.166,-0.117 0.963,0.256 c -0.01,0.516 -0.054,1.114 -0.13,1.792 -0.065,0.661 -0.178,1.299 -0.342,1.915 -0.163,0.616 -0.384,1.113 -0.662,1.49 z m -10.468,-2.336 3.199,-4.82 c 0.155,-0.282 0.221,-0.497 0.198,-0.645 -0.024,-0.147 -0.165,-0.314 -0.425,-0.5 -0.694,-0.495 -1.362,-0.684 -2.004,-0.567 -0.63,0.099 -1.197,0.492 -1.703,1.178 -0.582,0.788 -0.81,1.672 -0.686,2.651 0.108,0.967 0.581,1.868 1.421,2.703 z"
       fill="#ff4646"
       id="path156" />
    <path
       d="m 335.936,258.484 c -0.948,1.095 -1.837,1.682 -2.666,1.761 -0.846,0.066 -1.805,-0.356 -2.877,-1.265 l -5.997,-5.083 c -0.439,-0.372 -0.831,-0.537 -1.177,-0.496 -0.346,0.042 -0.758,0.322 -1.234,0.839 l -0.23,-0.027 -0.627,-0.741 c 0.14,-0.551 0.241,-1.108 0.304,-1.669 0.061,-0.591 0.096,-1.119 0.106,-1.586 0.007,-0.496 0.007,-0.887 0,-1.172 -0.023,-0.299 -0.035,-0.448 -0.035,-0.448 l 0.614,-0.318 c 0,0 0.133,0.155 0.4,0.465 0.281,0.294 0.701,0.72 1.261,1.278 l 3.001,-3.613 0.136,-0.011 1.104,1.313 -3.106,3.441 c 0.722,0.695 1.581,1.493 2.577,2.393 0.996,0.9 2.119,1.881 3.371,2.941 0.829,0.703 1.532,1.062 2.11,1.077 0.593,0 1.189,-0.347 1.788,-1.039 0.349,-0.403 0.596,-0.835 0.743,-1.297 0.16,-0.479 0.241,-0.718 0.241,-0.718 l 0.843,0.296 c 0,0 -0.011,0.158 -0.032,0.476 -0.021,0.317 -0.06,0.703 -0.116,1.158 -0.042,0.439 -0.108,0.858 -0.199,1.256 -0.077,0.381 -0.178,0.644 -0.303,0.789 z"
       fill="#ff4646"
       id="path158" />
    <path
       d="m 324.783,270.441 c -0.543,0.542 -1.062,0.972 -1.56,1.289 -0.482,0.332 -0.874,0.573 -1.176,0.724 -0.287,0.136 -0.43,0.205 -0.43,0.205 l -0.227,-0.09 c -0.136,-0.195 -0.379,-0.494 -0.728,-0.899 -0.349,-0.434 -0.72,-0.876 -1.114,-1.325 -0.38,-0.465 -0.69,-0.817 -0.933,-1.056 l 0.677,-0.904 c 1,0.988 1.871,1.519 2.611,1.592 0.741,0.072 1.51,-0.291 2.308,-1.089 0.572,-0.573 0.925,-1.182 1.059,-1.828 0.134,-0.647 0.012,-1.157 -0.367,-1.531 -0.258,-0.255 -0.568,-0.411 -0.931,-0.47 -0.363,-0.059 -0.861,-0.028 -1.495,0.095 -0.634,0.122 -1.479,0.35 -2.536,0.684 -1.298,0.424 -2.37,0.608 -3.216,0.551 -0.846,-0.058 -1.542,-0.356 -2.088,-0.895 -0.621,-0.614 -0.993,-1.341 -1.117,-2.182 -0.123,-0.84 -0.005,-1.712 0.354,-2.614 0.345,-0.917 0.909,-1.768 1.692,-2.551 0.617,-0.618 1.205,-1.086 1.763,-1.403 0.573,-0.332 0.859,-0.498 0.859,-0.498 l 0.159,0.067 c 0,0 0.099,0.157 0.296,0.472 0.213,0.3 0.493,0.697 0.842,1.191 0.349,0.465 0.751,0.967 1.206,1.506 l -0.767,0.904 c 0,0 -0.076,-0.09 -0.228,-0.27 -0.151,-0.18 -0.28,-0.322 -0.386,-0.427 -0.546,-0.539 -1.091,-0.777 -1.634,-0.716 -0.544,0.032 -1.14,0.372 -1.787,1.02 -0.512,0.512 -0.828,1.069 -0.947,1.67 -0.103,0.586 0.019,1.051 0.367,1.396 0.364,0.359 0.856,0.545 1.475,0.558 0.635,-0.002 1.48,-0.17 2.537,-0.503 1.237,-0.395 2.256,-0.646 3.056,-0.754 0.801,-0.137 1.45,-0.139 1.949,-0.006 0.514,0.119 0.961,0.365 1.339,0.739 0.576,0.569 0.919,1.297 1.027,2.182 0.124,0.871 0.021,1.773 -0.308,2.705 -0.33,0.902 -0.864,1.722 -1.601,2.461 z"
       fill="#ff4646"
       id="path160" />
    <path
       d="m 316.473,278.195 c -0.651,0.549 -1.301,0.819 -1.951,0.809 -0.646,-0.04 -1.277,-0.358 -1.891,-0.954 l -0.119,0.058 c -0.061,0.72 -0.147,1.378 -0.259,1.973 -0.108,0.565 -0.232,1.046 -0.372,1.442 -0.137,0.367 -0.287,0.618 -0.45,0.756 -0.602,0.508 -1.25,0.831 -1.942,0.968 -0.692,0.138 -1.369,0.096 -2.03,-0.127 -0.645,-0.236 -1.215,-0.647 -1.709,-1.234 -0.398,-0.472 -0.634,-0.983 -0.708,-1.534 -0.058,-0.564 0.06,-1.068 0.355,-1.511 l 3.571,-5.184 -0.882,-1.095 c -0.686,-0.815 -1.409,-1.292 -2.168,-1.432 -0.759,-0.14 -1.481,0.078 -2.165,0.655 -0.456,0.384 -0.847,0.895 -1.174,1.533 -0.326,0.637 -0.569,1.357 -0.728,2.16 l -0.184,0.03 -1.179,-0.803 c 0.218,-0.602 0.477,-1.252 0.779,-1.952 0.287,-0.717 0.592,-1.363 0.913,-1.941 0.322,-0.577 0.604,-0.969 0.849,-1.175 0.716,-0.604 1.437,-0.989 2.162,-1.154 0.711,-0.181 1.395,-0.146 2.054,0.107 0.662,0.222 1.274,0.668 1.837,1.335 0.178,0.212 0.442,0.574 0.792,1.088 0.365,0.5 0.763,1.07 1.192,1.711 0.415,0.625 0.825,1.227 1.229,1.805 0.421,0.565 0.782,1.027 1.084,1.385 0.303,0.358 0.626,0.56 0.97,0.604 0.343,0.044 0.67,-0.064 0.98,-0.325 0.277,-0.233 0.499,-0.532 0.666,-0.896 0.153,-0.38 0.248,-0.697 0.285,-0.95 l 0.671,0.102 c 0.048,0.322 0.075,0.717 0.081,1.186 0.008,0.439 -0.031,0.889 -0.115,1.351 -0.069,0.447 -0.216,0.851 -0.444,1.209 z m -6.027,2.073 c 0.31,-0.261 0.579,-0.669 0.807,-1.224 0.232,-0.585 0.374,-1.193 0.428,-1.823 l -1.979,-2.595 -2.478,3.803 c -0.349,0.545 -0.297,1.086 0.156,1.623 0.385,0.456 0.869,0.717 1.453,0.781 0.587,0.035 1.124,-0.153 1.613,-0.565 z"
       fill="#ff4646"
       id="path162" />
    <path
       d="m 293.208,295.442 -0.559,-1.283 c 0.778,-0.637 1.303,-1.153 1.576,-1.547 0.262,-0.412 0.293,-0.86 0.094,-1.343 -0.193,-0.514 -0.606,-1.238 -1.239,-2.172 l -7.81,-11.535 c -0.995,0.735 -1.767,1.343 -2.316,1.823 -0.544,0.451 -0.885,0.879 -1.023,1.284 -0.149,0.387 -0.136,0.843 0.039,1.368 0.176,0.525 0.474,1.212 0.894,2.061 l -1.167,0.956 c -0.276,-0.56 -0.573,-1.131 -0.89,-1.714 -0.318,-0.583 -0.632,-1.142 -0.943,-1.678 -0.323,-0.553 -0.613,-1.039 -0.87,-1.456 l 0.093,-0.375 2.384,-1.21 8.167,-5.608 2.043,-1.829 0.38,0.049 c 0.292,0.393 0.635,0.843 1.028,1.348 0.382,0.487 0.778,0.977 1.189,1.47 0.429,0.481 0.83,0.941 1.206,1.381 l -1.167,0.956 c -0.66,-0.709 -1.21,-1.236 -1.649,-1.58 -0.434,-0.374 -0.857,-0.562 -1.269,-0.563 -0.407,-0.031 -0.906,0.106 -1.498,0.409 -0.593,0.303 -1.381,0.754 -2.365,1.353 0.305,0.565 0.766,1.359 1.382,2.383 0.616,1.024 1.325,2.165 2.126,3.424 0.788,1.241 1.595,2.508 2.42,3.802 0.842,1.282 1.628,2.461 2.356,3.537 0.442,0.652 0.873,1.041 1.292,1.167 0.407,0.108 0.883,-0.025 1.428,-0.399 0.527,-0.362 0.992,-0.72 1.395,-1.075 l 0.151,0.052 0.587,1.38 c -0.381,0.235 -0.823,0.513 -1.327,0.833 -0.492,0.338 -0.981,0.661 -1.467,0.969 -0.457,0.313 -0.834,0.573 -1.133,0.778 -0.281,0.192 -0.641,0.44 -1.08,0.741 -0.41,0.307 -0.837,0.626 -1.282,0.958 -0.427,0.319 -0.819,0.614 -1.176,0.885 z"
       fill="#ff4646"
       id="path164" />
    <path
       d="m 262.669,311.336 -0.34,-1.212 c 0.532,-0.33 0.871,-0.702 1.019,-1.118 0.148,-0.415 0.118,-0.868 -0.09,-1.358 l -3.365,-7.941 c -0.219,-0.462 -0.488,-0.715 -0.808,-0.76 -0.3,-0.053 -0.814,0.071 -1.543,0.372 l -0.191,-0.124 -0.22,-1.091 1.615,-1.103 -0.05,-0.118 c -0.703,-1.714 -1.044,-3.311 -1.022,-4.789 0.013,-1.497 0.375,-2.8 1.085,-3.908 0.73,-1.118 1.776,-1.979 3.139,-2.586 0.993,-0.442 1.833,-0.699 2.519,-0.771 0.698,-0.101 1.047,-0.151 1.047,-0.151 l 0.17,0.238 c 0,0 -0.018,0.23 -0.055,0.689 -0.045,0.44 -0.058,0.982 -0.04,1.626 l -0.283,0.231 c 0,0 -0.184,-0.023 -0.551,-0.07 -0.375,-0.066 -0.853,-0.074 -1.434,-0.026 -0.581,0.049 -1.193,0.216 -1.835,0.502 -0.74,0.329 -1.27,0.798 -1.59,1.407 -0.321,0.609 -0.437,1.372 -0.35,2.288 0.088,0.917 0.384,1.997 0.888,3.241 l 0.581,1.454 c 0.701,-0.312 1.349,-0.612 1.944,-0.9 0.615,-0.297 1.107,-0.527 1.477,-0.692 0.381,-0.193 0.572,-0.289 0.572,-0.289 l 0.125,0.049 0.368,1.689 c 0,0 -0.189,0.072 -0.567,0.217 -0.359,0.136 -0.83,0.335 -1.414,0.594 -0.593,0.241 -1.229,0.512 -1.911,0.816 l 3.635,8.905 c 0.457,1.078 1.182,1.397 2.175,0.955 0.506,-0.226 0.921,-0.422 1.243,-0.588 0.323,-0.167 0.484,-0.251 0.484,-0.251 l 0.109,0.092 0.331,1.356 c 0,0 -0.14,0.05 -0.421,0.152 -0.253,0.113 -0.584,0.26 -0.993,0.442 -0.389,0.173 -0.793,0.341 -1.21,0.503 -0.389,0.173 -0.73,0.325 -1.022,0.455 -0.409,0.182 -0.808,0.36 -1.197,0.533 -0.381,0.193 -0.723,0.368 -1.027,0.526 -0.303,0.159 -0.552,0.281 -0.746,0.368 -0.167,0.097 -0.251,0.146 -0.251,0.146 z"
       fill="#ff4646"
       id="path166" />
    <path
       d="m 251.135,316.93 c -1.147,0.401 -2.255,0.473 -3.324,0.216 -1.069,-0.258 -2.02,-0.805 -2.852,-1.641 -0.819,-0.864 -1.442,-1.954 -1.87,-3.271 -0.475,-1.458 -0.598,-2.87 -0.37,-4.235 0.242,-1.393 0.787,-2.61 1.636,-3.651 0.842,-1.062 1.917,-1.821 3.224,-2.278 1.147,-0.402 2.255,-0.473 3.324,-0.216 1.069,0.257 2.01,0.808 2.822,1.652 0.832,0.836 1.466,1.923 1.9,3.259 0.468,1.438 0.581,2.853 0.339,4.246 -0.221,1.386 -0.753,2.609 -1.595,3.671 -0.829,1.034 -1.907,1.784 -3.234,2.248 z m 0.361,-1.784 c 1.126,-0.394 1.873,-1.163 2.24,-2.306 0.361,-1.164 0.285,-2.536 -0.229,-4.116 -0.395,-1.215 -0.925,-2.225 -1.59,-3.029 -0.665,-0.805 -1.405,-1.358 -2.22,-1.66 -0.815,-0.301 -1.645,-0.304 -2.49,-0.008 -1.126,0.394 -1.87,1.173 -2.23,2.336 -0.361,1.164 -0.281,2.546 0.239,4.146 0.395,1.215 0.925,2.225 1.59,3.03 0.658,0.784 1.395,1.327 2.21,1.629 0.808,0.281 1.635,0.274 2.48,-0.022 z"
       fill="#ff4646"
       id="path168" />
    <path
       d="m 229.263,322.904 c -0.837,0.164 -1.531,0.083 -2.082,-0.243 -0.534,-0.35 -0.912,-0.938 -1.136,-1.761 l -0.131,-0.007 c -0.418,0.602 -0.825,1.138 -1.222,1.606 -0.38,0.443 -0.73,0.804 -1.05,1.084 -0.303,0.255 -0.559,0.403 -0.768,0.444 -0.774,0.151 -1.492,0.119 -2.155,-0.099 -0.663,-0.217 -1.221,-0.585 -1.674,-1.103 -0.433,-0.522 -0.713,-1.162 -0.839,-1.918 -0.102,-0.609 -0.045,-1.173 0.171,-1.693 0.236,-0.523 0.593,-0.908 1.07,-1.153 l 5.687,-2.807 -0.2,-1.392 c -0.176,-1.05 -0.553,-1.822 -1.132,-2.316 -0.579,-0.494 -1.308,-0.655 -2.186,-0.483 -0.586,0.115 -1.18,0.373 -1.783,0.773 -0.602,0.4 -1.175,0.914 -1.719,1.541 l -0.172,-0.064 -0.603,-1.281 c 0.491,-0.422 1.043,-0.866 1.656,-1.333 0.61,-0.489 1.199,-0.908 1.767,-1.258 0.567,-0.349 1.008,-0.555 1.322,-0.617 0.92,-0.18 1.732,-0.166 2.437,0.043 0.701,0.188 1.269,0.554 1.706,1.097 0.453,0.519 0.752,1.208 0.896,2.07 0.046,0.273 0.088,0.72 0.127,1.341 0.06,0.617 0.111,1.312 0.154,2.085 0.039,0.751 0.085,1.48 0.138,2.185 0.074,0.702 0.149,1.283 0.227,1.745 0.077,0.462 0.251,0.797 0.524,1.004 0.272,0.207 0.606,0.271 1.004,0.193 0.355,-0.069 0.697,-0.223 1.024,-0.461 0.324,-0.259 0.566,-0.49 0.726,-0.695 l 0.524,0.418 c -0.122,0.306 -0.299,0.666 -0.532,1.08 -0.216,0.39 -0.477,0.766 -0.784,1.13 -0.285,0.359 -0.616,0.641 -0.992,0.845 z m -6.214,-1.124 c 0.397,-0.078 0.835,-0.305 1.312,-0.68 0.495,-0.401 0.925,-0.865 1.29,-1.392 l -0.38,-3.244 -4.05,2.128 c -0.575,0.308 -0.805,0.808 -0.689,1.501 0.098,0.588 0.381,1.053 0.849,1.396 0.485,0.317 1.041,0.414 1.668,0.291 z"
       fill="#ff4646"
       id="path170" />
    <path
       d="m 204.123,325.021 c 0.631,-0.133 1.039,-0.381 1.225,-0.743 0.183,-0.384 0.237,-1.075 0.159,-2.073 l -0.544,-7.006 c -0.054,-0.7 -0.188,-1.189 -0.402,-1.465 -0.214,-0.277 -0.533,-0.392 -0.956,-0.346 -0.17,0.018 -0.327,0.057 -0.472,0.115 -0.126,0.035 -0.188,0.053 -0.188,0.053 l -0.176,-0.206 0.018,-0.998 c 0.647,-0.198 1.293,-0.407 1.939,-0.627 0.645,-0.22 1.186,-0.407 1.622,-0.561 0.437,-0.155 0.655,-0.232 0.655,-0.232 l 0.238,0.167 c 0,0 -0.019,0.173 -0.056,0.52 -0.016,0.344 -0.025,0.773 -0.028,1.287 -0.005,0.493 0.013,0.994 0.052,1.504 l 0.135,0.082 c 0.579,-1.069 1.268,-1.968 2.066,-2.697 0.798,-0.729 1.515,-1.128 2.15,-1.197 0.361,-0.039 0.617,-0.045 0.768,-0.019 0.152,0.027 0.228,0.04 0.228,0.04 l 0.105,0.117 c 0,0 -0.01,0.151 -0.029,0.453 -0.021,0.28 -0.045,0.657 -0.073,1.131 -0.028,0.453 -0.054,0.948 -0.076,1.486 -0.002,0.535 0.006,1.048 0.023,1.539 l -1.232,0.23 c -0.068,-0.871 -0.165,-1.438 -0.293,-1.703 -0.129,-0.285 -0.373,-0.409 -0.733,-0.37 -0.466,0.051 -0.95,0.296 -1.45,0.736 -0.5,0.439 -0.946,1.023 -1.338,1.75 0,0 0.005,0.203 0.015,0.609 0.009,0.384 0.026,0.875 0.05,1.472 0.025,0.596 0.052,1.214 0.08,1.853 0.027,0.618 0.049,1.173 0.065,1.663 0.015,0.47 0.029,0.779 0.04,0.927 0.056,0.722 0.2,1.199 0.432,1.431 0.231,0.231 0.644,0.315 1.237,0.251 0.233,-0.026 0.518,-0.067 0.856,-0.125 0.358,-0.06 0.537,-0.091 0.537,-0.091 l 0.042,0.124 -0.177,1.433 c 0,0 -0.107,0 -0.32,0.002 -0.212,0.023 -0.488,0.053 -0.827,0.09 -0.339,0.036 -0.7,0.065 -1.083,0.085 -0.36,0.039 -0.699,0.076 -1.017,0.11 -0.614,0.067 -1.175,0.138 -1.682,0.215 -0.506,0.076 -0.907,0.141 -1.202,0.194 -0.295,0.054 -0.443,0.081 -0.443,0.081 z"
       fill="#ff4646"
       id="path172" />
    <path
       d="m 182.266,327 0.225,-1.471 c 0.962,-0.137 1.617,-0.388 1.966,-0.753 0.371,-0.387 0.567,-1.038 0.587,-1.954 l 0.332,-13.411 c 0.015,-0.682 -0.049,-1.139 -0.193,-1.371 -0.144,-0.233 -0.461,-0.347 -0.951,-0.342 -0.128,0.001 -0.299,0.013 -0.512,0.037 -0.214,0.002 -0.406,0.014 -0.577,0.037 l -0.061,-0.127 0.256,-1.407 c 0.362,-0.003 0.798,0.003 1.309,0.019 0.511,0.016 1.044,0.032 1.597,0.048 0.554,-0.005 1.066,-0.01 1.535,-0.015 1.704,-0.017 3.133,-0.041 4.284,-0.074 1.172,-0.033 2.175,-0.085 3.007,-0.157 0.833,-0.072 1.602,-0.154 2.307,-0.247 l 0.092,0.191 c -0.118,0.512 -0.238,1.088 -0.359,1.728 -0.12,0.618 -0.219,1.236 -0.297,1.854 -0.077,0.618 -0.144,1.193 -0.198,1.726 l -1.537,0.143 c 0.025,-0.192 0.041,-0.426 0.047,-0.703 0.028,-0.298 0.044,-0.522 0.047,-0.671 0.012,-0.511 -0.032,-0.915 -0.132,-1.212 -0.078,-0.318 -0.276,-0.55 -0.592,-0.696 -0.295,-0.146 -0.772,-0.237 -1.432,-0.273 -0.66,-0.036 -1.554,-0.049 -2.684,-0.038 -0.682,0.007 -1.183,0.033 -1.504,0.079 -0.32,0.046 -0.525,0.154 -0.614,0.325 -0.068,0.171 -0.117,0.459 -0.147,0.864 l -0.486,7.443 -0.278,6.707 c -0.013,0.575 0.031,1 0.131,1.276 0.101,0.254 0.321,0.422 0.66,0.504 0.361,0.082 0.924,0.119 1.692,0.111 1.257,-0.012 2.27,-0.065 3.039,-0.158 0.769,-0.092 1.359,-0.268 1.77,-0.528 0.41,-0.259 0.717,-0.645 0.921,-1.158 0.203,-0.534 0.379,-1.238 0.526,-2.112 l 1.41,-0.174 0.093,0.159 c -0.164,0.661 -0.343,1.504 -0.536,2.527 -0.172,1.023 -0.321,1.972 -0.447,2.846 l -0.165,0.193 c -1.277,-0.03 -2.555,-0.06 -3.833,-0.09 -1.257,-0.009 -2.396,-0.019 -3.419,-0.03 -1.022,-0.011 -1.832,-0.014 -2.428,-0.008 -0.661,0.006 -1.418,0.035 -2.271,0.086 -0.833,0.072 -1.559,0.164 -2.18,0.277 z m 4.852,-9.753 0.331,-1.919 c 0.149,-10e-4 0.437,-0.004 0.863,-0.008 0.426,-0.005 0.884,0.002 1.374,0.018 0.49,-0.005 0.916,-0.009 1.278,-0.013 0.363,-0.003 0.917,-0.04 1.665,-0.112 0.769,-0.092 1.517,-0.185 2.243,-0.277 l 0.124,0.158 -0.489,1.889 c -0.597,-0.016 -1.342,-0.03 -2.236,-0.042 -0.874,-0.013 -1.619,-0.016 -2.237,-0.01 -0.405,0.004 -0.885,0.041 -1.441,0.11 -0.534,0.048 -1.025,0.116 -1.475,0.206 z"
       fill="#ff4646"
       id="path174" />
    <path
       d="m 150.467,323.092 c 0,0 -0.027,-0.242 -0.079,-0.726 -0.032,-0.481 -0.086,-1.117 -0.163,-1.907 -0.076,-0.791 -0.169,-1.66 -0.279,-2.608 -0.088,-0.944 -0.177,-1.888 -0.266,-2.832 -0.084,-0.965 -0.175,-1.844 -0.272,-2.639 -0.073,-0.811 -0.137,-1.449 -0.194,-1.912 -0.147,-1.084 -0.733,-1.725 -1.758,-1.923 l -0.037,-0.136 0.401,-1 c 0,0 0.158,0.027 0.473,0.082 0.336,0.058 0.701,0.131 1.096,0.221 0.399,0.069 0.714,0.123 0.945,0.163 0.63,0.109 1.233,0.191 1.808,0.247 0.576,0.057 1.034,0.103 1.374,0.14 0.366,0.02 0.549,0.03 0.549,0.03 l 0.031,0.167 -0.389,0.938 c -0.697,-0.099 -1.185,-0.108 -1.462,-0.026 -0.274,0.061 -0.441,0.237 -0.501,0.529 -0.034,0.167 -0.044,0.533 -0.029,1.097 0.018,0.543 0.045,1.206 0.08,1.99 0.059,0.766 0.113,1.563 0.16,2.392 0.072,0.812 0.132,1.578 0.18,2.299 0.068,0.725 0.12,1.317 0.156,1.776 0.04,0.439 0.061,0.659 0.061,0.659 l 0.126,0.022 c 0.482,-0.76 0.93,-1.46 1.345,-2.101 0.44,-0.658 0.837,-1.27 1.193,-1.835 0.376,-0.561 0.719,-1.064 1.027,-1.507 0.313,-0.465 0.584,-0.882 0.812,-1.253 0.254,-0.388 0.466,-0.73 0.635,-1.025 -0.073,-0.703 -0.23,-1.26 -0.472,-1.669 -0.242,-0.409 -0.689,-0.669 -1.34,-0.781 l -0.037,-0.137 0.401,-0.999 c 0,0 0.158,0.027 0.473,0.081 0.336,0.058 0.701,0.132 1.096,0.222 0.399,0.069 0.714,0.123 0.945,0.163 0.63,0.108 1.22,0.199 1.77,0.273 0.576,0.056 1.044,0.104 1.406,0.145 0.361,0.041 0.542,0.061 0.542,0.061 l 0.031,0.168 -0.389,0.937 c -0.718,-0.103 -1.214,-0.123 -1.488,-0.062 -0.252,0.064 -0.406,0.232 -0.462,0.503 -0.03,0.146 -0.038,0.501 -0.023,1.065 0.019,0.543 0.045,1.206 0.08,1.99 0.06,0.766 0.113,1.564 0.16,2.393 0.068,0.832 0.126,1.609 0.173,2.33 0.069,0.724 0.121,1.316 0.157,1.776 0.04,0.439 0.06,0.658 0.06,0.658 l 0.126,0.022 c 1.151,-1.788 2.137,-3.303 2.957,-4.544 0.821,-1.24 1.457,-2.221 1.91,-2.942 0.457,-0.742 0.711,-1.238 0.763,-1.488 0.06,-0.292 0.006,-0.507 -0.162,-0.644 -0.163,-0.158 -0.486,-0.278 -0.969,-0.361 l -1.166,-0.201 -0.087,-0.21 0.357,-0.943 c 0,0 0.155,0.038 0.466,0.113 0.315,0.054 0.701,0.132 1.159,0.233 0.483,0.083 0.977,0.168 1.481,0.255 0.357,0.062 0.735,0.127 1.134,0.196 0.403,0.048 0.741,0.095 1.014,0.142 0.294,0.051 0.441,0.076 0.441,0.076 l -0.458,1.12 c -0.429,-0.031 -0.801,0.089 -1.118,0.358 -0.312,0.248 -0.751,0.799 -1.318,1.651 l -6.604,9.908 -1.81,0.239 c 0,0 -0.035,-0.309 -0.104,-0.925 -0.043,-0.634 -0.116,-1.446 -0.217,-2.435 -0.096,-1.01 -0.203,-2.076 -0.321,-3.198 -0.096,-1.118 -0.195,-2.172 -0.296,-3.161 l -0.189,-0.033 -5.253,8.1 z"
       fill="#ff4646"
       id="path176" />
    <path
       d="m 135.508,318.878 c -1.287,-0.383 -2.317,-1.001 -3.089,-1.853 -0.773,-0.853 -1.271,-1.856 -1.495,-3.011 -0.197,-1.17 -0.075,-2.421 0.366,-3.756 0.341,-1.031 0.839,-1.96 1.493,-2.787 0.675,-0.82 1.446,-1.49 2.313,-2.009 0.874,-0.539 1.776,-0.892 2.706,-1.059 0.957,-0.181 1.895,-0.135 2.814,0.139 3.043,0.907 4.08,2.826 3.111,5.758 -0.087,0.263 -0.197,0.53 -0.332,0.8 -0.134,0.271 -0.248,0.482 -0.343,0.631 l -0.518,0.245 -8.455,-2.519 c -0.615,1.793 -0.76,3.316 -0.433,4.568 0.353,1.238 1.123,2.134 2.308,2.687 1.193,0.533 2.763,0.668 4.712,0.405 l 0.164,0.116 0.046,0.979 c -0.502,0.162 -1.092,0.319 -1.771,0.472 -0.658,0.159 -1.31,0.265 -1.955,0.317 -0.646,0.052 -1.193,0.011 -1.642,-0.123 z m -0.936,-10.507 5.635,1.38 c 0.32,0.05 0.547,0.04 0.683,-0.03 0.136,-0.071 0.253,-0.258 0.354,-0.561 0.267,-0.809 0.246,-1.493 -0.063,-2.051 -0.288,-0.553 -0.841,-0.95 -1.658,-1.194 -0.939,-0.28 -1.863,-0.2 -2.771,0.24 -0.902,0.42 -1.628,1.159 -2.18,2.216 z"
       fill="#ff4646"
       id="path178" />
    <path
       d="m 120.192,314.487 c -0.404,-2.821 -0.812,-5.481 -1.224,-7.981 -0.413,-2.499 -0.79,-4.694 -1.134,-6.584 -0.334,-1.909 -0.612,-3.41 -0.832,-4.503 -0.2,-1.085 -0.301,-1.628 -0.301,-1.628 l -0.146,-0.063 -5.894,12.307 c -0.198,0.425 -0.269,0.754 -0.212,0.987 0.056,0.233 0.25,0.422 0.582,0.566 0.098,0.042 0.264,0.114 0.499,0.216 0.263,0.091 0.492,0.179 0.687,0.264 0.215,0.093 0.323,0.14 0.323,0.14 l 0.005,0.141 -0.87,1.189 c 0,0 -0.103,-0.056 -0.309,-0.169 -0.195,-0.084 -0.445,-0.204 -0.749,-0.359 -0.304,-0.155 -0.637,-0.323 -0.999,-0.504 -0.352,-0.152 -0.684,-0.297 -0.997,-0.432 -0.391,-0.17 -0.811,-0.329 -1.259,-0.477 -0.428,-0.139 -0.798,-0.253 -1.109,-0.342 -0.311,-0.088 -0.467,-0.133 -0.467,-0.133 l 0.766,-1.269 c 0.642,0.186 1.172,0.207 1.591,0.064 0.419,-0.143 0.777,-0.51 1.075,-1.1 l 6.263,-12.495 c 0.278,-0.599 0.29,-1.104 0.035,-1.516 -0.235,-0.404 -0.819,-0.866 -1.751,-1.387 l -0.021,-0.183 0.733,-0.97 c 0,0 0.142,0.073 0.426,0.22 0.304,0.155 0.642,0.336 1.015,0.545 0.402,0.197 0.739,0.355 1.013,0.474 0.332,0.144 0.65,0.27 0.952,0.378 0.302,0.108 0.555,0.195 0.76,0.26 0.204,0.066 0.307,0.098 0.307,0.098 0.286,1.912 0.571,3.776 0.854,5.593 0.303,1.825 0.592,3.529 0.867,5.111 0.275,1.581 0.525,2.966 0.748,4.153 0.223,1.188 0.39,2.119 0.499,2.793 0.138,0.663 0.207,0.995 0.207,0.995 l 0.147,0.064 5.451,-11.734 c 0.198,-0.425 0.263,-0.767 0.197,-1.028 -0.058,-0.281 -0.253,-0.493 -0.585,-0.637 -0.255,-0.11 -0.513,-0.211 -0.776,-0.302 -0.235,-0.102 -0.352,-0.153 -0.352,-0.153 l -0.005,-0.141 0.87,-1.189 c 0,0 0.093,0.052 0.279,0.156 0.196,0.085 0.436,0.2 0.72,0.347 0.284,0.147 0.578,0.297 0.882,0.452 0.313,0.136 0.596,0.259 0.85,0.369 0.411,0.178 0.85,0.346 1.317,0.502 0.468,0.157 0.867,0.283 1.198,0.381 0.331,0.097 0.496,0.145 0.496,0.145 l -0.766,1.269 c -0.7,-0.211 -1.284,-0.244 -1.751,-0.098 -0.447,0.154 -0.811,0.507 -1.091,1.058 l -7.975,16.104 z"
       fill="#ff4646"
       id="path180" />
    <path
       d="m 87.8539,296.424 c -1.122,-0.737 -1.9335,-1.627 -2.4346,-2.669 -0.5011,-1.042 -0.6981,-2.152 -0.591,-3.33 0.1369,-1.184 0.6014,-2.357 1.3933,-3.518 0.612,-0.898 1.3454,-1.652 2.2001,-2.263 0.8726,-0.599 1.7949,-1.025 2.767,-1.278 0.984,-0.271 1.9434,-0.355 2.878,-0.251 0.9643,0.099 1.8473,0.411 2.6487,0.937 2.6537,1.743 3.1106,3.89 1.3706,6.441 -0.156,0.229 -0.3357,0.455 -0.5394,0.678 -0.2036,0.223 -0.3712,0.393 -0.5028,0.51 l -0.5633,0.089 -7.3733,-4.841 c -1.0858,1.554 -1.6468,2.982 -1.683,4.283 -0.0064,1.295 0.4796,2.378 1.458,3.25 0.9904,0.854 2.4527,1.432 4.3869,1.734 l 0.1243,0.158 -0.2281,0.959 c -0.5242,0.012 -1.1317,-0.005 -1.8223,-0.05 -0.6729,-0.035 -1.3247,-0.119 -1.9553,-0.252 -0.6307,-0.134 -1.1419,-0.33 -1.5338,-0.587 z m 2.0261,-10.402 4.9974,2.938 c 0.2912,0.14 0.5113,0.195 0.6603,0.166 0.1491,-0.03 0.3136,-0.177 0.4936,-0.44 0.4799,-0.704 0.65,-1.37 0.5102,-1.997 -0.122,-0.615 -0.5392,-1.156 -1.2516,-1.624 -0.8193,-0.538 -1.7237,-0.724 -2.7132,-0.559 -0.9775,0.148 -1.8764,0.654 -2.6967,1.516 z"
       fill="#ff4646"
       id="path182" />
    <path
       d="m 67.2447,278.624 c 0.5189,0.343 0.9511,0.49 1.2966,0.443 0.362,-0.034 0.7348,-0.279 1.1182,-0.736 l 10.9271,-13.02 c 0.3697,-0.441 0.5626,-0.82 0.5787,-1.137 0.0462,-0.32 -0.0955,-0.615 -0.425,-0.886 l -0.5189,-0.425 -0.0372,-0.155 0.7561,-0.702 c 0.42,0.262 0.8866,0.534 1.3999,0.818 0.5298,0.296 1.0431,0.579 1.5399,0.849 0.5105,0.253 0.9482,0.461 1.3133,0.622 l -0.1188,0.44 c -0.1617,0.06 -0.5987,0.432 -1.311,1.115 -0.7123,0.683 -1.6148,1.609 -2.7077,2.779 -1.0764,1.183 -2.2829,2.521 -3.6195,4.014 0.1838,0.013 0.5061,0.044 0.967,0.091 0.491,0.044 1.0218,0.108 1.5925,0.19 0.5871,0.096 1.1303,0.211 1.6297,0.345 0.5158,0.147 0.8891,0.316 1.1197,0.505 1.0709,0.878 1.6701,1.837 1.7976,2.878 0.1413,1.025 -0.2126,2.043 -1.0616,3.055 -0.178,0.212 -0.4971,0.542 -0.9573,0.991 -0.4438,0.463 -0.9437,0.976 -1.4998,1.539 -0.556,0.563 -1.0916,1.102 -1.6066,1.616 -0.4985,0.528 -0.8984,0.971 -1.1996,1.33 -0.3971,0.473 -0.6256,0.878 -0.6855,1.214 -0.0462,0.321 0.0872,0.609 0.4002,0.866 0.0988,0.081 0.2306,0.189 0.3954,0.324 0.1949,0.132 0.3651,0.244 0.5106,0.336 l -0.0327,0.138 -1.0809,0.891 c -0.25,-0.233 -0.5905,-0.54 -1.0216,-0.921 -0.4147,-0.367 -0.7867,-0.686 -1.1162,-0.956 -0.1977,-0.162 -0.4435,-0.35 -0.7372,-0.563 -0.3075,-0.197 -0.6314,-0.408 -0.9718,-0.632 -0.3541,-0.207 -0.7151,-0.407 -1.0829,-0.598 l 0.941,-0.923 c 0.6038,0.275 1.1155,0.378 1.535,0.309 0.4333,-0.086 0.828,-0.341 1.184,-0.765 l 4.2151,-4.724 c 0.6847,-0.816 1.0306,-1.593 1.0379,-2.331 0.0238,-0.724 -0.2939,-1.356 -0.9529,-1.896 -0.4118,-0.338 -1.0321,-0.626 -1.8608,-0.865 -0.8122,-0.225 -1.6146,-0.346 -2.4073,-0.362 -0.5231,0.59 -1.0668,1.204 -1.631,1.844 -0.5477,0.652 -1.1174,1.314 -1.709,1.986 -0.5614,0.669 -1.1365,1.355 -1.7253,2.056 -0.4245,0.506 -0.6599,0.919 -0.7061,1.239 -0.016,0.317 0.1325,0.604 0.4455,0.861 0.0988,0.081 0.2306,0.189 0.3954,0.324 0.1949,0.133 0.3651,0.245 0.5106,0.336 l -0.0327,0.139 -1.1057,0.87 c -0.2663,-0.246 -0.6151,-0.56 -1.0462,-0.941 -0.4311,-0.381 -0.8115,-0.706 -1.141,-0.976 -0.3459,-0.284 -0.7578,-0.622 -1.2356,-1.013 -0.475,-0.362 -0.8923,-0.677 -1.252,-0.944 z"
       fill="#ff4646"
       id="path184" />
    <path
       d="m 54,267.151 1.1692,-0.767 c 0.7579,0.66 1.354,1.092 1.7881,1.295 0.4495,0.189 0.8958,0.144 1.3387,-0.133 0.4732,-0.277 1.1171,-0.806 1.9317,-1.588 l 10.0518,-9.647 c -0.8902,-0.858 -1.6179,-1.518 -2.1832,-1.979 -0.5352,-0.461 -1.0135,-0.725 -1.435,-0.793 -0.4062,-0.083 -0.8532,0.007 -1.3412,0.268 -0.488,0.262 -1.1146,0.671 -1.8797,1.229 l -1.137,-0.991 c 0.505,-0.366 1.018,-0.755 1.5389,-1.167 0.5209,-0.411 1.0191,-0.815 1.4944,-1.213 0.4908,-0.411 0.9203,-0.779 1.2886,-1.103 l 0.3845,0.029 1.5913,2.149 6.8905,7.116 2.1429,1.708 0.0157,0.384 c -0.3387,0.354 -0.7238,0.768 -1.1553,1.241 -0.4161,0.459 -0.8324,0.932 -1.2491,1.42 -0.4018,0.504 -0.788,0.978 -1.1585,1.422 l -1.1369,-0.99 c 0.5879,-0.771 1.0147,-1.402 1.2804,-1.893 0.2959,-0.491 0.4098,-0.94 0.3418,-1.347 -0.0378,-0.407 -0.2557,-0.877 -0.6536,-1.41 -0.3979,-0.533 -0.9738,-1.235 -1.7279,-2.106 -0.5056,0.397 -1.2109,0.985 -2.1161,1.765 -0.9052,0.78 -1.9105,1.671 -3.016,2.673 -1.0902,0.987 -2.2034,1.997 -3.3397,3.028 -1.1214,1.047 -2.1509,2.02 -3.0885,2.92 -0.5686,0.546 -0.8796,1.036 -0.9329,1.471 -0.0379,0.42 0.1728,0.868 0.6322,1.342 0.4445,0.459 0.8751,0.858 1.2917,1.196 l -0.0256,0.158 -1.2605,0.811 c -0.2959,-0.336 -0.6435,-0.726 -1.0431,-1.169 -0.4149,-0.429 -0.8147,-0.857 -1.1994,-1.285 -0.3853,-0.398 -0.7039,-0.727 -0.9558,-0.987 -0.2371,-0.245 -0.5409,-0.559 -0.9113,-0.941 -0.3711,-0.353 -0.7569,-0.721 -1.1575,-1.104 -0.3859,-0.368 -0.742,-0.705 -1.0686,-1.012 z"
       fill="#ff4646"
       id="path186" />
    <path
       d="m 300.24,182.949 0.16,-0.858 c 0.626,-0.054 1.079,-0.134 1.358,-0.24 0.28,-0.12 0.453,-0.339 0.52,-0.659 0.08,-0.332 0.12,-0.852 0.12,-1.557 v -8.704 c -0.773,0.027 -1.386,0.067 -1.838,0.12 -0.44,0.04 -0.766,0.14 -0.98,0.3 -0.213,0.146 -0.366,0.386 -0.459,0.718 -0.093,0.333 -0.18,0.792 -0.26,1.378 l -0.939,0.08 c 0.053,-0.386 0.1,-0.786 0.14,-1.198 0.04,-0.413 0.073,-0.812 0.1,-1.198 0.027,-0.399 0.047,-0.752 0.06,-1.058 l 0.18,-0.16 1.658,0.22 h 6.194 l 1.698,-0.22 0.18,0.16 c 0.013,0.306 0.033,0.659 0.06,1.058 0.026,0.386 0.06,0.779 0.1,1.178 0.053,0.399 0.1,0.778 0.139,1.138 l -0.939,0.08 c -0.093,-0.599 -0.193,-1.065 -0.299,-1.398 -0.093,-0.346 -0.247,-0.592 -0.46,-0.738 -0.2,-0.16 -0.506,-0.267 -0.919,-0.32 -0.413,-0.053 -0.979,-0.1 -1.698,-0.14 -0.04,0.4 -0.08,0.972 -0.12,1.717 -0.04,0.745 -0.073,1.584 -0.1,2.516 -0.027,0.918 -0.053,1.856 -0.08,2.814 -0.013,0.958 -0.02,1.843 -0.02,2.655 0,0.493 0.087,0.845 0.26,1.058 0.173,0.2 0.466,0.3 0.879,0.3 0.4,0 0.766,-0.02 1.099,-0.06 l 0.06,0.08 -0.18,0.918 c -0.28,-0.013 -0.606,-0.027 -0.979,-0.04 -0.373,0 -0.739,-0.007 -1.099,-0.02 -0.346,0 -0.633,0 -0.859,0 -0.213,0 -0.486,0 -0.819,0 -0.32,0.013 -0.653,0.027 -0.999,0.04 -0.333,0.013 -0.639,0.027 -0.919,0.04 z"
       fill="#ff0000"
       id="path188" />
    <path
       d="m 316.581,183.248 c -0.426,-1.197 -0.852,-2.395 -1.279,-3.593 -0.426,-1.198 -0.852,-2.389 -1.278,-3.573 -0.426,-1.198 -0.853,-2.396 -1.279,-3.593 h -0.1 c 0,0 -0.02,0.206 -0.06,0.618 -0.026,0.4 -0.066,0.925 -0.12,1.577 -0.053,0.639 -0.113,1.325 -0.179,2.057 -0.067,0.732 -0.127,1.437 -0.18,2.116 -0.054,0.665 -0.1,1.231 -0.14,1.696 -0.027,0.453 -0.04,0.726 -0.04,0.819 0,0.412 0.206,0.619 0.619,0.619 0.107,0 0.267,0 0.48,0 0.226,-0.014 0.339,-0.02 0.339,-0.02 l 0.04,0.08 -0.179,0.898 c 0,0 -0.12,-0.007 -0.36,-0.02 -0.226,-0.013 -0.493,-0.027 -0.799,-0.04 -0.293,-0.013 -0.553,-0.02 -0.779,-0.02 -0.2,0 -0.4,0.007 -0.6,0.02 -0.2,0.013 -0.386,0.033 -0.559,0.06 -0.173,0.027 -0.313,0.046 -0.42,0.06 -0.093,0.013 -0.14,0.02 -0.14,0.02 l 0.1,-0.919 c 0.426,-0.053 0.733,-0.186 0.919,-0.399 0.187,-0.226 0.307,-0.605 0.36,-1.138 0.027,-0.239 0.067,-0.598 0.12,-1.078 0.053,-0.492 0.113,-1.044 0.18,-1.656 0.066,-0.626 0.126,-1.258 0.179,-1.897 0.067,-0.639 0.127,-1.244 0.18,-1.817 0.067,-0.572 0.113,-1.051 0.14,-1.437 0.04,-0.399 0.06,-0.645 0.06,-0.738 0,-0.24 -0.06,-0.433 -0.18,-0.579 -0.12,-0.147 -0.306,-0.26 -0.559,-0.34 -0.253,-0.093 -0.58,-0.153 -0.979,-0.179 l -0.06,-0.1 0.16,-0.699 c 0,0 0.133,0.007 0.399,0.02 0.28,0.013 0.593,0.033 0.939,0.06 0.347,0.013 0.626,0.02 0.839,0.02 0.2,0 0.4,-0.007 0.6,-0.02 0.213,-0.013 0.393,-0.027 0.539,-0.04 0.147,-0.013 0.22,-0.02 0.22,-0.02 0.453,1.451 0.879,2.782 1.279,3.993 0.413,1.211 0.772,2.255 1.079,3.134 0.319,0.878 0.566,1.563 0.739,2.056 0.186,0.479 0.28,0.719 0.28,0.719 h 0.1 c 0,0 0.086,-0.24 0.259,-0.719 0.187,-0.493 0.44,-1.178 0.76,-2.056 0.319,-0.892 0.685,-1.937 1.098,-3.134 0.413,-1.198 0.86,-2.516 1.339,-3.953 0,-0.013 0.08,-0.013 0.24,0 0.173,0.013 0.359,0.027 0.559,0.04 0.213,0 0.386,0 0.52,0 0.199,0 0.473,-0.007 0.819,-0.02 0.346,-0.027 0.653,-0.047 0.919,-0.06 0.28,-0.027 0.419,-0.04 0.419,-0.04 l 0.04,0.08 -0.099,0.739 c -0.573,0.066 -0.979,0.186 -1.219,0.359 -0.24,0.16 -0.36,0.406 -0.36,0.739 0,0.119 0.007,0.385 0.02,0.798 0.027,0.413 0.06,0.918 0.1,1.517 0.04,0.599 0.08,1.245 0.12,1.937 0.053,0.678 0.1,1.357 0.14,2.036 0.053,0.678 0.1,1.297 0.14,1.856 0.093,0.772 0.199,1.285 0.319,1.537 0.12,0.24 0.34,0.36 0.66,0.36 0.12,0 0.239,-0.007 0.359,-0.02 0.133,-0.014 0.2,-0.02 0.2,-0.02 l 0.04,0.08 -0.18,0.898 c 0,0 -0.106,-0.007 -0.319,-0.02 -0.214,-0.013 -0.473,-0.027 -0.78,-0.04 -0.293,0 -0.559,0 -0.799,0 -0.213,0 -0.439,0.007 -0.679,0.02 -0.24,0.013 -0.466,0.033 -0.679,0.06 -0.214,0.027 -0.387,0.046 -0.52,0.06 -0.133,0.013 -0.2,0.02 -0.2,0.02 l 0.08,-0.919 c 0.413,-0.053 0.713,-0.159 0.899,-0.319 0.187,-0.16 0.28,-0.386 0.28,-0.679 0,-0.119 -0.02,-0.406 -0.06,-0.858 -0.027,-0.466 -0.067,-1.025 -0.12,-1.677 -0.053,-0.652 -0.106,-1.331 -0.16,-2.036 -0.053,-0.705 -0.106,-1.364 -0.16,-1.976 -0.053,-0.613 -0.099,-1.112 -0.139,-1.498 -0.027,-0.385 -0.04,-0.578 -0.04,-0.578 h -0.1 c -0.32,0.878 -0.64,1.763 -0.959,2.655 -0.32,0.878 -0.646,1.763 -0.979,2.655 -0.32,0.891 -0.64,1.783 -0.959,2.675 -0.32,0.878 -0.64,1.756 -0.959,2.635 z"
       fill="#ff0000"
       id="path190" />
  </g>
  <defs
     id="defs197">
    <radialGradient
       id="paint0_radial_101_4"
       cx="0"
       cy="0"
       r="1"
       gradientUnits="userSpaceOnUse"
       gradientTransform="matrix(0,200,-200,0,200,200)"
       fx="0"
       fy="0">
      <stop
         stop-color="#FAFF00"
         id="stop192" />
      <stop
         offset="1"
         stop-color="#FAFF00"
         stop-opacity="0"
         id="stop194" />
    </radialGradient>
  </defs>
</svg>
