<?xml version="1.0" encoding="UTF-8" standalone="no"?>
<!-- Created with Inkscape (http://www.inkscape.org/) -->

<svg
   version="1.1"
   id="svg132"
   width="50"
   height="50.108433"
   viewBox="0 0 50 50.108433"
   sodipodi:docname="whatsapp-Icon.svg"
   inkscape:version="1.2.1 (9c6d41e, 2022-07-14)"
   xmlns:inkscape="http://www.inkscape.org/namespaces/inkscape"
   xmlns:sodipodi="http://sodipodi.sourceforge.net/DTD/sodipodi-0.dtd"
   xmlns="http://www.w3.org/2000/svg"
   xmlns:svg="http://www.w3.org/2000/svg">
  <defs
     id="defs136">
    <clipPath
       clipPathUnits="userSpaceOnUse"
       id="clipPath152">
      <path
         d="M 0,0 H 38 V 38 H 0 Z"
         id="path150" />
    </clipPath>
    <clipPath
       clipPathUnits="userSpaceOnUse"
       id="clipPath168">
      <path
         d="M 0,0 H 38 V 38 H 0 Z"
         id="path166" />
    </clipPath>
  </defs>
  <sodipodi:namedview
     id="namedview134"
     pagecolor="#ffffff"
     bordercolor="#000000"
     borderopacity="0.25"
     inkscape:showpageshadow="2"
     inkscape:pageopacity="0.0"
     inkscape:pagecheckerboard="0"
     inkscape:deskcolor="#d1d1d1"
     showgrid="false"
     inkscape:zoom="16.584035"
     inkscape:cx="25.024067"
     inkscape:cy="25.054216"
     inkscape:window-width="1673"
     inkscape:window-height="1051"
     inkscape:window-x="55"
     inkscape:window-y="38"
     inkscape:window-maximized="1"
     inkscape:current-layer="g140">
    <inkscape:page
       x="0"
       y="0"
       id="page138"
       width="50"
       height="50.108433" />
  </sodipodi:namedview>
  <g
     id="g140"
     inkscape:groupmode="layer"
     inkscape:label="Page 1"
     transform="scale(1.3333333)">
    <g
       id="g142">
      <g
         id="g144">
        <g
           id="g146">
          <g
             id="g148"
             clip-path="url(#clipPath152)">
            <g
               id="g154">
              <path
                 d="M 2.453,35.129 4.848,26.195 C 3.492,23.75 2.781,21.008 2.781,18.227 2.781,9.133 10.18,1.734 19.273,1.734 c 9.094,0 16.493,7.399 16.493,16.493 0,9.093 -7.399,16.492 -16.493,16.492 -2.73,0 -5.425,-0.688 -7.839,-1.996 z"
                 style="fill:#00a650;fill-opacity:1;fill-rule:nonzero;stroke:none"
                 id="path156" />
            </g>
          </g>
        </g>
      </g>
      <path
         d="M 0,37.582 0.777,34.68 3.027,26.277 C 1.781,23.766 1.043,21.031 1.043,18.227 1.043,8.191 9.234,0 19.273,0 29.309,0 37.5,8.191 37.5,18.227 c 0,10.035 -8.191,18.226 -18.227,18.226 -2.753,0 -5.445,-0.707 -7.921,-1.91 z m 19.273,-4.598 c 8.153,0 14.758,-6.605 14.758,-14.757 0,-8.153 -6.605,-14.758 -14.758,-14.758 -8.156,0 -14.761,6.605 -14.761,14.758 0,2.484 0.64,4.937 1.851,7.128 l 0.34,0.61 -1.797,6.711 6.746,-1.809 0.606,0.332 c 2.164,1.172 4.574,1.785 7.015,1.785 z"
         style="fill:#ffffff;fill-opacity:1;fill-rule:nonzero;stroke:none"
         id="path158" />
      <g
         id="g160">
        <g
           id="g162">
          <g
             id="g164"
             clip-path="url(#clipPath168)">
            <g
               id="g170">
              <path
                 d="m 25.629,20.703 c -0.711,-0.426 -1.633,-0.898 -2.465,-0.558 -0.641,0.261 -1.051,1.265 -1.465,1.777 -0.211,0.266 -0.469,0.305 -0.793,0.172 -2.406,-0.957 -4.246,-2.563 -5.574,-4.774 -0.227,-0.343 -0.184,-0.613 0.086,-0.933 0.398,-0.473 0.902,-1.008 1.012,-1.645 0.109,-0.633 -0.188,-1.379 -0.453,-1.945 -0.336,-0.723 -0.711,-1.754 -1.438,-2.164 -0.664,-0.375 -1.543,-0.168 -2.137,0.316 -1.023,0.836 -1.519,2.145 -1.504,3.438 0.004,0.371 0.051,0.738 0.137,1.093 0.207,0.856 0.602,1.653 1.047,2.411 0.336,0.574 0.699,1.125 1.09,1.66 1.289,1.75 2.887,3.265 4.738,4.402 0.926,0.567 1.926,1.063 2.957,1.402 1.156,0.383 2.188,0.782 3.438,0.543 1.312,-0.246 2.601,-1.058 3.121,-2.316 0.152,-0.375 0.23,-0.793 0.144,-1.187 -0.179,-0.817 -1.281,-1.297 -1.941,-1.692"
                 style="fill:#ffffff;fill-opacity:1;fill-rule:evenodd;stroke:none"
                 id="path172" />
            </g>
          </g>
        </g>
      </g>
    </g>
  </g>
</svg>
