<svg width="400" height="400" viewBox="0 0 400 400" fill="none" xmlns="http://www.w3.org/2000/svg">
<path d="M7.62939e-06 1.52588e-05H400V400H7.62939e-06V1.52588e-05Z" fill="#FFBE00"/>
<path d="M7.62939e-06 1.52588e-05H400V400H7.62939e-06V1.52588e-05Z" fill="url(#paint0_radial_101_4)"/>
<path d="M160.288 103.204C160.752 102.346 160.433 101.272 159.564 100.83C150.666 96.3011 140.916 93.6702 130.934 93.1122C120.363 92.5213 109.791 94.2695 99.9742 98.232C90.1573 102.194 81.337 108.274 74.143 116.035C67.3495 123.365 62.1645 132.024 58.912 141.456C58.594 142.378 59.1111 143.372 60.0415 143.667C60.9719 143.962 61.9632 143.446 62.2824 142.525C65.3768 133.588 70.2966 125.383 76.7365 118.435C83.577 111.055 91.9638 105.274 101.298 101.507C110.633 97.7389 120.685 96.0767 130.736 96.6385C140.199 97.1675 149.442 99.6554 157.882 103.937C158.752 104.379 159.824 104.062 160.288 103.204Z" fill="#FF0000"/>
<path d="M232.403 103.204C231.939 102.346 232.258 101.272 233.127 100.83C242.025 96.3011 251.775 93.6702 261.757 93.1122C272.328 92.5213 282.9 94.2695 292.717 98.232C302.534 102.194 311.354 108.274 318.548 116.035C325.341 123.365 330.526 132.024 333.779 141.456C334.097 142.378 333.58 143.372 332.649 143.667C331.719 143.962 330.728 143.446 330.409 142.525C327.314 133.588 322.394 125.383 315.954 118.435C309.114 111.055 300.727 105.274 291.393 101.507C282.058 97.7389 272.006 96.0767 261.955 96.6385C252.492 97.1675 243.248 99.6554 234.809 103.937C233.939 104.379 232.867 104.062 232.403 103.204Z" fill="#FF0000"/>
<path d="M323.202 196.623C325.027 197.899 325.474 200.415 324.152 202.206C309.851 221.564 291.382 237.492 270.09 248.804C247.61 260.747 222.62 267.204 197.163 267.648C171.707 268.092 146.506 262.51 123.622 251.359C101.948 240.796 82.9348 225.522 67.9664 206.674C66.5817 204.931 66.941 202.4 68.7201 201.061C70.4991 199.721 73.0239 200.08 74.4109 201.822C88.6116 219.654 106.629 234.11 127.159 244.114C148.898 254.708 172.839 260.011 197.022 259.589C221.206 259.168 244.947 253.033 266.303 241.688C286.471 230.973 303.972 215.899 317.542 197.582C318.867 195.793 321.378 195.346 323.202 196.623Z" fill="#FF0000"/>
<path d="M92.8107 197.115C92.8107 196.696 92.834 196.183 92.8807 195.578C92.9739 194.926 93.1137 194.087 93.3002 193.062C93.4867 191.991 93.7198 190.71 93.9995 189.22C94.3259 187.729 94.7221 185.936 95.1883 183.84C95.2815 183.374 95.4913 182.629 95.8177 181.604C96.144 180.579 96.5636 179.508 97.0764 178.39C97.6358 177.226 98.2885 176.108 99.0344 175.036C99.8269 173.965 100.759 173.173 101.832 172.661C102.624 172.847 103.673 173.336 104.978 174.128C106.284 174.873 107.403 175.921 108.335 177.272C107.263 178.483 106.354 179.694 105.608 180.905C104.908 182.116 104.256 183.374 103.65 184.678C103.09 185.982 102.554 187.333 102.041 188.731C101.575 190.128 101.039 191.595 100.433 193.132C99.9202 194.437 99.454 195.787 99.0344 197.185C98.6148 198.536 98.3817 199.723 98.3351 200.748C98.3351 201.587 98.3118 202.169 98.2652 202.495C98.2652 202.867 98.1486 203.054 97.9155 203.054C97.7291 203.054 97.3561 202.937 96.7967 202.704C96.2372 202.472 95.6545 202.122 95.0485 201.656C94.489 201.144 93.9762 200.515 93.51 199.77C93.0438 199.025 92.8107 198.14 92.8107 197.115ZM106.167 166.792C106.167 166.512 106.237 166.093 106.377 165.534C106.144 165.301 105.934 164.952 105.748 164.486C105.608 164.02 105.538 163.601 105.538 163.228C105.538 162.809 105.584 162.25 105.678 161.552C105.818 160.806 105.981 160.014 106.167 159.176C106.354 158.338 106.587 157.476 106.866 156.591C107.146 155.659 107.426 154.821 107.706 154.076C108.265 154.076 108.941 154.239 109.734 154.565C110.573 154.844 111.412 155.24 112.251 155.752C113.09 156.218 113.859 156.754 114.559 157.359C115.258 157.918 115.794 158.454 116.167 158.966C115.654 159.479 114.978 160.201 114.139 161.132C113.3 162.017 112.484 162.972 111.692 163.997C110.899 164.975 110.176 165.907 109.524 166.792C108.871 167.677 108.451 168.306 108.265 168.678C107.706 168.585 107.216 168.352 106.797 167.98C106.377 167.56 106.167 167.164 106.167 166.792Z" fill="#099AA4"/>
<path d="M174.39 163.298C174.39 166.186 173.598 168.771 172.013 171.054C170.428 173.29 168.26 175.153 165.509 176.643C167.281 177.854 168.68 179.345 169.705 181.115C170.777 182.838 171.314 184.748 171.314 186.844C171.314 189.359 170.544 191.851 169.006 194.32C167.514 196.742 165.509 198.908 162.992 200.818C160.475 202.681 157.608 204.195 154.391 205.359C151.174 206.524 147.887 207.106 144.531 207.106C140.894 207.106 137.701 206.407 134.951 205.01C132.247 203.659 130.125 201.726 128.587 199.211C129.053 197.814 129.659 196.09 130.405 194.041C131.198 191.945 132.06 189.755 132.993 187.473C133.925 185.144 134.857 182.838 135.79 180.556C136.769 178.274 137.678 176.224 138.517 174.407C140.288 170.448 141.873 167.164 143.272 164.556C144.671 161.947 145.953 159.875 147.118 158.338C144.554 159.129 142.223 160.038 140.125 161.062C138.027 162.041 136.489 162.996 135.51 163.927C135.09 163.648 134.648 163.228 134.181 162.669C133.762 162.11 133.342 161.505 132.923 160.853C132.55 160.154 132.223 159.455 131.944 158.757C131.71 158.058 131.571 157.429 131.524 156.87C132.736 156.032 134.298 155.24 136.209 154.495C138.167 153.703 140.288 153.028 142.573 152.469C144.857 151.91 147.188 151.467 149.566 151.141C151.99 150.815 154.298 150.652 156.489 150.652C162.083 150.652 166.465 151.77 169.635 154.006C172.805 156.242 174.39 159.339 174.39 163.298ZM147.748 179.997C146.862 179.578 146.046 178.949 145.3 178.111C144.228 180.486 143.202 182.815 142.223 185.097C141.291 187.38 140.452 189.499 139.706 191.456C138.96 193.412 138.354 195.112 137.888 196.556C137.421 198 137.165 199.048 137.118 199.7C137.771 200.073 138.54 200.352 139.426 200.538C140.358 200.725 141.501 200.818 142.853 200.818C146.023 200.818 149.053 200.375 151.943 199.49C154.834 198.605 157.374 197.418 159.565 195.927C161.757 194.39 163.505 192.643 164.81 190.687C166.116 188.731 166.768 186.681 166.768 184.538C166.768 181.464 165.44 179.252 162.782 177.901C159.146 179.391 155.043 180.137 150.475 180.137C149.822 180.137 149.309 180.137 148.936 180.137C148.61 180.137 148.214 180.09 147.748 179.997ZM161.314 155.752C160.335 155.752 159.286 155.822 158.167 155.962C157.095 156.055 155.953 156.218 154.74 156.451C154.927 156.637 155.067 156.847 155.16 157.08C155.3 157.266 155.416 157.476 155.51 157.709C155.09 158.268 154.577 159.083 153.971 160.154C153.365 161.225 152.689 162.483 151.943 163.927C151.197 165.324 150.405 166.885 149.566 168.608C148.773 170.332 147.957 172.102 147.118 173.918C147.911 173.732 148.866 173.592 149.985 173.499C151.151 173.359 152.293 173.29 153.412 173.29C154.018 173.29 154.601 173.313 155.16 173.359C155.766 173.406 156.349 173.476 156.908 173.569C159.146 173.196 161.151 172.661 162.922 171.962C164.74 171.217 166.302 170.378 167.607 169.447C168.913 168.469 169.915 167.397 170.614 166.233C171.314 165.068 171.663 163.834 171.663 162.53C171.663 160.294 170.777 158.617 169.006 157.499C167.234 156.335 164.67 155.752 161.314 155.752Z" fill="#FF0000"/>
<path d="M200.884 172.87C200.698 175.758 200.185 178.25 199.346 180.346C198.507 182.396 197.295 184.212 195.709 185.796C194.171 187.333 192.283 188.731 190.045 189.988C187.808 191.246 185.197 192.457 182.213 193.621C182.213 193.901 182.19 194.204 182.143 194.53C182.143 194.809 182.143 195.112 182.143 195.438C182.143 196.044 182.19 196.672 182.283 197.325C182.376 197.977 182.54 198.582 182.773 199.141C183.006 199.7 183.332 200.166 183.752 200.538C184.171 200.865 184.707 201.028 185.36 201.028C186.619 201.028 187.854 200.748 189.066 200.189C190.278 199.63 191.421 198.955 192.493 198.163C193.612 197.325 194.637 196.44 195.57 195.508C196.549 194.53 197.411 193.645 198.157 192.853C198.623 193.272 199.019 193.668 199.346 194.041C197.248 196.835 194.94 199.164 192.423 201.028C189.952 202.844 187.598 204.009 185.36 204.521C182.143 204.148 179.626 202.984 177.808 201.028C176.036 199.025 175.15 196.626 175.15 193.831C175.15 191.921 175.407 189.988 175.92 188.032C176.479 186.029 177.225 184.119 178.157 182.303C179.136 180.439 180.255 178.693 181.514 177.062C182.819 175.432 184.195 174.012 185.64 172.8C187.132 171.589 188.647 170.635 190.185 169.936C191.77 169.237 193.332 168.888 194.87 168.888C197.015 169.167 199.019 170.495 200.884 172.87ZM196.059 175.176C194.8 175.362 193.495 175.875 192.143 176.713C190.791 177.552 189.509 178.669 188.297 180.067C187.132 181.464 186.059 183.095 185.08 184.958C184.101 186.821 183.332 188.824 182.773 190.966C186.502 189.103 189.602 186.821 192.073 184.119C194.544 181.371 195.873 178.39 196.059 175.176Z" fill="#FF0000"/>
<path d="M202.443 200.399C202.676 199.048 203.073 197.278 203.632 195.089C204.238 192.853 204.938 190.501 205.73 188.032C206.523 185.517 207.362 183.001 208.248 180.486C209.133 177.971 209.996 175.712 210.835 173.709C211.441 172.265 211.977 171.147 212.443 170.355C212.909 169.517 213.422 168.818 213.982 168.259C214.634 168.352 215.31 168.515 216.01 168.748C216.709 168.981 217.385 169.26 218.038 169.586C218.69 169.913 219.273 170.262 219.786 170.635C220.299 170.961 220.695 171.287 220.975 171.613C219.716 173.103 218.597 174.803 217.618 176.713C216.686 178.623 215.73 181.068 214.751 184.049C217.268 181.814 219.483 179.671 221.394 177.621C223.352 175.572 225.17 173.29 226.849 170.774C227.128 170.541 227.618 170.425 228.317 170.425C228.97 170.425 229.599 170.541 230.205 170.774C230.811 170.961 231.231 171.24 231.464 171.613C230.625 173.848 230.205 176.061 230.205 178.25C230.205 180.3 230.508 181.837 231.114 182.862C231.068 183.141 230.741 183.677 230.135 184.469C229.576 185.26 228.946 186.006 228.247 186.704C226.988 186.052 225.87 185.167 224.891 184.049C223.912 182.885 223.189 181.627 222.723 180.276C220.532 181.814 218.667 183.327 217.128 184.818C215.59 186.262 214.261 187.892 213.143 189.709C212.07 191.479 211.138 193.528 210.345 195.857C209.599 198.186 208.877 200.958 208.178 204.172C207.758 204.125 207.245 203.962 206.639 203.683C206.08 203.45 205.497 203.147 204.891 202.774C204.331 202.402 203.819 202.006 203.352 201.587C202.886 201.167 202.583 200.771 202.443 200.399Z" fill="#FF0000"/>
<path d="M232.256 197.325C232.256 195.275 232.745 192.41 233.724 188.731C234.703 185.004 236.078 180.672 237.85 175.735C240.74 167.863 243.444 161.319 245.962 156.102C248.526 150.838 251.02 146.739 253.444 143.805C254.003 143.898 254.679 144.131 255.472 144.503C256.311 144.876 257.127 145.295 257.919 145.761C258.712 146.18 259.411 146.623 260.017 147.089C260.67 147.554 261.09 147.927 261.276 148.207C257.64 152.492 254.446 157.103 251.696 162.041C248.945 166.978 246.428 172.637 244.143 179.019C242.185 184.515 240.694 189.476 239.668 193.901C238.642 198.279 238.13 201.936 238.13 204.87C238.13 205.662 238.13 206.151 238.13 206.338C238.13 206.524 238.153 206.71 238.199 206.897C237.547 206.803 236.987 206.64 236.521 206.408C236.055 206.175 235.752 205.895 235.612 205.569C235.519 205.336 235.262 204.987 234.843 204.521C234.423 204.102 234.05 203.776 233.724 203.543C233.304 203.263 232.955 202.541 232.675 201.377C232.395 200.166 232.256 198.815 232.256 197.325Z" fill="#FF0000"/>
<path d="M248.922 197.115C248.922 196.696 248.945 196.183 248.991 195.578C249.085 194.926 249.225 194.087 249.411 193.062C249.598 191.991 249.831 190.71 250.11 189.22C250.437 187.729 250.833 185.936 251.299 183.84C251.392 183.374 251.602 182.629 251.928 181.604C252.255 180.579 252.674 179.508 253.187 178.39C253.747 177.226 254.399 176.108 255.145 175.036C255.938 173.965 256.87 173.173 257.942 172.661C258.735 172.847 259.784 173.336 261.089 174.128C262.395 174.873 263.513 175.921 264.446 177.272C263.374 178.483 262.464 179.694 261.719 180.905C261.019 182.116 260.367 183.374 259.761 184.678C259.201 185.982 258.665 187.333 258.152 188.731C257.686 190.128 257.15 191.595 256.544 193.132C256.031 194.437 255.565 195.787 255.145 197.185C254.726 198.536 254.493 199.723 254.446 200.748C254.446 201.587 254.423 202.169 254.376 202.495C254.376 202.867 254.259 203.054 254.026 203.054C253.84 203.054 253.467 202.937 252.907 202.704C252.348 202.472 251.765 202.122 251.159 201.656C250.6 201.144 250.087 200.515 249.621 199.77C249.155 199.025 248.922 198.14 248.922 197.115ZM262.278 166.792C262.278 166.512 262.348 166.093 262.488 165.534C262.255 165.301 262.045 164.952 261.858 164.486C261.719 164.02 261.649 163.601 261.649 163.228C261.649 162.809 261.695 162.25 261.788 161.552C261.928 160.806 262.091 160.014 262.278 159.176C262.464 158.338 262.698 157.476 262.977 156.591C263.257 155.659 263.537 154.821 263.816 154.076C264.376 154.076 265.052 154.239 265.844 154.565C266.683 154.844 267.523 155.24 268.362 155.752C269.201 156.218 269.97 156.754 270.669 157.359C271.369 157.918 271.905 158.454 272.278 158.966C271.765 159.479 271.089 160.201 270.25 161.132C269.411 162.017 268.595 162.972 267.802 163.997C267.01 164.975 266.287 165.907 265.635 166.792C264.982 167.677 264.562 168.306 264.376 168.678C263.816 168.585 263.327 168.352 262.907 167.98C262.488 167.56 262.278 167.164 262.278 166.792Z" fill="#099AA4"/>
<path d="M276.706 167.91C277.918 168.282 279.061 169.121 280.133 170.425C281.205 171.683 281.998 173.08 282.51 174.617C281.998 175.875 281.205 177.389 280.133 179.159C279.061 180.929 277.988 182.745 276.916 184.608C275.844 186.425 274.865 188.172 273.979 189.849C273.14 191.479 272.65 192.83 272.511 193.901C273.256 193.109 274.072 192.201 274.958 191.176C275.89 190.105 276.776 189.057 277.615 188.032C278.501 186.961 279.317 186.006 280.063 185.167C280.809 184.282 281.391 183.63 281.811 183.211C282.697 182.279 283.746 181.208 284.958 179.997C286.17 178.739 287.429 177.575 288.734 176.504C290.086 175.386 291.438 174.454 292.79 173.709C294.142 172.917 295.377 172.521 296.496 172.521C297.708 172.521 298.711 172.94 299.503 173.779C300.342 174.57 300.995 175.409 301.461 176.294C301.461 176.387 301.275 176.527 300.902 176.713C300.575 176.853 300.086 177.295 299.433 178.041C298.781 178.879 298.035 180.044 297.195 181.534C296.403 182.978 295.61 184.562 294.818 186.285C294.072 187.962 293.443 189.686 292.93 191.456C292.417 193.226 292.161 194.833 292.161 196.276C292.161 197.441 292.3 198.186 292.58 198.512C292.906 198.838 293.349 199.001 293.909 199.001C294.422 199.001 294.958 198.885 295.517 198.652C296.077 198.419 296.519 198.303 296.846 198.303C297.032 198.396 297.172 198.605 297.265 198.932C297.405 199.211 297.475 199.467 297.475 199.7C297.102 200.026 296.659 200.352 296.146 200.678C295.634 201.004 295.098 201.307 294.538 201.587C293.979 201.866 293.419 202.099 292.86 202.285C292.347 202.472 291.881 202.565 291.461 202.565C290.109 202.565 288.99 202.355 288.105 201.936C287.266 201.563 286.59 201.051 286.077 200.399C285.611 199.747 285.284 198.978 285.098 198.093C284.911 197.161 284.818 196.183 284.818 195.159C284.818 194.6 284.865 193.971 284.958 193.272C285.051 192.573 285.238 191.758 285.517 190.827C285.797 189.849 286.193 188.707 286.706 187.403C287.219 186.052 287.872 184.445 288.664 182.582C288.571 182.582 287.941 182.908 286.776 183.56C285.611 184.212 284.352 185.214 283 186.565C280.809 188.661 278.827 190.734 277.056 192.783C275.331 194.833 273.559 197.115 271.741 199.63C270.716 201.074 269.807 202.285 269.014 203.263C268.268 204.288 267.615 204.964 267.056 205.29C266.077 204.731 265.354 203.939 264.888 202.914C264.422 201.936 264.072 200.911 263.839 199.84C263.839 198.955 263.956 197.837 264.189 196.486C264.469 195.135 264.818 193.645 265.238 192.014C265.704 190.338 266.264 188.591 266.916 186.774C267.569 184.958 268.291 183.141 269.084 181.324C270.856 177.226 272.464 174.012 273.909 171.683C275.401 169.354 276.333 168.096 276.706 167.91Z" fill="#FF0000"/>
<path d="M344.866 227.247C344.069 228.327 343.131 229.096 342.051 229.555C340.971 230.014 339.836 230.171 338.645 230.027C337.45 229.853 336.28 229.357 335.136 228.54C334.252 227.908 333.518 227.162 332.936 226.301C332.366 225.422 331.974 224.501 331.759 223.536C331.527 222.559 331.484 221.612 331.631 220.696C331.773 219.75 332.128 218.892 332.697 218.121C334.581 215.567 336.78 215.188 339.294 216.984C339.519 217.145 339.741 217.329 339.958 217.537C340.176 217.745 340.341 217.915 340.454 218.049L340.52 218.606L335.284 225.701C336.814 226.821 338.239 227.42 339.558 227.498C340.872 227.547 341.992 227.105 342.92 226.171C343.83 225.224 344.481 223.805 344.871 221.911L345.037 221.794L346 222.05C345.99 222.566 345.946 223.164 345.87 223.842C345.805 224.503 345.692 225.141 345.528 225.757C345.365 226.373 345.144 226.87 344.866 227.247ZM334.398 224.911L337.597 220.091C337.752 219.809 337.818 219.594 337.795 219.446C337.771 219.299 337.63 219.132 337.37 218.946C336.676 218.451 336.008 218.262 335.366 218.379C334.736 218.478 334.169 218.871 333.663 219.557C333.081 220.345 332.853 221.229 332.977 222.208C333.085 223.175 333.558 224.076 334.398 224.911Z" fill="#FF4646"/>
<path d="M335.936 238.484C334.988 239.579 334.099 240.166 333.27 240.245C332.424 240.311 331.465 239.889 330.393 238.98L324.396 233.897C323.957 233.525 323.565 233.36 323.219 233.401C322.873 233.443 322.461 233.723 321.985 234.24L321.755 234.213L321.128 233.472C321.268 232.921 321.369 232.364 321.432 231.803C321.493 231.212 321.528 230.684 321.538 230.217C321.545 229.721 321.545 229.33 321.538 229.045C321.515 228.746 321.503 228.597 321.503 228.597L322.117 228.279C322.117 228.279 322.25 228.434 322.517 228.744C322.798 229.038 323.218 229.464 323.778 230.022L326.779 226.409L326.915 226.398L328.019 227.711L324.913 231.152C325.635 231.847 326.494 232.645 327.49 233.545C328.486 234.445 329.609 235.426 330.861 236.486C331.69 237.189 332.393 237.548 332.971 237.563C333.564 237.563 334.16 237.216 334.759 236.524C335.108 236.121 335.355 235.689 335.502 235.227C335.662 234.748 335.743 234.509 335.743 234.509L336.586 234.805C336.586 234.805 336.575 234.963 336.554 235.281C336.533 235.598 336.494 235.984 336.438 236.439C336.396 236.878 336.33 237.297 336.239 237.695C336.162 238.076 336.061 238.339 335.936 238.484Z" fill="#FF4646"/>
<path d="M324.783 250.441C324.24 250.983 323.721 251.413 323.223 251.73C322.741 252.062 322.349 252.303 322.047 252.454C321.76 252.59 321.617 252.659 321.617 252.659L321.39 252.569C321.254 252.374 321.011 252.075 320.662 251.67C320.313 251.236 319.942 250.794 319.548 250.345C319.168 249.88 318.858 249.528 318.615 249.289L319.292 248.385C320.292 249.373 321.163 249.904 321.903 249.977C322.644 250.049 323.413 249.686 324.211 248.888C324.783 248.315 325.136 247.706 325.27 247.06C325.404 246.413 325.282 245.903 324.903 245.529C324.645 245.274 324.335 245.118 323.972 245.059C323.609 245 323.111 245.031 322.477 245.154C321.843 245.276 320.998 245.504 319.941 245.838C318.643 246.262 317.571 246.446 316.725 246.389C315.879 246.331 315.183 246.033 314.637 245.494C314.016 244.88 313.644 244.153 313.52 243.312C313.397 242.472 313.515 241.6 313.874 240.698C314.219 239.781 314.783 238.93 315.566 238.147C316.183 237.529 316.771 237.061 317.329 236.744C317.902 236.412 318.188 236.246 318.188 236.246L318.347 236.313C318.347 236.313 318.446 236.47 318.643 236.785C318.856 237.085 319.136 237.482 319.485 237.976C319.834 238.441 320.236 238.943 320.691 239.482L319.924 240.386C319.924 240.386 319.848 240.296 319.696 240.116C319.545 239.936 319.416 239.794 319.31 239.689C318.764 239.15 318.219 238.912 317.676 238.973C317.132 239.005 316.536 239.345 315.889 239.993C315.377 240.505 315.061 241.062 314.942 241.663C314.839 242.249 314.961 242.714 315.309 243.059C315.673 243.418 316.165 243.604 316.784 243.617C317.419 243.615 318.264 243.447 319.321 243.114C320.558 242.719 321.577 242.468 322.377 242.36C323.178 242.223 323.827 242.221 324.326 242.354C324.84 242.473 325.287 242.719 325.665 243.093C326.241 243.662 326.584 244.39 326.692 245.275C326.816 246.146 326.713 247.048 326.384 247.98C326.054 248.882 325.52 249.702 324.783 250.441Z" fill="#FF4646"/>
<path d="M316.473 258.195C315.822 258.744 315.172 259.014 314.522 259.004C313.876 258.964 313.245 258.646 312.631 258.05L312.512 258.108C312.451 258.828 312.365 259.486 312.253 260.081C312.145 260.646 312.021 261.127 311.881 261.523C311.744 261.89 311.594 262.141 311.431 262.279C310.829 262.787 310.181 263.11 309.489 263.247C308.797 263.385 308.12 263.343 307.459 263.12C306.814 262.884 306.244 262.473 305.75 261.886C305.352 261.414 305.116 260.903 305.042 260.352C304.984 259.788 305.102 259.284 305.397 258.841L308.968 253.657L308.086 252.562C307.4 251.747 306.677 251.27 305.918 251.13C305.159 250.99 304.437 251.208 303.753 251.785C303.297 252.169 302.906 252.68 302.579 253.318C302.253 253.955 302.01 254.675 301.851 255.478L301.667 255.508L300.488 254.705C300.706 254.103 300.965 253.453 301.267 252.753C301.554 252.036 301.859 251.39 302.18 250.812C302.502 250.235 302.784 249.843 303.029 249.637C303.745 249.033 304.466 248.648 305.191 248.483C305.902 248.302 306.586 248.337 307.245 248.59C307.907 248.812 308.519 249.258 309.082 249.925C309.26 250.137 309.524 250.499 309.874 251.013C310.239 251.513 310.637 252.083 311.066 252.724C311.481 253.349 311.891 253.951 312.295 254.529C312.716 255.094 313.077 255.556 313.379 255.914C313.682 256.272 314.005 256.474 314.349 256.518C314.692 256.562 315.019 256.454 315.329 256.193C315.606 255.96 315.828 255.661 315.995 255.297C316.148 254.917 316.243 254.6 316.28 254.347L316.951 254.449C316.999 254.771 317.026 255.166 317.032 255.635C317.04 256.074 317.001 256.524 316.917 256.986C316.848 257.433 316.701 257.837 316.473 258.195ZM310.446 260.268C310.756 260.007 311.025 259.599 311.253 259.044C311.485 258.459 311.627 257.851 311.681 257.221L309.702 254.626L307.224 258.429C306.875 258.974 306.927 259.515 307.38 260.052C307.765 260.508 308.249 260.769 308.833 260.833C309.42 260.868 309.957 260.68 310.446 260.268Z" fill="#FF4646"/>
<path d="M293.208 275.442L292.649 274.159C293.427 273.522 293.952 273.006 294.225 272.612C294.487 272.2 294.518 271.752 294.319 271.269C294.126 270.755 293.713 270.031 293.08 269.097L285.27 257.562C284.275 258.297 283.503 258.905 282.954 259.385C282.41 259.836 282.069 260.264 281.931 260.669C281.782 261.056 281.795 261.512 281.97 262.037C282.146 262.562 282.444 263.249 282.864 264.098L281.697 265.054C281.421 264.494 281.124 263.923 280.807 263.34C280.489 262.757 280.175 262.198 279.864 261.662C279.541 261.109 279.251 260.623 278.994 260.206L279.087 259.831L281.471 258.621L289.638 253.013L291.681 251.184L292.061 251.233C292.353 251.626 292.696 252.076 293.089 252.581C293.471 253.068 293.867 253.558 294.278 254.051C294.707 254.532 295.108 254.992 295.484 255.432L294.317 256.388C293.657 255.679 293.107 255.152 292.668 254.808C292.234 254.434 291.811 254.246 291.399 254.245C290.992 254.214 290.493 254.351 289.901 254.654C289.308 254.957 288.52 255.408 287.536 256.007C287.841 256.572 288.302 257.366 288.918 258.39C289.534 259.414 290.243 260.555 291.044 261.814C291.832 263.055 292.639 264.322 293.464 265.616C294.306 266.898 295.092 268.077 295.82 269.153C296.262 269.805 296.693 270.194 297.112 270.32C297.519 270.428 297.995 270.295 298.54 269.921C299.067 269.559 299.532 269.201 299.935 268.846L300.086 268.898L300.673 270.278C300.292 270.513 299.85 270.791 299.346 271.111C298.854 271.449 298.365 271.772 297.879 272.08C297.422 272.393 297.045 272.653 296.746 272.858C296.465 273.05 296.105 273.298 295.666 273.599C295.256 273.906 294.829 274.225 294.384 274.557C293.957 274.876 293.565 275.171 293.208 275.442Z" fill="#FF4646"/>
<path d="M262.669 291.336L262.329 290.124C262.861 289.794 263.2 289.422 263.348 289.006C263.496 288.591 263.466 288.138 263.258 287.648L259.893 279.707C259.674 279.245 259.405 278.992 259.085 278.947C258.785 278.894 258.271 279.018 257.542 279.319L257.351 279.195L257.131 278.104L258.746 277.001L258.696 276.883C257.993 275.169 257.652 273.572 257.674 272.094C257.687 270.597 258.049 269.294 258.759 268.186C259.489 267.068 260.535 266.207 261.898 265.6C262.891 265.158 263.731 264.901 264.417 264.829C265.115 264.728 265.464 264.678 265.464 264.678L265.634 264.916C265.634 264.916 265.616 265.146 265.579 265.605C265.534 266.045 265.521 266.587 265.539 267.231L265.256 267.462C265.256 267.462 265.072 267.439 264.705 267.392C264.33 267.326 263.852 267.318 263.271 267.366C262.69 267.415 262.078 267.582 261.436 267.868C260.696 268.197 260.166 268.666 259.846 269.275C259.525 269.884 259.409 270.647 259.496 271.563C259.584 272.48 259.88 273.56 260.384 274.804L260.965 276.258C261.666 275.946 262.314 275.646 262.909 275.358C263.524 275.061 264.016 274.831 264.386 274.666C264.767 274.473 264.958 274.377 264.958 274.377L265.083 274.426L265.451 276.115C265.451 276.115 265.262 276.187 264.884 276.332C264.525 276.468 264.054 276.667 263.47 276.926C262.877 277.167 262.241 277.438 261.559 277.742L265.194 286.647C265.651 287.725 266.376 288.044 267.369 287.602C267.875 287.376 268.29 287.18 268.612 287.014C268.935 286.847 269.096 286.763 269.096 286.763L269.205 286.855L269.536 288.211C269.536 288.211 269.396 288.261 269.115 288.363C268.862 288.476 268.531 288.623 268.122 288.805C267.733 288.978 267.329 289.146 266.912 289.308C266.523 289.481 266.182 289.633 265.89 289.763C265.481 289.945 265.082 290.123 264.693 290.296C264.312 290.489 263.97 290.664 263.666 290.822C263.363 290.981 263.114 291.103 262.92 291.19C262.753 291.287 262.669 291.336 262.669 291.336Z" fill="#FF4646"/>
<path d="M251.135 296.93C249.988 297.331 248.88 297.403 247.811 297.146C246.742 296.888 245.791 296.341 244.959 295.505C244.14 294.641 243.517 293.551 243.089 292.234C242.614 290.776 242.491 289.364 242.719 287.999C242.961 286.606 243.506 285.389 244.355 284.348C245.197 283.286 246.272 282.527 247.579 282.07C248.726 281.668 249.834 281.597 250.903 281.854C251.972 282.111 252.913 282.662 253.725 283.506C254.557 284.342 255.191 285.429 255.625 286.765C256.093 288.203 256.206 289.618 255.964 291.011C255.743 292.397 255.211 293.62 254.369 294.682C253.54 295.716 252.462 296.466 251.135 296.93ZM251.496 295.146C252.622 294.752 253.369 293.983 253.736 292.84C254.097 291.676 254.021 290.304 253.507 288.724C253.112 287.509 252.582 286.499 251.917 285.695C251.252 284.89 250.512 284.337 249.697 284.035C248.882 283.734 248.052 283.731 247.207 284.027C246.081 284.421 245.337 285.2 244.977 286.363C244.616 287.527 244.696 288.909 245.216 290.509C245.611 291.724 246.141 292.734 246.806 293.539C247.464 294.323 248.201 294.866 249.016 295.168C249.824 295.449 250.651 295.442 251.496 295.146Z" fill="#FF4646"/>
<path d="M229.263 302.904C228.426 303.068 227.732 302.987 227.181 302.661C226.647 302.311 226.269 301.723 226.045 300.9L225.914 300.893C225.496 301.495 225.089 302.031 224.692 302.499C224.312 302.942 223.962 303.303 223.642 303.583C223.339 303.838 223.083 303.986 222.874 304.027C222.1 304.178 221.382 304.146 220.719 303.928C220.056 303.711 219.498 303.343 219.045 302.825C218.612 302.303 218.332 301.663 218.206 300.907C218.104 300.298 218.161 299.734 218.377 299.214C218.613 298.691 218.97 298.306 219.447 298.061L225.134 295.254L224.934 293.862C224.758 292.812 224.381 292.04 223.802 291.546C223.223 291.052 222.494 290.891 221.616 291.063C221.03 291.178 220.436 291.436 219.833 291.836C219.231 292.236 218.658 292.75 218.114 293.377L217.942 293.313L217.339 292.032C217.83 291.61 218.382 291.166 218.995 290.699C219.605 290.21 220.194 289.791 220.762 289.441C221.329 289.092 221.77 288.886 222.084 288.824C223.004 288.644 223.816 288.658 224.521 288.867C225.222 289.055 225.79 289.421 226.227 289.964C226.68 290.483 226.979 291.172 227.123 292.034C227.169 292.307 227.211 292.754 227.25 293.375C227.31 293.992 227.361 294.687 227.404 295.46C227.443 296.211 227.489 296.94 227.542 297.645C227.616 298.347 227.691 298.928 227.769 299.39C227.846 299.852 228.02 300.187 228.293 300.394C228.565 300.601 228.899 300.665 229.297 300.587C229.652 300.518 229.994 300.364 230.321 300.126C230.645 299.867 230.887 299.636 231.047 299.431L231.571 299.849C231.449 300.155 231.272 300.515 231.039 300.929C230.823 301.319 230.562 301.695 230.255 302.059C229.97 302.418 229.639 302.7 229.263 302.904ZM223.049 301.78C223.446 301.702 223.884 301.475 224.361 301.1C224.856 300.699 225.286 300.235 225.651 299.708L225.271 296.464L221.221 298.592C220.646 298.9 220.416 299.4 220.532 300.093C220.63 300.681 220.913 301.146 221.381 301.489C221.866 301.806 222.422 301.903 223.049 301.78Z" fill="#FF4646"/>
<path d="M204.123 305.021C204.754 304.888 205.162 304.64 205.348 304.278C205.531 303.894 205.585 303.203 205.507 302.205L204.963 295.199C204.909 294.499 204.775 294.01 204.561 293.734C204.347 293.457 204.028 293.342 203.605 293.388C203.435 293.406 203.278 293.445 203.133 293.503C203.007 293.538 202.945 293.556 202.945 293.556L202.769 293.35L202.787 292.352C203.434 292.154 204.08 291.945 204.726 291.725C205.371 291.505 205.912 291.318 206.348 291.164C206.785 291.009 207.003 290.932 207.003 290.932L207.241 291.099C207.241 291.099 207.222 291.272 207.185 291.619C207.169 291.963 207.16 292.392 207.157 292.906C207.152 293.399 207.17 293.9 207.209 294.41L207.344 294.492C207.923 293.423 208.612 292.524 209.41 291.795C210.208 291.066 210.925 290.667 211.56 290.598C211.921 290.559 212.177 290.553 212.328 290.579C212.48 290.606 212.556 290.619 212.556 290.619L212.661 290.736C212.661 290.736 212.651 290.887 212.632 291.189C212.611 291.469 212.587 291.846 212.559 292.32C212.531 292.773 212.505 293.268 212.483 293.806C212.481 294.341 212.489 294.854 212.506 295.345L211.274 295.575C211.206 294.704 211.109 294.137 210.981 293.872C210.852 293.587 210.608 293.463 210.248 293.502C209.782 293.553 209.298 293.798 208.798 294.238C208.298 294.677 207.852 295.261 207.46 295.988C207.46 295.988 207.465 296.191 207.475 296.597C207.484 296.981 207.501 297.472 207.525 298.069C207.55 298.665 207.577 299.283 207.605 299.922C207.632 300.54 207.654 301.095 207.67 301.585C207.685 302.055 207.699 302.364 207.71 302.512C207.766 303.234 207.91 303.711 208.142 303.943C208.373 304.174 208.786 304.258 209.379 304.194C209.612 304.168 209.897 304.127 210.235 304.069C210.593 304.009 210.772 303.978 210.772 303.978L210.814 304.102L210.637 305.535C210.637 305.535 210.53 305.535 210.317 305.537C210.105 305.56 209.829 305.59 209.49 305.627C209.151 305.663 208.79 305.692 208.407 305.712C208.047 305.751 207.708 305.788 207.39 305.822C206.776 305.889 206.215 305.96 205.708 306.037C205.202 306.113 204.801 306.178 204.506 306.231C204.211 306.285 204.063 306.312 204.063 306.312L204.123 305.021Z" fill="#FF4646"/>
<path d="M182.266 307L182.491 305.529C183.453 305.392 184.108 305.141 184.457 304.776C184.828 304.389 185.024 303.738 185.044 302.822L185.376 289.411C185.391 288.729 185.327 288.272 185.183 288.04C185.039 287.807 184.722 287.693 184.232 287.698C184.104 287.699 183.933 287.711 183.72 287.735C183.506 287.737 183.314 287.749 183.143 287.772L183.082 287.645L183.338 286.238C183.7 286.235 184.136 286.241 184.647 286.257C185.158 286.273 185.691 286.289 186.244 286.305C186.798 286.3 187.31 286.295 187.779 286.29C189.483 286.273 190.912 286.249 192.063 286.216C193.235 286.183 194.238 286.131 195.07 286.059C195.903 285.987 196.672 285.905 197.377 285.812L197.469 286.003C197.351 286.515 197.231 287.091 197.11 287.731C196.99 288.349 196.891 288.967 196.813 289.585C196.736 290.203 196.669 290.778 196.615 291.311L195.078 291.454C195.103 291.262 195.119 291.028 195.125 290.751C195.153 290.453 195.169 290.229 195.172 290.08C195.184 289.569 195.14 289.165 195.04 288.868C194.962 288.55 194.764 288.318 194.448 288.172C194.153 288.026 193.676 287.935 193.016 287.899C192.356 287.863 191.462 287.85 190.332 287.861C189.65 287.868 189.149 287.894 188.828 287.94C188.508 287.986 188.303 288.094 188.214 288.265C188.146 288.436 188.097 288.724 188.067 289.129L187.581 296.572L187.303 303.279C187.29 303.854 187.334 304.279 187.434 304.555C187.535 304.809 187.755 304.977 188.094 305.059C188.455 305.141 189.018 305.178 189.786 305.17C191.043 305.158 192.056 305.105 192.825 305.012C193.594 304.92 194.184 304.744 194.595 304.484C195.005 304.225 195.312 303.839 195.516 303.326C195.719 302.792 195.895 302.088 196.042 301.214L197.452 301.04L197.545 301.199C197.381 301.86 197.202 302.703 197.009 303.726C196.837 304.749 196.688 305.698 196.562 306.572L196.397 306.765C195.12 306.735 193.842 306.705 192.564 306.675C191.307 306.666 190.168 306.656 189.145 306.645C188.123 306.634 187.313 306.631 186.717 306.637C186.056 306.643 185.299 306.672 184.446 306.723C183.613 306.795 182.887 306.887 182.266 307ZM187.118 297.247L187.449 295.328C187.598 295.327 187.886 295.324 188.312 295.32C188.738 295.315 189.196 295.322 189.686 295.338C190.176 295.333 190.602 295.329 190.964 295.325C191.327 295.322 191.881 295.285 192.629 295.213C193.398 295.121 194.146 295.028 194.872 294.936L194.996 295.094L194.507 296.983C193.91 296.967 193.165 296.953 192.271 296.941C191.397 296.928 190.652 296.925 190.034 296.931C189.629 296.935 189.149 296.972 188.593 297.041C188.059 297.089 187.568 297.157 187.118 297.247Z" fill="#FF4646"/>
<path d="M150.467 303.092C150.467 303.092 150.44 302.85 150.388 302.366C150.356 301.885 150.302 301.249 150.225 300.459C150.149 299.668 150.056 298.799 149.946 297.851C149.858 296.907 149.769 295.963 149.68 295.019C149.596 294.054 149.505 293.175 149.408 292.38C149.335 291.569 149.271 290.931 149.214 290.468C149.067 289.384 148.481 288.743 147.456 288.545L147.419 288.409L147.82 287.409C147.82 287.409 147.978 287.436 148.293 287.491C148.629 287.549 148.994 287.622 149.389 287.712C149.788 287.781 150.103 287.835 150.334 287.875C150.964 287.984 151.567 288.066 152.142 288.122C152.718 288.179 153.176 288.225 153.516 288.262C153.882 288.282 154.065 288.292 154.065 288.292L154.096 288.459L153.707 289.397C153.01 289.298 152.522 289.289 152.245 289.371C151.971 289.432 151.804 289.608 151.744 289.9C151.71 290.067 151.7 290.433 151.715 290.997C151.733 291.54 151.76 292.203 151.795 292.987C151.854 293.753 151.908 294.55 151.955 295.379C152.027 296.191 152.087 296.957 152.135 297.678C152.203 298.403 152.255 298.995 152.291 299.454C152.331 299.893 152.352 300.113 152.352 300.113L152.478 300.135C152.96 299.375 153.408 298.675 153.823 298.034C154.263 297.376 154.66 296.764 155.016 296.199C155.392 295.638 155.735 295.135 156.043 294.692C156.356 294.227 156.627 293.81 156.855 293.439C157.109 293.051 157.321 292.709 157.49 292.414C157.417 291.711 157.26 291.154 157.018 290.745C156.776 290.336 156.329 290.076 155.678 289.964L155.641 289.827L156.042 288.828C156.042 288.828 156.2 288.855 156.515 288.909C156.851 288.967 157.216 289.041 157.611 289.131C158.01 289.2 158.325 289.254 158.556 289.294C159.186 289.402 159.776 289.493 160.326 289.567C160.902 289.623 161.37 289.671 161.732 289.712C162.093 289.753 162.274 289.773 162.274 289.773L162.305 289.941L161.916 290.878C161.198 290.775 160.702 290.755 160.428 290.816C160.176 290.88 160.022 291.048 159.966 291.319C159.936 291.465 159.928 291.82 159.943 292.384C159.962 292.927 159.988 293.59 160.023 294.374C160.083 295.14 160.136 295.938 160.183 296.767C160.251 297.599 160.309 298.376 160.356 299.097C160.425 299.821 160.477 300.413 160.513 300.873C160.553 301.312 160.573 301.531 160.573 301.531L160.699 301.553C161.85 299.765 162.836 298.25 163.656 297.009C164.477 295.769 165.113 294.788 165.566 294.067C166.023 293.325 166.277 292.829 166.329 292.579C166.389 292.287 166.335 292.072 166.167 291.935C166.004 291.777 165.681 291.657 165.198 291.574L164.032 291.373L163.945 291.163L164.302 290.22C164.302 290.22 164.457 290.258 164.768 290.333C165.083 290.387 165.469 290.465 165.927 290.566C166.41 290.649 166.904 290.734 167.408 290.821C167.765 290.883 168.143 290.948 168.542 291.017C168.945 291.065 169.283 291.112 169.556 291.159C169.85 291.21 169.997 291.235 169.997 291.235L169.539 292.355C169.11 292.324 168.738 292.444 168.421 292.713C168.109 292.961 167.67 293.512 167.103 294.364L160.499 304.272L158.689 304.511C158.689 304.511 158.654 304.202 158.585 303.586C158.542 302.952 158.469 302.14 158.368 301.151C158.272 300.141 158.165 299.075 158.047 297.953C157.951 296.835 157.852 295.781 157.751 294.792L157.562 294.759L152.309 302.859L150.467 303.092Z" fill="#FF4646"/>
<path d="M135.508 298.878C134.221 298.495 133.191 297.877 132.419 297.025C131.646 296.172 131.148 295.169 130.924 294.014C130.727 292.844 130.849 291.593 131.29 290.258C131.631 289.227 132.129 288.298 132.783 287.471C133.458 286.651 134.229 285.981 135.096 285.462C135.97 284.923 136.872 284.57 137.802 284.403C138.759 284.222 139.697 284.268 140.616 284.542C143.659 285.449 144.696 287.368 143.727 290.3C143.64 290.563 143.53 290.83 143.395 291.1C143.261 291.371 143.147 291.582 143.052 291.731L142.534 291.976L134.079 289.457C133.464 291.25 133.319 292.773 133.646 294.025C133.999 295.263 134.769 296.159 135.954 296.712C137.147 297.245 138.717 297.38 140.666 297.117L140.83 297.233L140.876 298.212C140.374 298.374 139.784 298.531 139.105 298.684C138.447 298.843 137.795 298.949 137.15 299.001C136.504 299.053 135.957 299.012 135.508 298.878ZM134.572 288.371L140.207 289.751C140.527 289.801 140.754 289.791 140.89 289.721C141.026 289.65 141.143 289.463 141.244 289.16C141.511 288.351 141.49 287.667 141.181 287.109C140.893 286.556 140.34 286.159 139.523 285.915C138.584 285.635 137.66 285.715 136.752 286.155C135.85 286.575 135.124 287.314 134.572 288.371Z" fill="#FF4646"/>
<path d="M120.192 294.487C119.788 291.666 119.38 289.006 118.968 286.506C118.555 284.007 118.178 281.812 117.834 279.922C117.5 278.013 117.222 276.512 117.002 275.419C116.802 274.334 116.701 273.791 116.701 273.791L116.555 273.728L110.661 286.035C110.463 286.46 110.392 286.789 110.449 287.022C110.505 287.255 110.699 287.444 111.031 287.588C111.129 287.63 111.295 287.702 111.53 287.804C111.793 287.895 112.022 287.983 112.217 288.068C112.432 288.161 112.54 288.208 112.54 288.208L112.545 288.349L111.675 289.538C111.675 289.538 111.572 289.482 111.366 289.369C111.171 289.285 110.921 289.165 110.617 289.01C110.313 288.855 109.98 288.687 109.618 288.506C109.266 288.354 108.934 288.209 108.621 288.074C108.23 287.904 107.81 287.745 107.362 287.597C106.934 287.458 106.564 287.344 106.253 287.255C105.942 287.167 105.786 287.122 105.786 287.122L106.552 285.853C107.194 286.039 107.724 286.06 108.143 285.917C108.562 285.774 108.92 285.407 109.218 284.817L115.481 272.322C115.759 271.723 115.771 271.218 115.516 270.806C115.281 270.402 114.697 269.94 113.765 269.419L113.744 269.236L114.477 268.266C114.477 268.266 114.619 268.339 114.903 268.486C115.207 268.641 115.545 268.822 115.918 269.031C116.32 269.228 116.657 269.386 116.931 269.505C117.263 269.649 117.581 269.775 117.883 269.883C118.185 269.991 118.438 270.078 118.643 270.143C118.847 270.209 118.95 270.241 118.95 270.241C119.236 272.153 119.521 274.017 119.804 275.834C120.107 277.659 120.396 279.363 120.671 280.945C120.946 282.526 121.196 283.911 121.419 285.098C121.642 286.286 121.809 287.217 121.918 287.891C122.056 288.554 122.125 288.886 122.125 288.886L122.272 288.95L127.723 277.216C127.921 276.791 127.986 276.449 127.92 276.188C127.862 275.907 127.667 275.695 127.335 275.551C127.08 275.441 126.822 275.34 126.559 275.249C126.324 275.147 126.207 275.096 126.207 275.096L126.202 274.955L127.072 273.766C127.072 273.766 127.165 273.818 127.351 273.922C127.547 274.007 127.787 274.122 128.071 274.269C128.355 274.416 128.649 274.566 128.953 274.721C129.266 274.857 129.549 274.98 129.803 275.09C130.214 275.268 130.653 275.436 131.12 275.592C131.588 275.749 131.987 275.875 132.318 275.973C132.649 276.07 132.814 276.118 132.814 276.118L132.048 277.387C131.348 277.176 130.764 277.143 130.297 277.289C129.85 277.443 129.486 277.796 129.206 278.347L121.231 294.451L120.192 294.487Z" fill="#FF4646"/>
<path d="M87.8539 276.424C86.7319 275.687 85.9204 274.797 85.4193 273.755C84.9182 272.713 84.7212 271.603 84.8283 270.425C84.9652 269.241 85.4297 268.068 86.2216 266.907C86.8336 266.009 87.567 265.255 88.4217 264.644C89.2943 264.045 90.2166 263.619 91.1887 263.366C92.1727 263.095 93.1321 263.011 94.0667 263.115C95.031 263.214 95.914 263.526 96.7154 264.052C99.3691 265.795 99.826 267.942 98.086 270.493C97.93 270.722 97.7503 270.948 97.5466 271.171C97.343 271.394 97.1754 271.564 97.0438 271.681L96.4805 271.77L89.1072 266.929C88.0214 268.483 87.4604 269.911 87.4242 271.212C87.4178 272.507 87.9038 273.59 88.8822 274.462C89.8726 275.316 91.3349 275.894 93.2691 276.196L93.3934 276.354L93.1653 277.313C92.6411 277.325 92.0336 277.308 91.343 277.263C90.6701 277.228 90.0183 277.144 89.3877 277.011C88.757 276.877 88.2458 276.681 87.8539 276.424ZM89.88 266.022L94.8774 268.96C95.1686 269.1 95.3887 269.155 95.5377 269.126C95.6868 269.096 95.8513 268.949 96.0313 268.686C96.5112 267.982 96.6813 267.316 96.5415 266.689C96.4195 266.074 96.0023 265.533 95.2899 265.065C94.4706 264.527 93.5662 264.341 92.5767 264.506C91.5992 264.654 90.7003 265.16 89.88 266.022Z" fill="#FF4646"/>
<path d="M67.2447 258.624C67.7636 258.967 68.1958 259.114 68.5413 259.067C68.9033 259.033 69.2761 258.788 69.6595 258.331L80.5866 245.311C80.9563 244.87 81.1492 244.491 81.1653 244.174C81.2115 243.854 81.0698 243.559 80.7403 243.288L80.2214 242.863L80.1842 242.708L80.9403 242.006C81.3603 242.268 81.8269 242.54 82.3402 242.824C82.87 243.12 83.3833 243.403 83.8801 243.673C84.3906 243.926 84.8283 244.134 85.1934 244.295L85.0746 244.735C84.9129 244.795 84.4759 245.167 83.7636 245.85C83.0513 246.533 82.1488 247.459 81.0559 248.629C79.9795 249.812 78.773 251.15 77.4364 252.643C77.6202 252.656 77.9425 252.687 78.4034 252.734C78.8944 252.778 79.4252 252.842 79.9959 252.924C80.583 253.02 81.1262 253.135 81.6256 253.269C82.1414 253.416 82.5147 253.585 82.7453 253.774C83.8162 254.652 84.4154 255.611 84.5429 256.652C84.6842 257.677 84.3303 258.695 83.4813 259.707C83.3033 259.919 82.9842 260.249 82.524 260.698C82.0802 261.161 81.5803 261.674 81.0242 262.237C80.4682 262.8 79.9326 263.339 79.4176 263.853C78.9191 264.381 78.5192 264.824 78.218 265.183C77.8209 265.656 77.5924 266.061 77.5325 266.397C77.4863 266.718 77.6197 267.006 77.9327 267.263C78.0315 267.344 78.1633 267.452 78.3281 267.587C78.523 267.719 78.6932 267.831 78.8387 267.923L78.806 268.061L77.7251 268.952C77.4751 268.719 77.1346 268.412 76.7035 268.031C76.2888 267.664 75.9168 267.345 75.5873 267.075C75.3896 266.913 75.1438 266.725 74.8501 266.512C74.5426 266.315 74.2187 266.104 73.8783 265.88C73.5242 265.673 73.1632 265.473 72.7954 265.282L73.7364 264.359C74.3402 264.634 74.8519 264.737 75.2714 264.668C75.7047 264.582 76.0994 264.327 76.4554 263.903L80.6705 259.179C81.3552 258.363 81.7011 257.586 81.7084 256.848C81.7322 256.124 81.4145 255.492 80.7555 254.952C80.3437 254.614 79.7234 254.326 78.8947 254.087C78.0825 253.862 77.2801 253.741 76.4874 253.725C75.9643 254.315 75.4206 254.929 74.8564 255.569C74.3087 256.221 73.739 256.883 73.1474 257.555C72.586 258.224 72.0109 258.91 71.4221 259.611C70.9976 260.117 70.7622 260.53 70.716 260.85C70.7 261.167 70.8485 261.454 71.1615 261.711C71.2603 261.792 71.3921 261.9 71.5569 262.035C71.7518 262.168 71.922 262.28 72.0675 262.371L72.0348 262.51L70.9291 263.38C70.6628 263.134 70.314 262.82 69.8829 262.439C69.4518 262.058 69.0714 261.733 68.7419 261.463C68.396 261.179 67.9841 260.841 67.5063 260.45C67.0313 260.088 66.614 259.773 66.2543 259.506L67.2447 258.624Z" fill="#FF4646"/>
<path d="M54 247.151L55.1692 246.384C55.9271 247.044 56.5232 247.476 56.9573 247.679C57.4068 247.868 57.8531 247.823 58.296 247.546C58.7692 247.269 59.4131 246.74 60.2277 245.958L70.2795 236.311C69.3893 235.453 68.6616 234.793 68.0963 234.332C67.5611 233.871 67.0828 233.607 66.6613 233.539C66.2551 233.456 65.8081 233.546 65.3201 233.807C64.8321 234.069 64.2055 234.478 63.4404 235.036L62.3034 234.045C62.8084 233.679 63.3214 233.29 63.8423 232.878C64.3632 232.467 64.8614 232.063 65.3367 231.665C65.8275 231.254 66.257 230.886 66.6253 230.562L67.0098 230.591L68.6011 232.74L75.4916 239.856L77.6345 241.564L77.6502 241.948C77.3115 242.302 76.9264 242.716 76.4949 243.189C76.0788 243.648 75.6625 244.121 75.2458 244.609C74.844 245.113 74.4578 245.587 74.0873 246.031L72.9504 245.041C73.5383 244.27 73.9651 243.639 74.2308 243.148C74.5267 242.657 74.6406 242.208 74.5726 241.801C74.5348 241.394 74.3169 240.924 73.919 240.391C73.5211 239.858 72.9452 239.156 72.1911 238.285C71.6855 238.682 70.9802 239.27 70.075 240.05C69.1698 240.83 68.1645 241.721 67.059 242.723C65.9688 243.71 64.8556 244.72 63.7193 245.751C62.5979 246.798 61.5684 247.771 60.6308 248.671C60.0622 249.217 59.7512 249.707 59.6979 250.142C59.66 250.562 59.8707 251.01 60.3301 251.484C60.7746 251.943 61.2052 252.342 61.6218 252.68L61.5962 252.838L60.3357 253.649C60.0398 253.313 59.6922 252.923 59.2926 252.48C58.8777 252.051 58.4779 251.623 58.0932 251.195C57.7079 250.797 57.3893 250.468 57.1374 250.208C56.9003 249.963 56.5965 249.649 56.2261 249.267C55.855 248.914 55.4692 248.546 55.0686 248.163C54.6827 247.795 54.3266 247.458 54 247.151Z" fill="#FF4646"/>
<path d="M300.24 162.949L300.4 162.091C301.026 162.037 301.479 161.957 301.758 161.851C302.038 161.731 302.211 161.512 302.278 161.192C302.358 160.86 302.398 160.34 302.398 159.635V150.931C301.625 150.958 301.012 150.998 300.56 151.051C300.12 151.091 299.794 151.191 299.58 151.351C299.367 151.497 299.214 151.737 299.121 152.069C299.028 152.402 298.941 152.861 298.861 153.447L297.922 153.527C297.975 153.141 298.022 152.741 298.062 152.329C298.102 151.916 298.135 151.517 298.162 151.131C298.189 150.732 298.209 150.379 298.222 150.073L298.402 149.913L300.06 150.133H306.254L307.952 149.913L308.132 150.073C308.145 150.379 308.165 150.732 308.192 151.131C308.218 151.517 308.252 151.91 308.292 152.309C308.345 152.708 308.392 153.087 308.431 153.447L307.492 153.527C307.399 152.928 307.299 152.462 307.193 152.129C307.1 151.783 306.946 151.537 306.733 151.391C306.533 151.231 306.227 151.124 305.814 151.071C305.401 151.018 304.835 150.971 304.116 150.931C304.076 151.331 304.036 151.903 303.996 152.648C303.956 153.393 303.923 154.232 303.896 155.164C303.869 156.082 303.843 157.02 303.816 157.978C303.803 158.936 303.796 159.821 303.796 160.633C303.796 161.126 303.883 161.478 304.056 161.691C304.229 161.891 304.522 161.991 304.935 161.991C305.335 161.991 305.701 161.971 306.034 161.931L306.094 162.011L305.914 162.929C305.634 162.916 305.308 162.902 304.935 162.889C304.562 162.889 304.196 162.882 303.836 162.869C303.49 162.869 303.203 162.869 302.977 162.869C302.764 162.869 302.491 162.869 302.158 162.869C301.838 162.882 301.505 162.896 301.159 162.909C300.826 162.922 300.52 162.936 300.24 162.949Z" fill="#FF0000"/>
<path d="M316.581 163.248C316.155 162.051 315.729 160.853 315.302 159.655C314.876 158.457 314.45 157.266 314.024 156.082C313.598 154.884 313.171 153.686 312.745 152.489H312.645C312.645 152.489 312.625 152.695 312.585 153.107C312.559 153.507 312.519 154.032 312.465 154.684C312.412 155.323 312.352 156.009 312.286 156.741C312.219 157.473 312.159 158.178 312.106 158.857C312.052 159.522 312.006 160.088 311.966 160.553C311.939 161.006 311.926 161.279 311.926 161.372C311.926 161.784 312.132 161.991 312.545 161.991C312.652 161.991 312.812 161.991 313.025 161.991C313.251 161.977 313.364 161.971 313.364 161.971L313.404 162.051L313.225 162.949C313.225 162.949 313.105 162.942 312.865 162.929C312.639 162.916 312.372 162.902 312.066 162.889C311.773 162.876 311.513 162.869 311.287 162.869C311.087 162.869 310.887 162.876 310.687 162.889C310.487 162.902 310.301 162.922 310.128 162.949C309.955 162.976 309.815 162.995 309.708 163.009C309.615 163.022 309.568 163.029 309.568 163.029L309.668 162.11C310.094 162.057 310.401 161.924 310.587 161.711C310.774 161.485 310.894 161.106 310.947 160.573C310.974 160.334 311.014 159.975 311.067 159.495C311.12 159.003 311.18 158.451 311.247 157.839C311.313 157.213 311.373 156.581 311.426 155.942C311.493 155.303 311.553 154.698 311.606 154.125C311.673 153.553 311.719 153.074 311.746 152.688C311.786 152.289 311.806 152.043 311.806 151.95C311.806 151.71 311.746 151.517 311.626 151.371C311.506 151.224 311.32 151.111 311.067 151.031C310.814 150.938 310.487 150.878 310.088 150.852L310.028 150.752L310.188 150.053C310.188 150.053 310.321 150.06 310.587 150.073C310.867 150.086 311.18 150.106 311.526 150.133C311.873 150.146 312.152 150.153 312.365 150.153C312.565 150.153 312.765 150.146 312.965 150.133C313.178 150.12 313.358 150.106 313.504 150.093C313.651 150.08 313.724 150.073 313.724 150.073C314.177 151.524 314.603 152.855 315.003 154.066C315.416 155.277 315.775 156.321 316.082 157.2C316.401 158.078 316.648 158.763 316.821 159.256C317.007 159.735 317.101 159.975 317.101 159.975H317.201C317.201 159.975 317.287 159.735 317.46 159.256C317.647 158.763 317.9 158.078 318.22 157.2C318.539 156.308 318.905 155.263 319.318 154.066C319.731 152.868 320.178 151.55 320.657 150.113C320.657 150.1 320.737 150.1 320.897 150.113C321.07 150.126 321.256 150.14 321.456 150.153C321.669 150.153 321.842 150.153 321.976 150.153C322.175 150.153 322.449 150.146 322.795 150.133C323.141 150.106 323.448 150.086 323.714 150.073C323.994 150.046 324.133 150.033 324.133 150.033L324.173 150.113L324.074 150.852C323.501 150.918 323.095 151.038 322.855 151.211C322.615 151.371 322.495 151.617 322.495 151.95C322.495 152.069 322.502 152.335 322.515 152.748C322.542 153.161 322.575 153.666 322.615 154.265C322.655 154.864 322.695 155.51 322.735 156.202C322.788 156.88 322.835 157.559 322.875 158.238C322.928 158.916 322.975 159.535 323.015 160.094C323.108 160.866 323.214 161.379 323.334 161.631C323.454 161.871 323.674 161.991 323.994 161.991C324.114 161.991 324.233 161.984 324.353 161.971C324.486 161.957 324.553 161.951 324.553 161.951L324.593 162.031L324.413 162.929C324.413 162.929 324.307 162.922 324.094 162.909C323.88 162.896 323.621 162.882 323.314 162.869C323.021 162.869 322.755 162.869 322.515 162.869C322.302 162.869 322.076 162.876 321.836 162.889C321.596 162.902 321.37 162.922 321.157 162.949C320.943 162.976 320.77 162.995 320.637 163.009C320.504 163.022 320.437 163.029 320.437 163.029L320.517 162.11C320.93 162.057 321.23 161.951 321.416 161.791C321.603 161.631 321.696 161.405 321.696 161.112C321.696 160.993 321.676 160.706 321.636 160.254C321.609 159.788 321.569 159.229 321.516 158.577C321.463 157.925 321.41 157.246 321.356 156.541C321.303 155.836 321.25 155.177 321.196 154.565C321.143 153.952 321.097 153.453 321.057 153.067C321.03 152.682 321.017 152.489 321.017 152.489H320.917C320.597 153.367 320.277 154.252 319.958 155.144C319.638 156.022 319.312 156.907 318.979 157.799C318.659 158.69 318.339 159.582 318.02 160.474C317.7 161.352 317.38 162.23 317.061 163.109L316.581 163.248Z" fill="#FF0000"/>
<defs>
<radialGradient id="paint0_radial_101_4" cx="0" cy="0" r="1" gradientUnits="userSpaceOnUse" gradientTransform="translate(200 200) rotate(90) scale(243.5)">
<stop stop-color="#FAFF00"/>
<stop offset="1" stop-color="#FAFF00" stop-opacity="0"/>
</radialGradient>
</defs>
</svg>
